# FamiTracker text export 0.4.2

# Song information
TITLE           "Roguelore Soundtrack"
AUTHOR          "Wendel Scardua"
COPYRIGHT       "CC0 2020"

# Song comment
COMMENT ""

# Global settings
MACHINE         0
FRAMERATE       0
EXPANSION       8
VIBRATO         1
SPLIT           32

# Macros
MACRO       0   0   4  -1   0 : 8 6 4 3 2
MACRO       4   0  -1  -1   0 : 3

# DPCM samples

# Instruments
INST2A03   0     0  -1  -1  -1  -1 "Blank"
INST2A03   1     0  -1  -1  -1   0 "Violin"

# Tracks

TRACK  64   8 150 "Pachelbel's Canon in D"
COLUMNS : 1 1 1 1 1 1 1

ORDER 00 : 00 00 00 00 00 00 00
ORDER 01 : 01 00 00 00 00 00 00
ORDER 02 : 02 01 00 00 00 00 00
ORDER 03 : 03 02 00 00 00 01 00
ORDER 04 : 04 03 00 00 00 02 00
ORDER 05 : 05 04 00 00 00 03 00
ORDER 06 : 06 05 00 00 00 04 00
ORDER 07 : 07 06 00 00 00 05 00
ORDER 08 : 08 07 00 00 00 06 00
ORDER 09 : 09 08 00 00 00 07 00
ORDER 0A : 0A 09 00 00 00 08 00
ORDER 0B : 0B 0A 00 00 00 09 00
ORDER 0C : 0C 0B 00 00 00 0A 00
ORDER 0D : 0D 0C 00 00 00 0B 00
ORDER 0E : 0E 0D 00 00 00 0C 00
ORDER 0F : 0F 0E 00 00 00 0D 00
ORDER 10 : 10 0F 00 00 00 0E 00
ORDER 11 : 11 10 00 00 00 0F 00
ORDER 12 : 12 11 00 00 00 10 00
ORDER 13 : 13 12 00 00 00 11 00
ORDER 14 : 14 13 00 00 00 12 00
ORDER 15 : 15 14 00 00 00 13 00
ORDER 16 : 16 15 00 00 00 14 00
ORDER 17 : 17 16 00 00 00 15 00
ORDER 18 : 18 17 00 00 00 16 00
ORDER 19 : 19 18 00 00 00 17 00
ORDER 1A : 1A 19 01 00 00 18 00

PATTERN 00
ROW 00 : --- .. F ... : --- .. F ... : D-4 00 . ... : ... .. . ... : ... .. . ... : --- .. F ... : ... .. . ...
ROW 01 : ... .. . ... : ... .. . ... : ... .. . ... : ... .. . ... : ... .. . ... : ... .. . ... : ... .. . ...
ROW 02 : ... .. . ... : ... .. . ... : ... .. . ... : ... .. . ... : ... .. . ... : ... .. . ... : ... .. . ...
ROW 03 : ... .. . ... : ... .. . ... : ... .. . ... : ... .. . ... : ... .. . ... : ... .. . ... : ... .. . ...
ROW 04 : ... .. . ... : ... .. . ... : ... .. . ... : ... .. . ... : ... .. . ... : ... .. . ... : ... .. . ...
ROW 05 : ... .. . ... : ... .. . ... : ... .. . ... : ... .. . ... : ... .. . ... : ... .. . ... : ... .. . ...
ROW 06 : ... .. . ... : ... .. . ... : ... .. . ... : ... .. . ... : ... .. . ... : ... .. . ... : ... .. . ...
ROW 07 : ... .. . ... : ... .. . ... : ... .. . ... : ... .. . ... : ... .. . ... : ... .. . ... : ... .. . ...
ROW 08 : ... .. . ... : ... .. . ... : A-3 00 . ... : ... .. . ... : ... .. . ... : ... .. . ... : ... .. . ...
ROW 09 : ... .. . ... : ... .. . ... : ... .. . ... : ... .. . ... : ... .. . ... : ... .. . ... : ... .. . ...
ROW 0A : ... .. . ... : ... .. . ... : ... .. . ... : ... .. . ... : ... .. . ... : ... .. . ... : ... .. . ...
ROW 0B : ... .. . ... : ... .. . ... : ... .. . ... : ... .. . ... : ... .. . ... : ... .. . ... : ... .. . ...
ROW 0C : ... .. . ... : ... .. . ... : ... .. . ... : ... .. . ... : ... .. . ... : ... .. . ... : ... .. . ...
ROW 0D : ... .. . ... : ... .. . ... : ... .. . ... : ... .. . ... : ... .. . ... : ... .. . ... : ... .. . ...
ROW 0E : ... .. . ... : ... .. . ... : ... .. . ... : ... .. . ... : ... .. . ... : ... .. . ... : ... .. . ...
ROW 0F : ... .. . ... : ... .. . ... : ... .. . ... : ... .. . ... : ... .. . ... : ... .. . ... : ... .. . ...
ROW 10 : ... .. . ... : ... .. . ... : B-3 00 . ... : ... .. . ... : ... .. . ... : ... .. . ... : ... .. . ...
ROW 11 : ... .. . ... : ... .. . ... : ... .. . ... : ... .. . ... : ... .. . ... : ... .. . ... : ... .. . ...
ROW 12 : ... .. . ... : ... .. . ... : ... .. . ... : ... .. . ... : ... .. . ... : ... .. . ... : ... .. . ...
ROW 13 : ... .. . ... : ... .. . ... : ... .. . ... : ... .. . ... : ... .. . ... : ... .. . ... : ... .. . ...
ROW 14 : ... .. . ... : ... .. . ... : ... .. . ... : ... .. . ... : ... .. . ... : ... .. . ... : ... .. . ...
ROW 15 : ... .. . ... : ... .. . ... : ... .. . ... : ... .. . ... : ... .. . ... : ... .. . ... : ... .. . ...
ROW 16 : ... .. . ... : ... .. . ... : ... .. . ... : ... .. . ... : ... .. . ... : ... .. . ... : ... .. . ...
ROW 17 : ... .. . ... : ... .. . ... : ... .. . ... : ... .. . ... : ... .. . ... : ... .. . ... : ... .. . ...
ROW 18 : ... .. . ... : ... .. . ... : F#3 00 . ... : ... .. . ... : ... .. . ... : ... .. . ... : ... .. . ...
ROW 19 : ... .. . ... : ... .. . ... : ... .. . ... : ... .. . ... : ... .. . ... : ... .. . ... : ... .. . ...
ROW 1A : ... .. . ... : ... .. . ... : ... .. . ... : ... .. . ... : ... .. . ... : ... .. . ... : ... .. . ...
ROW 1B : ... .. . ... : ... .. . ... : ... .. . ... : ... .. . ... : ... .. . ... : ... .. . ... : ... .. . ...
ROW 1C : ... .. . ... : ... .. . ... : ... .. . ... : ... .. . ... : ... .. . ... : ... .. . ... : ... .. . ...
ROW 1D : ... .. . ... : ... .. . ... : ... .. . ... : ... .. . ... : ... .. . ... : ... .. . ... : ... .. . ...
ROW 1E : ... .. . ... : ... .. . ... : ... .. . ... : ... .. . ... : ... .. . ... : ... .. . ... : ... .. . ...
ROW 1F : ... .. . ... : ... .. . ... : ... .. . ... : ... .. . ... : ... .. . ... : ... .. . ... : ... .. . ...
ROW 20 : ... .. . ... : ... .. . ... : G-3 00 . ... : ... .. . ... : ... .. . ... : ... .. . ... : ... .. . ...
ROW 21 : ... .. . ... : ... .. . ... : ... .. . ... : ... .. . ... : ... .. . ... : ... .. . ... : ... .. . ...
ROW 22 : ... .. . ... : ... .. . ... : ... .. . ... : ... .. . ... : ... .. . ... : ... .. . ... : ... .. . ...
ROW 23 : ... .. . ... : ... .. . ... : ... .. . ... : ... .. . ... : ... .. . ... : ... .. . ... : ... .. . ...
ROW 24 : ... .. . ... : ... .. . ... : ... .. . ... : ... .. . ... : ... .. . ... : ... .. . ... : ... .. . ...
ROW 25 : ... .. . ... : ... .. . ... : ... .. . ... : ... .. . ... : ... .. . ... : ... .. . ... : ... .. . ...
ROW 26 : ... .. . ... : ... .. . ... : ... .. . ... : ... .. . ... : ... .. . ... : ... .. . ... : ... .. . ...
ROW 27 : ... .. . ... : ... .. . ... : ... .. . ... : ... .. . ... : ... .. . ... : ... .. . ... : ... .. . ...
ROW 28 : ... .. . ... : ... .. . ... : D-3 00 . ... : ... .. . ... : ... .. . ... : ... .. . ... : ... .. . ...
ROW 29 : ... .. . ... : ... .. . ... : ... .. . ... : ... .. . ... : ... .. . ... : ... .. . ... : ... .. . ...
ROW 2A : ... .. . ... : ... .. . ... : ... .. . ... : ... .. . ... : ... .. . ... : ... .. . ... : ... .. . ...
ROW 2B : ... .. . ... : ... .. . ... : ... .. . ... : ... .. . ... : ... .. . ... : ... .. . ... : ... .. . ...
ROW 2C : ... .. . ... : ... .. . ... : ... .. . ... : ... .. . ... : ... .. . ... : ... .. . ... : ... .. . ...
ROW 2D : ... .. . ... : ... .. . ... : ... .. . ... : ... .. . ... : ... .. . ... : ... .. . ... : ... .. . ...
ROW 2E : ... .. . ... : ... .. . ... : ... .. . ... : ... .. . ... : ... .. . ... : ... .. . ... : ... .. . ...
ROW 2F : ... .. . ... : ... .. . ... : ... .. . ... : ... .. . ... : ... .. . ... : ... .. . ... : ... .. . ...
ROW 30 : ... .. . ... : ... .. . ... : G-3 00 . ... : ... .. . ... : ... .. . ... : ... .. . ... : ... .. . ...
ROW 31 : ... .. . ... : ... .. . ... : ... .. . ... : ... .. . ... : ... .. . ... : ... .. . ... : ... .. . ...
ROW 32 : ... .. . ... : ... .. . ... : ... .. . ... : ... .. . ... : ... .. . ... : ... .. . ... : ... .. . ...
ROW 33 : ... .. . ... : ... .. . ... : ... .. . ... : ... .. . ... : ... .. . ... : ... .. . ... : ... .. . ...
ROW 34 : ... .. . ... : ... .. . ... : ... .. . ... : ... .. . ... : ... .. . ... : ... .. . ... : ... .. . ...
ROW 35 : ... .. . ... : ... .. . ... : ... .. . ... : ... .. . ... : ... .. . ... : ... .. . ... : ... .. . ...
ROW 36 : ... .. . ... : ... .. . ... : ... .. . ... : ... .. . ... : ... .. . ... : ... .. . ... : ... .. . ...
ROW 37 : ... .. . ... : ... .. . ... : ... .. . ... : ... .. . ... : ... .. . ... : ... .. . ... : ... .. . ...
ROW 38 : ... .. . ... : ... .. . ... : A-3 00 . ... : ... .. . ... : ... .. . ... : ... .. . ... : ... .. . ...
ROW 39 : ... .. . ... : ... .. . ... : ... .. . ... : ... .. . ... : ... .. . ... : ... .. . ... : ... .. . ...
ROW 3A : ... .. . ... : ... .. . ... : ... .. . ... : ... .. . ... : ... .. . ... : ... .. . ... : ... .. . ...
ROW 3B : ... .. . ... : ... .. . ... : ... .. . ... : ... .. . ... : ... .. . ... : ... .. . ... : ... .. . ...
ROW 3C : ... .. . ... : ... .. . ... : ... .. . ... : ... .. . ... : ... .. . ... : ... .. . ... : ... .. . ...
ROW 3D : ... .. . ... : ... .. . ... : ... .. . ... : ... .. . ... : ... .. . ... : ... .. . ... : ... .. . ...
ROW 3E : ... .. . ... : ... .. . ... : ... .. . ... : ... .. . ... : ... .. . ... : ... .. . ... : ... .. . ...
ROW 3F : ... .. . ... : ... .. . ... : ... .. . ... : ... .. . ... : ... .. . ... : ... .. . ... : ... .. . ...

PATTERN 01
ROW 00 : F#4 01 . ... : F#4 01 . ... : D-4 01 . ... : ... .. . ... : ... .. . ... : F#4 01 . ... : ... .. . ...
ROW 01 : ... .. . ... : ... .. . ... : ... .. . ... : ... .. . ... : ... .. . ... : ... .. . ... : ... .. . ...
ROW 02 : ... .. . ... : ... .. . ... : ... .. . ... : ... .. . ... : ... .. . ... : ... .. . ... : ... .. . ...
ROW 03 : ... .. . ... : ... .. . ... : ... .. . ... : ... .. . ... : ... .. . ... : ... .. . ... : ... .. . ...
ROW 04 : ... .. . ... : ... .. . ... : ... .. . ... : ... .. . ... : ... .. . ... : ... .. . ... : ... .. . ...
ROW 05 : ... .. . ... : ... .. . ... : ... .. . ... : ... .. . ... : ... .. . ... : ... .. . ... : ... .. . ...
ROW 06 : ... .. . ... : ... .. . ... : ... .. . ... : ... .. . ... : ... .. . ... : ... .. . ... : ... .. . ...
ROW 07 : ... .. . ... : ... .. . ... : ... .. . ... : ... .. . ... : ... .. . ... : ... .. . ... : ... .. . ...
ROW 08 : E-4 01 . ... : E-4 01 . ... : --- .. . ... : ... .. . ... : ... .. . ... : E-4 01 . ... : ... .. . ...
ROW 09 : ... .. . ... : ... .. . ... : ... .. . ... : ... .. . ... : ... .. . ... : ... .. . ... : ... .. . ...
ROW 0A : ... .. . ... : ... .. . ... : ... .. . ... : ... .. . ... : ... .. . ... : ... .. . ... : ... .. . ...
ROW 0B : ... .. . ... : ... .. . ... : ... .. . ... : ... .. . ... : ... .. . ... : ... .. . ... : ... .. . ...
ROW 0C : ... .. . ... : ... .. . ... : ... .. . ... : ... .. . ... : ... .. . ... : ... .. . ... : ... .. . ...
ROW 0D : ... .. . ... : ... .. . ... : ... .. . ... : ... .. . ... : ... .. . ... : ... .. . ... : ... .. . ...
ROW 0E : ... .. . ... : ... .. . ... : ... .. . ... : ... .. . ... : ... .. . ... : ... .. . ... : ... .. . ...
ROW 0F : ... .. . ... : ... .. . ... : ... .. . ... : ... .. . ... : ... .. . ... : ... .. . ... : ... .. . ...
ROW 10 : D-4 01 . ... : D-4 01 . ... : ... .. . ... : ... .. . ... : ... .. . ... : D-4 01 . ... : ... .. . ...
ROW 11 : ... .. . ... : ... .. . ... : ... .. . ... : ... .. . ... : ... .. . ... : ... .. . ... : ... .. . ...
ROW 12 : ... .. . ... : ... .. . ... : ... .. . ... : ... .. . ... : ... .. . ... : ... .. . ... : ... .. . ...
ROW 13 : ... .. . ... : ... .. . ... : ... .. . ... : ... .. . ... : ... .. . ... : ... .. . ... : ... .. . ...
ROW 14 : ... .. . ... : ... .. . ... : ... .. . ... : ... .. . ... : ... .. . ... : ... .. . ... : ... .. . ...
ROW 15 : ... .. . ... : ... .. . ... : ... .. . ... : ... .. . ... : ... .. . ... : ... .. . ... : ... .. . ...
ROW 16 : ... .. . ... : ... .. . ... : ... .. . ... : ... .. . ... : ... .. . ... : ... .. . ... : ... .. . ...
ROW 17 : ... .. . ... : ... .. . ... : ... .. . ... : ... .. . ... : ... .. . ... : ... .. . ... : ... .. . ...
ROW 18 : C#4 01 . ... : C#4 01 . ... : ... .. . ... : ... .. . ... : ... .. . ... : C#4 01 . ... : ... .. . ...
ROW 19 : ... .. . ... : ... .. . ... : ... .. . ... : ... .. . ... : ... .. . ... : ... .. . ... : ... .. . ...
ROW 1A : ... .. . ... : ... .. . ... : ... .. . ... : ... .. . ... : ... .. . ... : ... .. . ... : ... .. . ...
ROW 1B : ... .. . ... : ... .. . ... : ... .. . ... : ... .. . ... : ... .. . ... : ... .. . ... : ... .. . ...
ROW 1C : ... .. . ... : ... .. . ... : ... .. . ... : ... .. . ... : ... .. . ... : ... .. . ... : ... .. . ...
ROW 1D : ... .. . ... : ... .. . ... : ... .. . ... : ... .. . ... : ... .. . ... : ... .. . ... : ... .. . ...
ROW 1E : ... .. . ... : ... .. . ... : ... .. . ... : ... .. . ... : ... .. . ... : ... .. . ... : ... .. . ...
ROW 1F : ... .. . ... : ... .. . ... : ... .. . ... : ... .. . ... : ... .. . ... : ... .. . ... : ... .. . ...
ROW 20 : B-3 01 . ... : B-3 01 . ... : ... .. . ... : ... .. . ... : ... .. . ... : B-3 01 . ... : ... .. . ...
ROW 21 : ... .. . ... : ... .. . ... : ... .. . ... : ... .. . ... : ... .. . ... : ... .. . ... : ... .. . ...
ROW 22 : ... .. . ... : ... .. . ... : ... .. . ... : ... .. . ... : ... .. . ... : ... .. . ... : ... .. . ...
ROW 23 : ... .. . ... : ... .. . ... : ... .. . ... : ... .. . ... : ... .. . ... : ... .. . ... : ... .. . ...
ROW 24 : ... .. . ... : ... .. . ... : ... .. . ... : ... .. . ... : ... .. . ... : ... .. . ... : ... .. . ...
ROW 25 : ... .. . ... : ... .. . ... : ... .. . ... : ... .. . ... : ... .. . ... : ... .. . ... : ... .. . ...
ROW 26 : ... .. . ... : ... .. . ... : ... .. . ... : ... .. . ... : ... .. . ... : ... .. . ... : ... .. . ...
ROW 27 : ... .. . ... : ... .. . ... : ... .. . ... : ... .. . ... : ... .. . ... : ... .. . ... : ... .. . ...
ROW 28 : A-3 01 . ... : A-3 01 . ... : ... .. . ... : ... .. . ... : ... .. . ... : A-3 01 . ... : ... .. . ...
ROW 29 : ... .. . ... : ... .. . ... : ... .. . ... : ... .. . ... : ... .. . ... : ... .. . ... : ... .. . ...
ROW 2A : ... .. . ... : ... .. . ... : ... .. . ... : ... .. . ... : ... .. . ... : ... .. . ... : ... .. . ...
ROW 2B : ... .. . ... : ... .. . ... : ... .. . ... : ... .. . ... : ... .. . ... : ... .. . ... : ... .. . ...
ROW 2C : ... .. . ... : ... .. . ... : ... .. . ... : ... .. . ... : ... .. . ... : ... .. . ... : ... .. . ...
ROW 2D : ... .. . ... : ... .. . ... : ... .. . ... : ... .. . ... : ... .. . ... : ... .. . ... : ... .. . ...
ROW 2E : ... .. . ... : ... .. . ... : ... .. . ... : ... .. . ... : ... .. . ... : ... .. . ... : ... .. . ...
ROW 2F : ... .. . ... : ... .. . ... : ... .. . ... : ... .. . ... : ... .. . ... : ... .. . ... : ... .. . ...
ROW 30 : B-3 01 . ... : B-3 01 . ... : ... .. . ... : ... .. . ... : ... .. . ... : B-3 01 . ... : ... .. . ...
ROW 31 : ... .. . ... : ... .. . ... : ... .. . ... : ... .. . ... : ... .. . ... : ... .. . ... : ... .. . ...
ROW 32 : ... .. . ... : ... .. . ... : ... .. . ... : ... .. . ... : ... .. . ... : ... .. . ... : ... .. . ...
ROW 33 : ... .. . ... : ... .. . ... : ... .. . ... : ... .. . ... : ... .. . ... : ... .. . ... : ... .. . ...
ROW 34 : ... .. . ... : ... .. . ... : ... .. . ... : ... .. . ... : ... .. . ... : ... .. . ... : ... .. . ...
ROW 35 : ... .. . ... : ... .. . ... : ... .. . ... : ... .. . ... : ... .. . ... : ... .. . ... : ... .. . ...
ROW 36 : ... .. . ... : ... .. . ... : ... .. . ... : ... .. . ... : ... .. . ... : ... .. . ... : ... .. . ...
ROW 37 : ... .. . ... : ... .. . ... : ... .. . ... : ... .. . ... : ... .. . ... : ... .. . ... : ... .. . ...
ROW 38 : C#4 01 . ... : C#4 01 . ... : ... .. . ... : ... .. . ... : ... .. . ... : C#4 01 . ... : ... .. . ...
ROW 39 : ... .. . ... : ... .. . ... : ... .. . ... : ... .. . ... : ... .. . ... : ... .. . ... : ... .. . ...
ROW 3A : ... .. . ... : ... .. . ... : ... .. . ... : ... .. . ... : ... .. . ... : ... .. . ... : ... .. . ...
ROW 3B : ... .. . ... : ... .. . ... : ... .. . ... : ... .. . ... : ... .. . ... : ... .. . ... : ... .. . ...
ROW 3C : ... .. . ... : ... .. . ... : ... .. . ... : ... .. . ... : ... .. . ... : ... .. . ... : ... .. . ...
ROW 3D : ... .. . ... : ... .. . ... : ... .. . ... : ... .. . ... : ... .. . ... : ... .. . ... : ... .. . ...
ROW 3E : ... .. . ... : ... .. . ... : ... .. . ... : ... .. . ... : ... .. . ... : ... .. . ... : ... .. . ...
ROW 3F : ... .. . ... : ... .. . ... : ... .. . ... : ... .. . ... : ... .. . ... : ... .. . ... : ... .. . ...

PATTERN 02
ROW 00 : D-4 01 . ... : D-4 01 . ... : ... .. . ... : ... .. . ... : ... .. . ... : D-4 01 . ... : ... .. . ...
ROW 01 : ... .. . ... : ... .. . ... : ... .. . ... : ... .. . ... : ... .. . ... : ... .. . ... : ... .. . ...
ROW 02 : ... .. . ... : ... .. . ... : ... .. . ... : ... .. . ... : ... .. . ... : ... .. . ... : ... .. . ...
ROW 03 : ... .. . ... : ... .. . ... : ... .. . ... : ... .. . ... : ... .. . ... : ... .. . ... : ... .. . ...
ROW 04 : ... .. . ... : ... .. . ... : ... .. . ... : ... .. . ... : ... .. . ... : ... .. . ... : ... .. . ...
ROW 05 : ... .. . ... : ... .. . ... : ... .. . ... : ... .. . ... : ... .. . ... : ... .. . ... : ... .. . ...
ROW 06 : ... .. . ... : ... .. . ... : ... .. . ... : ... .. . ... : ... .. . ... : ... .. . ... : ... .. . ...
ROW 07 : ... .. . ... : ... .. . ... : ... .. . ... : ... .. . ... : ... .. . ... : ... .. . ... : ... .. . ...
ROW 08 : C#4 01 . ... : C#4 01 . ... : ... .. . ... : ... .. . ... : ... .. . ... : C#4 01 . ... : ... .. . ...
ROW 09 : ... .. . ... : ... .. . ... : ... .. . ... : ... .. . ... : ... .. . ... : ... .. . ... : ... .. . ...
ROW 0A : ... .. . ... : ... .. . ... : ... .. . ... : ... .. . ... : ... .. . ... : ... .. . ... : ... .. . ...
ROW 0B : ... .. . ... : ... .. . ... : ... .. . ... : ... .. . ... : ... .. . ... : ... .. . ... : ... .. . ...
ROW 0C : ... .. . ... : ... .. . ... : ... .. . ... : ... .. . ... : ... .. . ... : ... .. . ... : ... .. . ...
ROW 0D : ... .. . ... : ... .. . ... : ... .. . ... : ... .. . ... : ... .. . ... : ... .. . ... : ... .. . ...
ROW 0E : ... .. . ... : ... .. . ... : ... .. . ... : ... .. . ... : ... .. . ... : ... .. . ... : ... .. . ...
ROW 0F : ... .. . ... : ... .. . ... : ... .. . ... : ... .. . ... : ... .. . ... : ... .. . ... : ... .. . ...
ROW 10 : B-3 01 . ... : B-3 01 . ... : ... .. . ... : ... .. . ... : ... .. . ... : B-3 01 . ... : ... .. . ...
ROW 11 : ... .. . ... : ... .. . ... : ... .. . ... : ... .. . ... : ... .. . ... : ... .. . ... : ... .. . ...
ROW 12 : ... .. . ... : ... .. . ... : ... .. . ... : ... .. . ... : ... .. . ... : ... .. . ... : ... .. . ...
ROW 13 : ... .. . ... : ... .. . ... : ... .. . ... : ... .. . ... : ... .. . ... : ... .. . ... : ... .. . ...
ROW 14 : ... .. . ... : ... .. . ... : ... .. . ... : ... .. . ... : ... .. . ... : ... .. . ... : ... .. . ...
ROW 15 : ... .. . ... : ... .. . ... : ... .. . ... : ... .. . ... : ... .. . ... : ... .. . ... : ... .. . ...
ROW 16 : ... .. . ... : ... .. . ... : ... .. . ... : ... .. . ... : ... .. . ... : ... .. . ... : ... .. . ...
ROW 17 : ... .. . ... : ... .. . ... : ... .. . ... : ... .. . ... : ... .. . ... : ... .. . ... : ... .. . ...
ROW 18 : A-3 01 . ... : A-3 01 . ... : ... .. . ... : ... .. . ... : ... .. . ... : A-3 01 . ... : ... .. . ...
ROW 19 : ... .. . ... : ... .. . ... : ... .. . ... : ... .. . ... : ... .. . ... : ... .. . ... : ... .. . ...
ROW 1A : ... .. . ... : ... .. . ... : ... .. . ... : ... .. . ... : ... .. . ... : ... .. . ... : ... .. . ...
ROW 1B : ... .. . ... : ... .. . ... : ... .. . ... : ... .. . ... : ... .. . ... : ... .. . ... : ... .. . ...
ROW 1C : ... .. . ... : ... .. . ... : ... .. . ... : ... .. . ... : ... .. . ... : ... .. . ... : ... .. . ...
ROW 1D : ... .. . ... : ... .. . ... : ... .. . ... : ... .. . ... : ... .. . ... : ... .. . ... : ... .. . ...
ROW 1E : ... .. . ... : ... .. . ... : ... .. . ... : ... .. . ... : ... .. . ... : ... .. . ... : ... .. . ...
ROW 1F : ... .. . ... : ... .. . ... : ... .. . ... : ... .. . ... : ... .. . ... : ... .. . ... : ... .. . ...
ROW 20 : G-3 01 . ... : G-3 01 . ... : ... .. . ... : ... .. . ... : ... .. . ... : G-3 01 . ... : ... .. . ...
ROW 21 : ... .. . ... : ... .. . ... : ... .. . ... : ... .. . ... : ... .. . ... : ... .. . ... : ... .. . ...
ROW 22 : ... .. . ... : ... .. . ... : ... .. . ... : ... .. . ... : ... .. . ... : ... .. . ... : ... .. . ...
ROW 23 : ... .. . ... : ... .. . ... : ... .. . ... : ... .. . ... : ... .. . ... : ... .. . ... : ... .. . ...
ROW 24 : ... .. . ... : ... .. . ... : ... .. . ... : ... .. . ... : ... .. . ... : ... .. . ... : ... .. . ...
ROW 25 : ... .. . ... : ... .. . ... : ... .. . ... : ... .. . ... : ... .. . ... : ... .. . ... : ... .. . ...
ROW 26 : ... .. . ... : ... .. . ... : ... .. . ... : ... .. . ... : ... .. . ... : ... .. . ... : ... .. . ...
ROW 27 : ... .. . ... : ... .. . ... : ... .. . ... : ... .. . ... : ... .. . ... : ... .. . ... : ... .. . ...
ROW 28 : F#3 01 . ... : F#3 01 . ... : ... .. . ... : ... .. . ... : ... .. . ... : F#3 01 . ... : ... .. . ...
ROW 29 : ... .. . ... : ... .. . ... : ... .. . ... : ... .. . ... : ... .. . ... : ... .. . ... : ... .. . ...
ROW 2A : ... .. . ... : ... .. . ... : ... .. . ... : ... .. . ... : ... .. . ... : ... .. . ... : ... .. . ...
ROW 2B : ... .. . ... : ... .. . ... : ... .. . ... : ... .. . ... : ... .. . ... : ... .. . ... : ... .. . ...
ROW 2C : ... .. . ... : ... .. . ... : ... .. . ... : ... .. . ... : ... .. . ... : ... .. . ... : ... .. . ...
ROW 2D : ... .. . ... : ... .. . ... : ... .. . ... : ... .. . ... : ... .. . ... : ... .. . ... : ... .. . ...
ROW 2E : ... .. . ... : ... .. . ... : ... .. . ... : ... .. . ... : ... .. . ... : ... .. . ... : ... .. . ...
ROW 2F : ... .. . ... : ... .. . ... : ... .. . ... : ... .. . ... : ... .. . ... : ... .. . ... : ... .. . ...
ROW 30 : G-3 01 . ... : G-3 01 . ... : ... .. . ... : ... .. . ... : ... .. . ... : G-3 01 . ... : ... .. . ...
ROW 31 : ... .. . ... : ... .. . ... : ... .. . ... : ... .. . ... : ... .. . ... : ... .. . ... : ... .. . ...
ROW 32 : ... .. . ... : ... .. . ... : ... .. . ... : ... .. . ... : ... .. . ... : ... .. . ... : ... .. . ...
ROW 33 : ... .. . ... : ... .. . ... : ... .. . ... : ... .. . ... : ... .. . ... : ... .. . ... : ... .. . ...
ROW 34 : ... .. . ... : ... .. . ... : ... .. . ... : ... .. . ... : ... .. . ... : ... .. . ... : ... .. . ...
ROW 35 : ... .. . ... : ... .. . ... : ... .. . ... : ... .. . ... : ... .. . ... : ... .. . ... : ... .. . ...
ROW 36 : ... .. . ... : ... .. . ... : ... .. . ... : ... .. . ... : ... .. . ... : ... .. . ... : ... .. . ...
ROW 37 : ... .. . ... : ... .. . ... : ... .. . ... : ... .. . ... : ... .. . ... : ... .. . ... : ... .. . ...
ROW 38 : A-3 01 . ... : A-3 01 . ... : ... .. . ... : ... .. . ... : ... .. . ... : A-3 01 . ... : ... .. . ...
ROW 39 : ... .. . ... : ... .. . ... : ... .. . ... : ... .. . ... : ... .. . ... : ... .. . ... : ... .. . ...
ROW 3A : ... .. . ... : ... .. . ... : ... .. . ... : ... .. . ... : ... .. . ... : ... .. . ... : ... .. . ...
ROW 3B : ... .. . ... : ... .. . ... : ... .. . ... : ... .. . ... : ... .. . ... : ... .. . ... : ... .. . ...
ROW 3C : ... .. . ... : ... .. . ... : ... .. . ... : ... .. . ... : ... .. . ... : ... .. . ... : ... .. . ...
ROW 3D : ... .. . ... : ... .. . ... : ... .. . ... : ... .. . ... : ... .. . ... : ... .. . ... : ... .. . ...
ROW 3E : ... .. . ... : ... .. . ... : ... .. . ... : ... .. . ... : ... .. . ... : ... .. . ... : ... .. . ...
ROW 3F : ... .. . ... : ... .. . ... : ... .. . ... : ... .. . ... : ... .. . ... : ... .. . ... : ... .. . ...

PATTERN 03
ROW 00 : D-3 01 . ... : D-3 01 . ... : ... .. . ... : ... .. . ... : ... .. . ... : D-3 01 . ... : ... .. . ...
ROW 01 : ... .. . ... : ... .. . ... : ... .. . ... : ... .. . ... : ... .. . ... : ... .. . ... : ... .. . ...
ROW 02 : ... .. . ... : ... .. . ... : ... .. . ... : ... .. . ... : ... .. . ... : ... .. . ... : ... .. . ...
ROW 03 : ... .. . ... : ... .. . ... : ... .. . ... : ... .. . ... : ... .. . ... : ... .. . ... : ... .. . ...
ROW 04 : F#3 01 . ... : F#3 01 . ... : ... .. . ... : ... .. . ... : ... .. . ... : F#3 01 . ... : ... .. . ...
ROW 05 : ... .. . ... : ... .. . ... : ... .. . ... : ... .. . ... : ... .. . ... : ... .. . ... : ... .. . ...
ROW 06 : ... .. . ... : ... .. . ... : ... .. . ... : ... .. . ... : ... .. . ... : ... .. . ... : ... .. . ...
ROW 07 : ... .. . ... : ... .. . ... : ... .. . ... : ... .. . ... : ... .. . ... : ... .. . ... : ... .. . ...
ROW 08 : A-3 01 . ... : A-3 01 . ... : ... .. . ... : ... .. . ... : ... .. . ... : A-3 01 . ... : ... .. . ...
ROW 09 : ... .. . ... : ... .. . ... : ... .. . ... : ... .. . ... : ... .. . ... : ... .. . ... : ... .. . ...
ROW 0A : ... .. . ... : ... .. . ... : ... .. . ... : ... .. . ... : ... .. . ... : ... .. . ... : ... .. . ...
ROW 0B : ... .. . ... : ... .. . ... : ... .. . ... : ... .. . ... : ... .. . ... : ... .. . ... : ... .. . ...
ROW 0C : G-3 01 . ... : G-3 01 . ... : ... .. . ... : ... .. . ... : ... .. . ... : G-3 01 . ... : ... .. . ...
ROW 0D : ... .. . ... : ... .. . ... : ... .. . ... : ... .. . ... : ... .. . ... : ... .. . ... : ... .. . ...
ROW 0E : ... .. . ... : ... .. . ... : ... .. . ... : ... .. . ... : ... .. . ... : ... .. . ... : ... .. . ...
ROW 0F : ... .. . ... : ... .. . ... : ... .. . ... : ... .. . ... : ... .. . ... : ... .. . ... : ... .. . ...
ROW 10 : F#3 01 . ... : F#3 01 . ... : ... .. . ... : ... .. . ... : ... .. . ... : F#3 01 . ... : ... .. . ...
ROW 11 : ... .. . ... : ... .. . ... : ... .. . ... : ... .. . ... : ... .. . ... : ... .. . ... : ... .. . ...
ROW 12 : ... .. . ... : ... .. . ... : ... .. . ... : ... .. . ... : ... .. . ... : ... .. . ... : ... .. . ...
ROW 13 : ... .. . ... : ... .. . ... : ... .. . ... : ... .. . ... : ... .. . ... : ... .. . ... : ... .. . ...
ROW 14 : D-3 01 . ... : D-3 01 . ... : ... .. . ... : ... .. . ... : ... .. . ... : D-3 01 . ... : ... .. . ...
ROW 15 : ... .. . ... : ... .. . ... : ... .. . ... : ... .. . ... : ... .. . ... : ... .. . ... : ... .. . ...
ROW 16 : ... .. . ... : ... .. . ... : ... .. . ... : ... .. . ... : ... .. . ... : ... .. . ... : ... .. . ...
ROW 17 : ... .. . ... : ... .. . ... : ... .. . ... : ... .. . ... : ... .. . ... : ... .. . ... : ... .. . ...
ROW 18 : F#3 01 . ... : F#3 01 . ... : ... .. . ... : ... .. . ... : ... .. . ... : F#3 01 . ... : ... .. . ...
ROW 19 : ... .. . ... : ... .. . ... : ... .. . ... : ... .. . ... : ... .. . ... : ... .. . ... : ... .. . ...
ROW 1A : ... .. . ... : ... .. . ... : ... .. . ... : ... .. . ... : ... .. . ... : ... .. . ... : ... .. . ...
ROW 1B : ... .. . ... : ... .. . ... : ... .. . ... : ... .. . ... : ... .. . ... : ... .. . ... : ... .. . ...
ROW 1C : E-3 01 . ... : E-3 01 . ... : ... .. . ... : ... .. . ... : ... .. . ... : E-3 01 . ... : ... .. . ...
ROW 1D : ... .. . ... : ... .. . ... : ... .. . ... : ... .. . ... : ... .. . ... : ... .. . ... : ... .. . ...
ROW 1E : ... .. . ... : ... .. . ... : ... .. . ... : ... .. . ... : ... .. . ... : ... .. . ... : ... .. . ...
ROW 1F : ... .. . ... : ... .. . ... : ... .. . ... : ... .. . ... : ... .. . ... : ... .. . ... : ... .. . ...
ROW 20 : D-3 01 . ... : D-3 01 . ... : ... .. . ... : ... .. . ... : ... .. . ... : D-3 01 . ... : ... .. . ...
ROW 21 : ... .. . ... : ... .. . ... : ... .. . ... : ... .. . ... : ... .. . ... : ... .. . ... : ... .. . ...
ROW 22 : ... .. . ... : ... .. . ... : ... .. . ... : ... .. . ... : ... .. . ... : ... .. . ... : ... .. . ...
ROW 23 : ... .. . ... : ... .. . ... : ... .. . ... : ... .. . ... : ... .. . ... : ... .. . ... : ... .. . ...
ROW 24 : A-2 01 . ... : A-2 01 . ... : ... .. . ... : ... .. . ... : ... .. . ... : A-2 01 . ... : ... .. . ...
ROW 25 : ... .. . ... : ... .. . ... : ... .. . ... : ... .. . ... : ... .. . ... : ... .. . ... : ... .. . ...
ROW 26 : ... .. . ... : ... .. . ... : ... .. . ... : ... .. . ... : ... .. . ... : ... .. . ... : ... .. . ...
ROW 27 : ... .. . ... : ... .. . ... : ... .. . ... : ... .. . ... : ... .. . ... : ... .. . ... : ... .. . ...
ROW 28 : D-3 01 . ... : D-3 01 . ... : ... .. . ... : ... .. . ... : ... .. . ... : D-3 01 . ... : ... .. . ...
ROW 29 : ... .. . ... : ... .. . ... : ... .. . ... : ... .. . ... : ... .. . ... : ... .. . ... : ... .. . ...
ROW 2A : ... .. . ... : ... .. . ... : ... .. . ... : ... .. . ... : ... .. . ... : ... .. . ... : ... .. . ...
ROW 2B : ... .. . ... : ... .. . ... : ... .. . ... : ... .. . ... : ... .. . ... : ... .. . ... : ... .. . ...
ROW 2C : A-3 01 . ... : A-3 01 . ... : ... .. . ... : ... .. . ... : ... .. . ... : A-3 01 . ... : ... .. . ...
ROW 2D : ... .. . ... : ... .. . ... : ... .. . ... : ... .. . ... : ... .. . ... : ... .. . ... : ... .. . ...
ROW 2E : ... .. . ... : ... .. . ... : ... .. . ... : ... .. . ... : ... .. . ... : ... .. . ... : ... .. . ...
ROW 2F : ... .. . ... : ... .. . ... : ... .. . ... : ... .. . ... : ... .. . ... : ... .. . ... : ... .. . ...
ROW 30 : G-3 01 . ... : G-3 01 . ... : ... .. . ... : ... .. . ... : ... .. . ... : G-3 01 . ... : ... .. . ...
ROW 31 : ... .. . ... : ... .. . ... : ... .. . ... : ... .. . ... : ... .. . ... : ... .. . ... : ... .. . ...
ROW 32 : ... .. . ... : ... .. . ... : ... .. . ... : ... .. . ... : ... .. . ... : ... .. . ... : ... .. . ...
ROW 33 : ... .. . ... : ... .. . ... : ... .. . ... : ... .. . ... : ... .. . ... : ... .. . ... : ... .. . ...
ROW 34 : B-3 01 . ... : B-3 01 . ... : ... .. . ... : ... .. . ... : ... .. . ... : B-3 01 . ... : ... .. . ...
ROW 35 : ... .. . ... : ... .. . ... : ... .. . ... : ... .. . ... : ... .. . ... : ... .. . ... : ... .. . ...
ROW 36 : ... .. . ... : ... .. . ... : ... .. . ... : ... .. . ... : ... .. . ... : ... .. . ... : ... .. . ...
ROW 37 : ... .. . ... : ... .. . ... : ... .. . ... : ... .. . ... : ... .. . ... : ... .. . ... : ... .. . ...
ROW 38 : A-3 01 . ... : A-3 01 . ... : ... .. . ... : ... .. . ... : ... .. . ... : A-3 01 . ... : ... .. . ...
ROW 39 : ... .. . ... : ... .. . ... : ... .. . ... : ... .. . ... : ... .. . ... : ... .. . ... : ... .. . ...
ROW 3A : ... .. . ... : ... .. . ... : ... .. . ... : ... .. . ... : ... .. . ... : ... .. . ... : ... .. . ...
ROW 3B : ... .. . ... : ... .. . ... : ... .. . ... : ... .. . ... : ... .. . ... : ... .. . ... : ... .. . ...
ROW 3C : G-3 01 . ... : G-3 01 . ... : ... .. . ... : ... .. . ... : ... .. . ... : G-3 01 . ... : ... .. . ...
ROW 3D : ... .. . ... : ... .. . ... : ... .. . ... : ... .. . ... : ... .. . ... : ... .. . ... : ... .. . ...
ROW 3E : ... .. . ... : ... .. . ... : ... .. . ... : ... .. . ... : ... .. . ... : ... .. . ... : ... .. . ...
ROW 3F : ... .. . ... : ... .. . ... : ... .. . ... : ... .. . ... : ... .. . ... : ... .. . ... : ... .. . ...

PATTERN 04
ROW 00 : F#3 01 . ... : F#3 01 . ... : ... .. . ... : ... .. . ... : ... .. . ... : F#3 01 . ... : ... .. . ...
ROW 01 : ... .. . ... : ... .. . ... : ... .. . ... : ... .. . ... : ... .. . ... : ... .. . ... : ... .. . ...
ROW 02 : ... .. . ... : ... .. . ... : ... .. . ... : ... .. . ... : ... .. . ... : ... .. . ... : ... .. . ...
ROW 03 : ... .. . ... : ... .. . ... : ... .. . ... : ... .. . ... : ... .. . ... : ... .. . ... : ... .. . ...
ROW 04 : D-3 01 . ... : D-3 01 . ... : ... .. . ... : ... .. . ... : ... .. . ... : D-3 01 . ... : ... .. . ...
ROW 05 : ... .. . ... : ... .. . ... : ... .. . ... : ... .. . ... : ... .. . ... : ... .. . ... : ... .. . ...
ROW 06 : ... .. . ... : ... .. . ... : ... .. . ... : ... .. . ... : ... .. . ... : ... .. . ... : ... .. . ...
ROW 07 : ... .. . ... : ... .. . ... : ... .. . ... : ... .. . ... : ... .. . ... : ... .. . ... : ... .. . ...
ROW 08 : E-3 01 . ... : E-3 01 . ... : ... .. . ... : ... .. . ... : ... .. . ... : E-3 01 . ... : ... .. . ...
ROW 09 : ... .. . ... : ... .. . ... : ... .. . ... : ... .. . ... : ... .. . ... : ... .. . ... : ... .. . ...
ROW 0A : ... .. . ... : ... .. . ... : ... .. . ... : ... .. . ... : ... .. . ... : ... .. . ... : ... .. . ...
ROW 0B : ... .. . ... : ... .. . ... : ... .. . ... : ... .. . ... : ... .. . ... : ... .. . ... : ... .. . ...
ROW 0C : C#4 01 . ... : C#4 01 . ... : ... .. . ... : ... .. . ... : ... .. . ... : C#4 01 . ... : ... .. . ...
ROW 0D : ... .. . ... : ... .. . ... : ... .. . ... : ... .. . ... : ... .. . ... : ... .. . ... : ... .. . ...
ROW 0E : ... .. . ... : ... .. . ... : ... .. . ... : ... .. . ... : ... .. . ... : ... .. . ... : ... .. . ...
ROW 0F : ... .. . ... : ... .. . ... : ... .. . ... : ... .. . ... : ... .. . ... : ... .. . ... : ... .. . ...
ROW 10 : D-4 01 . ... : D-4 01 . ... : ... .. . ... : ... .. . ... : ... .. . ... : D-4 01 . ... : ... .. . ...
ROW 11 : ... .. . ... : ... .. . ... : ... .. . ... : ... .. . ... : ... .. . ... : ... .. . ... : ... .. . ...
ROW 12 : ... .. . ... : ... .. . ... : ... .. . ... : ... .. . ... : ... .. . ... : ... .. . ... : ... .. . ...
ROW 13 : ... .. . ... : ... .. . ... : ... .. . ... : ... .. . ... : ... .. . ... : ... .. . ... : ... .. . ...
ROW 14 : F#4 01 . ... : F#4 01 . ... : ... .. . ... : ... .. . ... : ... .. . ... : F#4 01 . ... : ... .. . ...
ROW 15 : ... .. . ... : ... .. . ... : ... .. . ... : ... .. . ... : ... .. . ... : ... .. . ... : ... .. . ...
ROW 16 : ... .. . ... : ... .. . ... : ... .. . ... : ... .. . ... : ... .. . ... : ... .. . ... : ... .. . ...
ROW 17 : ... .. . ... : ... .. . ... : ... .. . ... : ... .. . ... : ... .. . ... : ... .. . ... : ... .. . ...
ROW 18 : A-4 01 . ... : A-4 01 . ... : ... .. . ... : ... .. . ... : ... .. . ... : A-4 01 . ... : ... .. . ...
ROW 19 : ... .. . ... : ... .. . ... : ... .. . ... : ... .. . ... : ... .. . ... : ... .. . ... : ... .. . ...
ROW 1A : ... .. . ... : ... .. . ... : ... .. . ... : ... .. . ... : ... .. . ... : ... .. . ... : ... .. . ...
ROW 1B : ... .. . ... : ... .. . ... : ... .. . ... : ... .. . ... : ... .. . ... : ... .. . ... : ... .. . ...
ROW 1C : A-3 01 . ... : A-3 01 . ... : ... .. . ... : ... .. . ... : ... .. . ... : A-3 01 . ... : ... .. . ...
ROW 1D : ... .. . ... : ... .. . ... : ... .. . ... : ... .. . ... : ... .. . ... : ... .. . ... : ... .. . ...
ROW 1E : ... .. . ... : ... .. . ... : ... .. . ... : ... .. . ... : ... .. . ... : ... .. . ... : ... .. . ...
ROW 1F : ... .. . ... : ... .. . ... : ... .. . ... : ... .. . ... : ... .. . ... : ... .. . ... : ... .. . ...
ROW 20 : B-3 01 . ... : B-3 01 . ... : ... .. . ... : ... .. . ... : ... .. . ... : B-3 01 . ... : ... .. . ...
ROW 21 : ... .. . ... : ... .. . ... : ... .. . ... : ... .. . ... : ... .. . ... : ... .. . ... : ... .. . ...
ROW 22 : ... .. . ... : ... .. . ... : ... .. . ... : ... .. . ... : ... .. . ... : ... .. . ... : ... .. . ...
ROW 23 : ... .. . ... : ... .. . ... : ... .. . ... : ... .. . ... : ... .. . ... : ... .. . ... : ... .. . ...
ROW 24 : G-3 01 . ... : G-3 01 . ... : ... .. . ... : ... .. . ... : ... .. . ... : G-3 01 . ... : ... .. . ...
ROW 25 : ... .. . ... : ... .. . ... : ... .. . ... : ... .. . ... : ... .. . ... : ... .. . ... : ... .. . ...
ROW 26 : ... .. . ... : ... .. . ... : ... .. . ... : ... .. . ... : ... .. . ... : ... .. . ... : ... .. . ...
ROW 27 : ... .. . ... : ... .. . ... : ... .. . ... : ... .. . ... : ... .. . ... : ... .. . ... : ... .. . ...
ROW 28 : A-3 01 . ... : A-3 01 . ... : ... .. . ... : ... .. . ... : ... .. . ... : A-3 01 . ... : ... .. . ...
ROW 29 : ... .. . ... : ... .. . ... : ... .. . ... : ... .. . ... : ... .. . ... : ... .. . ... : ... .. . ...
ROW 2A : ... .. . ... : ... .. . ... : ... .. . ... : ... .. . ... : ... .. . ... : ... .. . ... : ... .. . ...
ROW 2B : ... .. . ... : ... .. . ... : ... .. . ... : ... .. . ... : ... .. . ... : ... .. . ... : ... .. . ...
ROW 2C : F#3 01 . ... : F#3 01 . ... : ... .. . ... : ... .. . ... : ... .. . ... : F#3 01 . ... : ... .. . ...
ROW 2D : ... .. . ... : ... .. . ... : ... .. . ... : ... .. . ... : ... .. . ... : ... .. . ... : ... .. . ...
ROW 2E : ... .. . ... : ... .. . ... : ... .. . ... : ... .. . ... : ... .. . ... : ... .. . ... : ... .. . ...
ROW 2F : ... .. . ... : ... .. . ... : ... .. . ... : ... .. . ... : ... .. . ... : ... .. . ... : ... .. . ...
ROW 30 : D-3 01 . ... : D-3 01 . ... : ... .. . ... : ... .. . ... : ... .. . ... : D-3 01 . ... : ... .. . ...
ROW 31 : ... .. . ... : ... .. . ... : ... .. . ... : ... .. . ... : ... .. . ... : ... .. . ... : ... .. . ...
ROW 32 : ... .. . ... : ... .. . ... : ... .. . ... : ... .. . ... : ... .. . ... : ... .. . ... : ... .. . ...
ROW 33 : ... .. . ... : ... .. . ... : ... .. . ... : ... .. . ... : ... .. . ... : ... .. . ... : ... .. . ...
ROW 34 : D-4 01 . ... : D-4 01 . ... : ... .. . ... : ... .. . ... : ... .. . ... : D-4 01 . ... : ... .. . ...
ROW 35 : ... .. . ... : ... .. . ... : ... .. . ... : ... .. . ... : ... .. . ... : ... .. . ... : ... .. . ...
ROW 36 : ... .. . ... : ... .. . ... : ... .. . ... : ... .. . ... : ... .. . ... : ... .. . ... : ... .. . ...
ROW 37 : ... .. . ... : ... .. . ... : ... .. . ... : ... .. . ... : ... .. . ... : ... .. . ... : ... .. . ...
ROW 38 : D-4 01 . ... : D-4 01 . ... : ... .. . ... : ... .. . ... : ... .. . ... : D-4 01 . ... : ... .. . ...
ROW 39 : ... .. . ... : ... .. . ... : ... .. . ... : ... .. . ... : ... .. . ... : ... .. . ... : ... .. . ...
ROW 3A : ... .. . ... : ... .. . ... : ... .. . ... : ... .. . ... : ... .. . ... : ... .. . ... : ... .. . ...
ROW 3B : ... .. . ... : ... .. . ... : ... .. . ... : ... .. . ... : ... .. . ... : ... .. . ... : ... .. . ...
ROW 3C : ... .. . ... : ... .. . ... : ... .. . ... : ... .. . ... : ... .. . ... : ... .. . ... : ... .. . ...
ROW 3D : ... .. . ... : ... .. . ... : ... .. . ... : ... .. . ... : ... .. . ... : ... .. . ... : ... .. . ...
ROW 3E : C#4 01 . ... : C#4 01 . ... : ... .. . ... : ... .. . ... : ... .. . ... : C#4 01 . ... : ... .. . ...
ROW 3F : ... .. . ... : ... .. . ... : ... .. . ... : ... .. . ... : ... .. . ... : ... .. . ... : ... .. . ...

PATTERN 05
ROW 00 : D-4 01 . ... : D-4 01 . ... : ... .. . ... : ... .. . ... : ... .. . ... : D-4 01 . ... : ... .. . ...
ROW 01 : ... .. . ... : ... .. . ... : ... .. . ... : ... .. . ... : ... .. . ... : ... .. . ... : ... .. . ...
ROW 02 : C#4 01 . ... : C#4 01 . ... : ... .. . ... : ... .. . ... : ... .. . ... : C#4 01 . ... : ... .. . ...
ROW 03 : ... .. . ... : ... .. . ... : ... .. . ... : ... .. . ... : ... .. . ... : ... .. . ... : ... .. . ...
ROW 04 : D-4 01 . ... : D-4 01 . ... : ... .. . ... : ... .. . ... : ... .. . ... : D-4 01 . ... : ... .. . ...
ROW 05 : ... .. . ... : ... .. . ... : ... .. . ... : ... .. . ... : ... .. . ... : ... .. . ... : ... .. . ...
ROW 06 : D-3 01 . ... : D-3 01 . ... : ... .. . ... : ... .. . ... : ... .. . ... : D-3 01 . ... : ... .. . ...
ROW 07 : ... .. . ... : ... .. . ... : ... .. . ... : ... .. . ... : ... .. . ... : ... .. . ... : ... .. . ...
ROW 08 : C#3 01 . ... : C#3 01 . ... : ... .. . ... : ... .. . ... : ... .. . ... : C#3 01 . ... : ... .. . ...
ROW 09 : ... .. . ... : ... .. . ... : ... .. . ... : ... .. . ... : ... .. . ... : ... .. . ... : ... .. . ...
ROW 0A : A-3 01 . ... : A-3 01 . ... : ... .. . ... : ... .. . ... : ... .. . ... : A-3 01 . ... : ... .. . ...
ROW 0B : ... .. . ... : ... .. . ... : ... .. . ... : ... .. . ... : ... .. . ... : ... .. . ... : ... .. . ...
ROW 0C : E-3 01 . ... : E-3 01 . ... : ... .. . ... : ... .. . ... : ... .. . ... : E-3 01 . ... : ... .. . ...
ROW 0D : ... .. . ... : ... .. . ... : ... .. . ... : ... .. . ... : ... .. . ... : ... .. . ... : ... .. . ...
ROW 0E : F#3 01 . ... : F#3 01 . ... : ... .. . ... : ... .. . ... : ... .. . ... : F#3 01 . ... : ... .. . ...
ROW 0F : ... .. . ... : ... .. . ... : ... .. . ... : ... .. . ... : ... .. . ... : ... .. . ... : ... .. . ...
ROW 10 : D-3 01 . ... : D-3 01 . ... : ... .. . ... : ... .. . ... : ... .. . ... : D-3 01 . ... : ... .. . ...
ROW 11 : ... .. . ... : ... .. . ... : ... .. . ... : ... .. . ... : ... .. . ... : ... .. . ... : ... .. . ...
ROW 12 : D-4 01 . ... : D-4 01 . ... : ... .. . ... : ... .. . ... : ... .. . ... : D-4 01 . ... : ... .. . ...
ROW 13 : ... .. . ... : ... .. . ... : ... .. . ... : ... .. . ... : ... .. . ... : ... .. . ... : ... .. . ...
ROW 14 : C#4 01 . ... : C#4 01 . ... : ... .. . ... : ... .. . ... : ... .. . ... : C#4 01 . ... : ... .. . ...
ROW 15 : ... .. . ... : ... .. . ... : ... .. . ... : ... .. . ... : ... .. . ... : ... .. . ... : ... .. . ...
ROW 16 : B-3 01 . ... : B-3 01 . ... : ... .. . ... : ... .. . ... : ... .. . ... : B-3 01 . ... : ... .. . ...
ROW 17 : ... .. . ... : ... .. . ... : ... .. . ... : ... .. . ... : ... .. . ... : ... .. . ... : ... .. . ...
ROW 18 : C#4 01 . ... : C#4 01 . ... : ... .. . ... : ... .. . ... : ... .. . ... : C#4 01 . ... : ... .. . ...
ROW 19 : ... .. . ... : ... .. . ... : ... .. . ... : ... .. . ... : ... .. . ... : ... .. . ... : ... .. . ...
ROW 1A : F#4 01 . ... : F#4 01 . ... : ... .. . ... : ... .. . ... : ... .. . ... : F#4 01 . ... : ... .. . ...
ROW 1B : ... .. . ... : ... .. . ... : ... .. . ... : ... .. . ... : ... .. . ... : ... .. . ... : ... .. . ...
ROW 1C : A-4 01 . ... : A-4 01 . ... : ... .. . ... : ... .. . ... : ... .. . ... : A-4 01 . ... : ... .. . ...
ROW 1D : ... .. . ... : ... .. . ... : ... .. . ... : ... .. . ... : ... .. . ... : ... .. . ... : ... .. . ...
ROW 1E : C#5 01 . ... : C#5 01 . ... : ... .. . ... : ... .. . ... : ... .. . ... : C#5 01 . ... : ... .. . ...
ROW 1F : ... .. . ... : ... .. . ... : ... .. . ... : ... .. . ... : ... .. . ... : ... .. . ... : ... .. . ...
ROW 20 : G-4 01 . ... : G-4 01 . ... : ... .. . ... : ... .. . ... : ... .. . ... : G-4 01 . ... : ... .. . ...
ROW 21 : ... .. . ... : ... .. . ... : ... .. . ... : ... .. . ... : ... .. . ... : ... .. . ... : ... .. . ...
ROW 22 : F#4 01 . ... : F#4 01 . ... : ... .. . ... : ... .. . ... : ... .. . ... : F#4 01 . ... : ... .. . ...
ROW 23 : ... .. . ... : ... .. . ... : ... .. . ... : ... .. . ... : ... .. . ... : ... .. . ... : ... .. . ...
ROW 24 : E-4 01 . ... : E-4 01 . ... : ... .. . ... : ... .. . ... : ... .. . ... : E-4 01 . ... : ... .. . ...
ROW 25 : ... .. . ... : ... .. . ... : ... .. . ... : ... .. . ... : ... .. . ... : ... .. . ... : ... .. . ...
ROW 26 : G-4 01 . ... : G-4 01 . ... : ... .. . ... : ... .. . ... : ... .. . ... : G-4 01 . ... : ... .. . ...
ROW 27 : ... .. . ... : ... .. . ... : ... .. . ... : ... .. . ... : ... .. . ... : ... .. . ... : ... .. . ...
ROW 28 : F#4 01 . ... : F#4 01 . ... : ... .. . ... : ... .. . ... : ... .. . ... : F#4 01 . ... : ... .. . ...
ROW 29 : ... .. . ... : ... .. . ... : ... .. . ... : ... .. . ... : ... .. . ... : ... .. . ... : ... .. . ...
ROW 2A : E-4 01 . ... : E-4 01 . ... : ... .. . ... : ... .. . ... : ... .. . ... : E-4 01 . ... : ... .. . ...
ROW 2B : ... .. . ... : ... .. . ... : ... .. . ... : ... .. . ... : ... .. . ... : ... .. . ... : ... .. . ...
ROW 2C : D-4 01 . ... : D-4 01 . ... : ... .. . ... : ... .. . ... : ... .. . ... : D-4 01 . ... : ... .. . ...
ROW 2D : ... .. . ... : ... .. . ... : ... .. . ... : ... .. . ... : ... .. . ... : ... .. . ... : ... .. . ...
ROW 2E : C#4 01 . ... : C#4 01 . ... : ... .. . ... : ... .. . ... : ... .. . ... : C#4 01 . ... : ... .. . ...
ROW 2F : ... .. . ... : ... .. . ... : ... .. . ... : ... .. . ... : ... .. . ... : ... .. . ... : ... .. . ...
ROW 30 : B-3 01 . ... : B-3 01 . ... : ... .. . ... : ... .. . ... : ... .. . ... : B-3 01 . ... : ... .. . ...
ROW 31 : ... .. . ... : ... .. . ... : ... .. . ... : ... .. . ... : ... .. . ... : ... .. . ... : ... .. . ...
ROW 32 : A-3 01 . ... : A-3 01 . ... : ... .. . ... : ... .. . ... : ... .. . ... : A-3 01 . ... : ... .. . ...
ROW 33 : ... .. . ... : ... .. . ... : ... .. . ... : ... .. . ... : ... .. . ... : ... .. . ... : ... .. . ...
ROW 34 : G-3 01 . ... : G-3 01 . ... : ... .. . ... : ... .. . ... : ... .. . ... : G-3 01 . ... : ... .. . ...
ROW 35 : ... .. . ... : ... .. . ... : ... .. . ... : ... .. . ... : ... .. . ... : ... .. . ... : ... .. . ...
ROW 36 : F#3 01 . ... : F#3 01 . ... : ... .. . ... : ... .. . ... : ... .. . ... : F#3 01 . ... : ... .. . ...
ROW 37 : ... .. . ... : ... .. . ... : ... .. . ... : ... .. . ... : ... .. . ... : ... .. . ... : ... .. . ...
ROW 38 : E-3 01 . ... : E-3 01 . ... : ... .. . ... : ... .. . ... : ... .. . ... : E-3 01 . ... : ... .. . ...
ROW 39 : ... .. . ... : ... .. . ... : ... .. . ... : ... .. . ... : ... .. . ... : ... .. . ... : ... .. . ...
ROW 3A : G-3 01 . ... : G-3 01 . ... : ... .. . ... : ... .. . ... : ... .. . ... : G-3 01 . ... : ... .. . ...
ROW 3B : ... .. . ... : ... .. . ... : ... .. . ... : ... .. . ... : ... .. . ... : ... .. . ... : ... .. . ...
ROW 3C : F#3 01 . ... : F#3 01 . ... : ... .. . ... : ... .. . ... : ... .. . ... : F#3 01 . ... : ... .. . ...
ROW 3D : ... .. . ... : ... .. . ... : ... .. . ... : ... .. . ... : ... .. . ... : ... .. . ... : ... .. . ...
ROW 3E : E-3 01 . ... : E-3 01 . ... : ... .. . ... : ... .. . ... : ... .. . ... : E-3 01 . ... : ... .. . ...
ROW 3F : ... .. . ... : ... .. . ... : ... .. . ... : ... .. . ... : ... .. . ... : ... .. . ... : ... .. . ...

PATTERN 06
ROW 00 : D-3 01 . ... : D-3 01 . ... : ... .. . ... : ... .. . ... : ... .. . ... : D-3 01 . ... : ... .. . ...
ROW 01 : ... .. . ... : ... .. . ... : ... .. . ... : ... .. . ... : ... .. . ... : ... .. . ... : ... .. . ...
ROW 02 : E-3 01 . ... : E-3 01 . ... : ... .. . ... : ... .. . ... : ... .. . ... : E-3 01 . ... : ... .. . ...
ROW 03 : ... .. . ... : ... .. . ... : ... .. . ... : ... .. . ... : ... .. . ... : ... .. . ... : ... .. . ...
ROW 04 : F#3 01 . ... : F#3 01 . ... : ... .. . ... : ... .. . ... : ... .. . ... : F#3 01 . ... : ... .. . ...
ROW 05 : ... .. . ... : ... .. . ... : ... .. . ... : ... .. . ... : ... .. . ... : ... .. . ... : ... .. . ...
ROW 06 : G-3 01 . ... : G-3 01 . ... : ... .. . ... : ... .. . ... : ... .. . ... : G-3 01 . ... : ... .. . ...
ROW 07 : ... .. . ... : ... .. . ... : ... .. . ... : ... .. . ... : ... .. . ... : ... .. . ... : ... .. . ...
ROW 08 : A-3 01 . ... : A-3 01 . ... : ... .. . ... : ... .. . ... : ... .. . ... : A-3 01 . ... : ... .. . ...
ROW 09 : ... .. . ... : ... .. . ... : ... .. . ... : ... .. . ... : ... .. . ... : ... .. . ... : ... .. . ...
ROW 0A : E-3 01 . ... : E-3 01 . ... : ... .. . ... : ... .. . ... : ... .. . ... : E-3 01 . ... : ... .. . ...
ROW 0B : ... .. . ... : ... .. . ... : ... .. . ... : ... .. . ... : ... .. . ... : ... .. . ... : ... .. . ...
ROW 0C : A-3 01 . ... : A-3 01 . ... : ... .. . ... : ... .. . ... : ... .. . ... : A-3 01 . ... : ... .. . ...
ROW 0D : ... .. . ... : ... .. . ... : ... .. . ... : ... .. . ... : ... .. . ... : ... .. . ... : ... .. . ...
ROW 0E : G-3 01 . ... : G-3 01 . ... : ... .. . ... : ... .. . ... : ... .. . ... : G-3 01 . ... : ... .. . ...
ROW 0F : ... .. . ... : ... .. . ... : ... .. . ... : ... .. . ... : ... .. . ... : ... .. . ... : ... .. . ...
ROW 10 : F#3 01 . ... : F#3 01 . ... : ... .. . ... : ... .. . ... : ... .. . ... : F#3 01 . ... : ... .. . ...
ROW 11 : ... .. . ... : ... .. . ... : ... .. . ... : ... .. . ... : ... .. . ... : ... .. . ... : ... .. . ...
ROW 12 : B-3 01 . ... : B-3 01 . ... : ... .. . ... : ... .. . ... : ... .. . ... : B-3 01 . ... : ... .. . ...
ROW 13 : ... .. . ... : ... .. . ... : ... .. . ... : ... .. . ... : ... .. . ... : ... .. . ... : ... .. . ...
ROW 14 : A-3 01 . ... : A-3 01 . ... : ... .. . ... : ... .. . ... : ... .. . ... : A-3 01 . ... : ... .. . ...
ROW 15 : ... .. . ... : ... .. . ... : ... .. . ... : ... .. . ... : ... .. . ... : ... .. . ... : ... .. . ...
ROW 16 : G-3 01 . ... : G-3 01 . ... : ... .. . ... : ... .. . ... : ... .. . ... : G-3 01 . ... : ... .. . ...
ROW 17 : ... .. . ... : ... .. . ... : ... .. . ... : ... .. . ... : ... .. . ... : ... .. . ... : ... .. . ...
ROW 18 : A-3 01 . ... : A-3 01 . ... : ... .. . ... : ... .. . ... : ... .. . ... : A-3 01 . ... : ... .. . ...
ROW 19 : ... .. . ... : ... .. . ... : ... .. . ... : ... .. . ... : ... .. . ... : ... .. . ... : ... .. . ...
ROW 1A : G-3 01 . ... : G-3 01 . ... : ... .. . ... : ... .. . ... : ... .. . ... : G-3 01 . ... : ... .. . ...
ROW 1B : ... .. . ... : ... .. . ... : ... .. . ... : ... .. . ... : ... .. . ... : ... .. . ... : ... .. . ...
ROW 1C : F#3 01 . ... : F#3 01 . ... : ... .. . ... : ... .. . ... : ... .. . ... : F#3 01 . ... : ... .. . ...
ROW 1D : ... .. . ... : ... .. . ... : ... .. . ... : ... .. . ... : ... .. . ... : ... .. . ... : ... .. . ...
ROW 1E : E-3 01 . ... : E-3 01 . ... : ... .. . ... : ... .. . ... : ... .. . ... : E-3 01 . ... : ... .. . ...
ROW 1F : ... .. . ... : ... .. . ... : ... .. . ... : ... .. . ... : ... .. . ... : ... .. . ... : ... .. . ...
ROW 20 : D-3 01 . ... : D-3 01 . ... : ... .. . ... : ... .. . ... : ... .. . ... : D-3 01 . ... : ... .. . ...
ROW 21 : ... .. . ... : ... .. . ... : ... .. . ... : ... .. . ... : ... .. . ... : ... .. . ... : ... .. . ...
ROW 22 : A-2 01 . ... : A-2 01 . ... : ... .. . ... : ... .. . ... : ... .. . ... : A-2 01 . ... : ... .. . ...
ROW 23 : ... .. . ... : ... .. . ... : ... .. . ... : ... .. . ... : ... .. . ... : ... .. . ... : ... .. . ...
ROW 24 : B-3 01 . ... : B-3 01 . ... : ... .. . ... : ... .. . ... : ... .. . ... : B-3 01 . ... : ... .. . ...
ROW 25 : ... .. . ... : ... .. . ... : ... .. . ... : ... .. . ... : ... .. . ... : ... .. . ... : ... .. . ...
ROW 26 : C#4 01 . ... : C#4 01 . ... : ... .. . ... : ... .. . ... : ... .. . ... : C#4 01 . ... : ... .. . ...
ROW 27 : ... .. . ... : ... .. . ... : ... .. . ... : ... .. . ... : ... .. . ... : ... .. . ... : ... .. . ...
ROW 28 : D-4 01 . ... : D-4 01 . ... : ... .. . ... : ... .. . ... : ... .. . ... : D-4 01 . ... : ... .. . ...
ROW 29 : ... .. . ... : ... .. . ... : ... .. . ... : ... .. . ... : ... .. . ... : ... .. . ... : ... .. . ...
ROW 2A : C#4 01 . ... : C#4 01 . ... : ... .. . ... : ... .. . ... : ... .. . ... : C#4 01 . ... : ... .. . ...
ROW 2B : ... .. . ... : ... .. . ... : ... .. . ... : ... .. . ... : ... .. . ... : ... .. . ... : ... .. . ...
ROW 2C : B-3 01 . ... : B-3 01 . ... : ... .. . ... : ... .. . ... : ... .. . ... : B-3 01 . ... : ... .. . ...
ROW 2D : ... .. . ... : ... .. . ... : ... .. . ... : ... .. . ... : ... .. . ... : ... .. . ... : ... .. . ...
ROW 2E : A-3 01 . ... : A-3 01 . ... : ... .. . ... : ... .. . ... : ... .. . ... : A-3 01 . ... : ... .. . ...
ROW 2F : ... .. . ... : ... .. . ... : ... .. . ... : ... .. . ... : ... .. . ... : ... .. . ... : ... .. . ...
ROW 30 : G-3 01 . ... : G-3 01 . ... : ... .. . ... : ... .. . ... : ... .. . ... : G-3 01 . ... : ... .. . ...
ROW 31 : ... .. . ... : ... .. . ... : ... .. . ... : ... .. . ... : ... .. . ... : ... .. . ... : ... .. . ...
ROW 32 : F#3 01 . ... : F#3 01 . ... : ... .. . ... : ... .. . ... : ... .. . ... : F#3 01 . ... : ... .. . ...
ROW 33 : ... .. . ... : ... .. . ... : ... .. . ... : ... .. . ... : ... .. . ... : ... .. . ... : ... .. . ...
ROW 34 : E-3 01 . ... : E-3 01 . ... : ... .. . ... : ... .. . ... : ... .. . ... : E-3 01 . ... : ... .. . ...
ROW 35 : ... .. . ... : ... .. . ... : ... .. . ... : ... .. . ... : ... .. . ... : ... .. . ... : ... .. . ...
ROW 36 : B-3 01 . ... : B-3 01 . ... : ... .. . ... : ... .. . ... : ... .. . ... : B-3 01 . ... : ... .. . ...
ROW 37 : ... .. . ... : ... .. . ... : ... .. . ... : ... .. . ... : ... .. . ... : ... .. . ... : ... .. . ...
ROW 38 : A-3 01 . ... : A-3 01 . ... : ... .. . ... : ... .. . ... : ... .. . ... : A-3 01 . ... : ... .. . ...
ROW 39 : ... .. . ... : ... .. . ... : ... .. . ... : ... .. . ... : ... .. . ... : ... .. . ... : ... .. . ...
ROW 3A : B-3 01 . ... : B-3 01 . ... : ... .. . ... : ... .. . ... : ... .. . ... : B-3 01 . ... : ... .. . ...
ROW 3B : ... .. . ... : ... .. . ... : ... .. . ... : ... .. . ... : ... .. . ... : ... .. . ... : ... .. . ...
ROW 3C : A-3 01 . ... : A-3 01 . ... : ... .. . ... : ... .. . ... : ... .. . ... : A-3 01 . ... : ... .. . ...
ROW 3D : ... .. . ... : ... .. . ... : ... .. . ... : ... .. . ... : ... .. . ... : ... .. . ... : ... .. . ...
ROW 3E : G-3 01 . ... : G-3 01 . ... : ... .. . ... : ... .. . ... : ... .. . ... : G-3 01 . ... : ... .. . ...
ROW 3F : ... .. . ... : ... .. . ... : ... .. . ... : ... .. . ... : ... .. . ... : ... .. . ... : ... .. . ...

PATTERN 07
ROW 00 : F#3 01 . ... : F#3 01 . ... : ... .. . ... : ... .. . ... : ... .. . ... : F#3 01 . ... : ... .. . ...
ROW 01 : ... .. . ... : ... .. . ... : ... .. . ... : ... .. . ... : ... .. . ... : ... .. . ... : ... .. . ...
ROW 02 : ... .. . ... : ... .. . ... : ... .. . ... : ... .. . ... : ... .. . ... : ... .. . ... : ... .. . ...
ROW 03 : ... .. . ... : ... .. . ... : ... .. . ... : ... .. . ... : ... .. . ... : ... .. . ... : ... .. . ...
ROW 04 : F#4 01 . ... : F#4 01 . ... : ... .. . ... : ... .. . ... : ... .. . ... : F#4 01 . ... : ... .. . ...
ROW 05 : ... .. . ... : ... .. . ... : ... .. . ... : ... .. . ... : ... .. . ... : ... .. . ... : ... .. . ...
ROW 06 : ... .. . ... : ... .. . ... : ... .. . ... : ... .. . ... : ... .. . ... : ... .. . ... : ... .. . ...
ROW 07 : ... .. . ... : ... .. . ... : ... .. . ... : ... .. . ... : ... .. . ... : ... .. . ... : ... .. . ...
ROW 08 : E-4 01 . ... : E-4 01 . ... : ... .. . ... : ... .. . ... : ... .. . ... : E-4 01 . ... : ... .. . ...
ROW 09 : ... .. . ... : ... .. . ... : ... .. . ... : ... .. . ... : ... .. . ... : ... .. . ... : ... .. . ...
ROW 0A : ... .. . ... : ... .. . ... : ... .. . ... : ... .. . ... : ... .. . ... : ... .. . ... : ... .. . ...
ROW 0B : ... .. . ... : ... .. . ... : ... .. . ... : ... .. . ... : ... .. . ... : ... .. . ... : ... .. . ...
ROW 0C : ... .. . ... : ... .. . ... : ... .. . ... : ... .. . ... : ... .. . ... : ... .. . ... : ... .. . ...
ROW 0D : ... .. . ... : ... .. . ... : ... .. . ... : ... .. . ... : ... .. . ... : ... .. . ... : ... .. . ...
ROW 0E : ... .. . ... : ... .. . ... : ... .. . ... : ... .. . ... : ... .. . ... : ... .. . ... : ... .. . ...
ROW 0F : ... .. . ... : ... .. . ... : ... .. . ... : ... .. . ... : ... .. . ... : ... .. . ... : ... .. . ...
ROW 10 : --- .. . ... : --- .. . ... : ... .. . ... : ... .. . ... : ... .. . ... : --- .. . ... : ... .. . ...
ROW 11 : ... .. . ... : ... .. . ... : ... .. . ... : ... .. . ... : ... .. . ... : ... .. . ... : ... .. . ...
ROW 12 : ... .. . ... : ... .. . ... : ... .. . ... : ... .. . ... : ... .. . ... : ... .. . ... : ... .. . ...
ROW 13 : ... .. . ... : ... .. . ... : ... .. . ... : ... .. . ... : ... .. . ... : ... .. . ... : ... .. . ...
ROW 14 : D-4 01 . ... : D-4 01 . ... : ... .. . ... : ... .. . ... : ... .. . ... : D-4 01 . ... : ... .. . ...
ROW 15 : ... .. . ... : ... .. . ... : ... .. . ... : ... .. . ... : ... .. . ... : ... .. . ... : ... .. . ...
ROW 16 : ... .. . ... : ... .. . ... : ... .. . ... : ... .. . ... : ... .. . ... : ... .. . ... : ... .. . ...
ROW 17 : ... .. . ... : ... .. . ... : ... .. . ... : ... .. . ... : ... .. . ... : ... .. . ... : ... .. . ...
ROW 18 : F#4 01 . ... : F#4 01 . ... : ... .. . ... : ... .. . ... : ... .. . ... : F#4 01 . ... : ... .. . ...
ROW 19 : ... .. . ... : ... .. . ... : ... .. . ... : ... .. . ... : ... .. . ... : ... .. . ... : ... .. . ...
ROW 1A : ... .. . ... : ... .. . ... : ... .. . ... : ... .. . ... : ... .. . ... : ... .. . ... : ... .. . ...
ROW 1B : ... .. . ... : ... .. . ... : ... .. . ... : ... .. . ... : ... .. . ... : ... .. . ... : ... .. . ...
ROW 1C : ... .. . ... : ... .. . ... : ... .. . ... : ... .. . ... : ... .. . ... : ... .. . ... : ... .. . ...
ROW 1D : ... .. . ... : ... .. . ... : ... .. . ... : ... .. . ... : ... .. . ... : ... .. . ... : ... .. . ...
ROW 1E : ... .. . ... : ... .. . ... : ... .. . ... : ... .. . ... : ... .. . ... : ... .. . ... : ... .. . ...
ROW 1F : ... .. . ... : ... .. . ... : ... .. . ... : ... .. . ... : ... .. . ... : ... .. . ... : ... .. . ...
ROW 20 : B-4 01 . ... : B-4 01 . ... : ... .. . ... : ... .. . ... : ... .. . ... : B-4 01 . ... : ... .. . ...
ROW 21 : ... .. . ... : ... .. . ... : ... .. . ... : ... .. . ... : ... .. . ... : ... .. . ... : ... .. . ...
ROW 22 : ... .. . ... : ... .. . ... : ... .. . ... : ... .. . ... : ... .. . ... : ... .. . ... : ... .. . ...
ROW 23 : ... .. . ... : ... .. . ... : ... .. . ... : ... .. . ... : ... .. . ... : ... .. . ... : ... .. . ...
ROW 24 : ... .. . ... : ... .. . ... : ... .. . ... : ... .. . ... : ... .. . ... : ... .. . ... : ... .. . ...
ROW 25 : ... .. . ... : ... .. . ... : ... .. . ... : ... .. . ... : ... .. . ... : ... .. . ... : ... .. . ...
ROW 26 : ... .. . ... : ... .. . ... : ... .. . ... : ... .. . ... : ... .. . ... : ... .. . ... : ... .. . ...
ROW 27 : ... .. . ... : ... .. . ... : ... .. . ... : ... .. . ... : ... .. . ... : ... .. . ... : ... .. . ...
ROW 28 : A-4 01 . ... : A-4 01 . ... : ... .. . ... : ... .. . ... : ... .. . ... : A-4 01 . ... : ... .. . ...
ROW 29 : ... .. . ... : ... .. . ... : ... .. . ... : ... .. . ... : ... .. . ... : ... .. . ... : ... .. . ...
ROW 2A : ... .. . ... : ... .. . ... : ... .. . ... : ... .. . ... : ... .. . ... : ... .. . ... : ... .. . ...
ROW 2B : ... .. . ... : ... .. . ... : ... .. . ... : ... .. . ... : ... .. . ... : ... .. . ... : ... .. . ...
ROW 2C : ... .. . ... : ... .. . ... : ... .. . ... : ... .. . ... : ... .. . ... : ... .. . ... : ... .. . ...
ROW 2D : ... .. . ... : ... .. . ... : ... .. . ... : ... .. . ... : ... .. . ... : ... .. . ... : ... .. . ...
ROW 2E : ... .. . ... : ... .. . ... : ... .. . ... : ... .. . ... : ... .. . ... : ... .. . ... : ... .. . ...
ROW 2F : ... .. . ... : ... .. . ... : ... .. . ... : ... .. . ... : ... .. . ... : ... .. . ... : ... .. . ...
ROW 30 : B-4 01 . ... : B-4 01 . ... : ... .. . ... : ... .. . ... : ... .. . ... : B-4 01 . ... : ... .. . ...
ROW 31 : ... .. . ... : ... .. . ... : ... .. . ... : ... .. . ... : ... .. . ... : ... .. . ... : ... .. . ...
ROW 32 : ... .. . ... : ... .. . ... : ... .. . ... : ... .. . ... : ... .. . ... : ... .. . ... : ... .. . ...
ROW 33 : ... .. . ... : ... .. . ... : ... .. . ... : ... .. . ... : ... .. . ... : ... .. . ... : ... .. . ...
ROW 34 : ... .. . ... : ... .. . ... : ... .. . ... : ... .. . ... : ... .. . ... : ... .. . ... : ... .. . ...
ROW 35 : ... .. . ... : ... .. . ... : ... .. . ... : ... .. . ... : ... .. . ... : ... .. . ... : ... .. . ...
ROW 36 : ... .. . ... : ... .. . ... : ... .. . ... : ... .. . ... : ... .. . ... : ... .. . ... : ... .. . ...
ROW 37 : ... .. . ... : ... .. . ... : ... .. . ... : ... .. . ... : ... .. . ... : ... .. . ... : ... .. . ...
ROW 38 : C#5 01 . ... : C#5 01 . ... : ... .. . ... : ... .. . ... : ... .. . ... : C#5 01 . ... : ... .. . ...
ROW 39 : ... .. . ... : ... .. . ... : ... .. . ... : ... .. . ... : ... .. . ... : ... .. . ... : ... .. . ...
ROW 3A : ... .. . ... : ... .. . ... : ... .. . ... : ... .. . ... : ... .. . ... : ... .. . ... : ... .. . ...
ROW 3B : ... .. . ... : ... .. . ... : ... .. . ... : ... .. . ... : ... .. . ... : ... .. . ... : ... .. . ...
ROW 3C : ... .. . ... : ... .. . ... : ... .. . ... : ... .. . ... : ... .. . ... : ... .. . ... : ... .. . ...
ROW 3D : ... .. . ... : ... .. . ... : ... .. . ... : ... .. . ... : ... .. . ... : ... .. . ... : ... .. . ...
ROW 3E : ... .. . ... : ... .. . ... : ... .. . ... : ... .. . ... : ... .. . ... : ... .. . ... : ... .. . ...
ROW 3F : ... .. . ... : ... .. . ... : ... .. . ... : ... .. . ... : ... .. . ... : ... .. . ... : ... .. . ...

PATTERN 08
ROW 00 : D-5 01 . ... : D-5 01 . ... : ... .. . ... : ... .. . ... : ... .. . ... : D-5 01 . ... : ... .. . ...
ROW 01 : ... .. . ... : ... .. . ... : ... .. . ... : ... .. . ... : ... .. . ... : ... .. . ... : ... .. . ...
ROW 02 : ... .. . ... : ... .. . ... : ... .. . ... : ... .. . ... : ... .. . ... : ... .. . ... : ... .. . ...
ROW 03 : ... .. . ... : ... .. . ... : ... .. . ... : ... .. . ... : ... .. . ... : ... .. . ... : ... .. . ...
ROW 04 : D-4 01 . ... : D-4 01 . ... : ... .. . ... : ... .. . ... : ... .. . ... : D-4 01 . ... : ... .. . ...
ROW 05 : ... .. . ... : ... .. . ... : ... .. . ... : ... .. . ... : ... .. . ... : ... .. . ... : ... .. . ...
ROW 06 : ... .. . ... : ... .. . ... : ... .. . ... : ... .. . ... : ... .. . ... : ... .. . ... : ... .. . ...
ROW 07 : ... .. . ... : ... .. . ... : ... .. . ... : ... .. . ... : ... .. . ... : ... .. . ... : ... .. . ...
ROW 08 : C#4 01 . ... : C#4 01 . ... : ... .. . ... : ... .. . ... : ... .. . ... : C#4 01 . ... : ... .. . ...
ROW 09 : ... .. . ... : ... .. . ... : ... .. . ... : ... .. . ... : ... .. . ... : ... .. . ... : ... .. . ...
ROW 0A : ... .. . ... : ... .. . ... : ... .. . ... : ... .. . ... : ... .. . ... : ... .. . ... : ... .. . ...
ROW 0B : ... .. . ... : ... .. . ... : ... .. . ... : ... .. . ... : ... .. . ... : ... .. . ... : ... .. . ...
ROW 0C : ... .. . ... : ... .. . ... : ... .. . ... : ... .. . ... : ... .. . ... : ... .. . ... : ... .. . ...
ROW 0D : ... .. . ... : ... .. . ... : ... .. . ... : ... .. . ... : ... .. . ... : ... .. . ... : ... .. . ...
ROW 0E : ... .. . ... : ... .. . ... : ... .. . ... : ... .. . ... : ... .. . ... : ... .. . ... : ... .. . ...
ROW 0F : ... .. . ... : ... .. . ... : ... .. . ... : ... .. . ... : ... .. . ... : ... .. . ... : ... .. . ...
ROW 10 : --- .. . ... : --- .. . ... : ... .. . ... : ... .. . ... : ... .. . ... : --- .. . ... : ... .. . ...
ROW 11 : ... .. . ... : ... .. . ... : ... .. . ... : ... .. . ... : ... .. . ... : ... .. . ... : ... .. . ...
ROW 12 : ... .. . ... : ... .. . ... : ... .. . ... : ... .. . ... : ... .. . ... : ... .. . ... : ... .. . ...
ROW 13 : ... .. . ... : ... .. . ... : ... .. . ... : ... .. . ... : ... .. . ... : ... .. . ... : ... .. . ...
ROW 14 : B-3 01 . ... : B-3 01 . ... : ... .. . ... : ... .. . ... : ... .. . ... : B-3 01 . ... : ... .. . ...
ROW 15 : ... .. . ... : ... .. . ... : ... .. . ... : ... .. . ... : ... .. . ... : ... .. . ... : ... .. . ...
ROW 16 : ... .. . ... : ... .. . ... : ... .. . ... : ... .. . ... : ... .. . ... : ... .. . ... : ... .. . ...
ROW 17 : ... .. . ... : ... .. . ... : ... .. . ... : ... .. . ... : ... .. . ... : ... .. . ... : ... .. . ...
ROW 18 : D-4 01 F ... : D-4 01 F ... : ... .. . ... : ... .. . ... : ... .. . ... : D-4 01 F ... : ... .. . ...
ROW 19 : ... .. . ... : ... .. . ... : ... .. . ... : ... .. . ... : ... .. . ... : ... .. . ... : ... .. . ...
ROW 1A : ... .. . ... : ... .. . ... : ... .. . ... : ... .. . ... : ... .. . ... : ... .. . ... : ... .. . ...
ROW 1B : ... .. . ... : ... .. . ... : ... .. . ... : ... .. . ... : ... .. . ... : ... .. . ... : ... .. . ...
ROW 1C : ... .. . ... : ... .. . ... : ... .. . ... : ... .. . ... : ... .. . ... : ... .. . ... : ... .. . ...
ROW 1D : ... .. . ... : ... .. . ... : ... .. . ... : ... .. . ... : ... .. . ... : ... .. . ... : ... .. . ...
ROW 1E : ... .. . ... : ... .. . ... : ... .. . ... : ... .. . ... : ... .. . ... : ... .. . ... : ... .. . ...
ROW 1F : ... .. 6 ... : ... .. 6 ... : ... .. . ... : ... .. . ... : ... .. . ... : ... .. 6 ... : ... .. . ...
ROW 20 : D-4 01 F ... : D-4 01 F ... : ... .. . ... : ... .. . ... : ... .. . ... : D-4 01 F ... : ... .. . ...
ROW 21 : ... .. . ... : ... .. . ... : ... .. . ... : ... .. . ... : ... .. . ... : ... .. . ... : ... .. . ...
ROW 22 : ... .. . ... : ... .. . ... : ... .. . ... : ... .. . ... : ... .. . ... : ... .. . ... : ... .. . ...
ROW 23 : ... .. . ... : ... .. . ... : ... .. . ... : ... .. . ... : ... .. . ... : ... .. . ... : ... .. . ...
ROW 24 : ... .. . ... : ... .. . ... : ... .. . ... : ... .. . ... : ... .. . ... : ... .. . ... : ... .. . ...
ROW 25 : ... .. . ... : ... .. . ... : ... .. . ... : ... .. . ... : ... .. . ... : ... .. . ... : ... .. . ...
ROW 26 : ... .. . ... : ... .. . ... : ... .. . ... : ... .. . ... : ... .. . ... : ... .. . ... : ... .. . ...
ROW 27 : ... .. . ... : ... .. . ... : ... .. . ... : ... .. . ... : ... .. . ... : ... .. . ... : ... .. . ...
ROW 28 : ... .. . ... : ... .. . ... : ... .. . ... : ... .. . ... : ... .. . ... : ... .. . ... : ... .. . ...
ROW 29 : ... .. . ... : ... .. . ... : ... .. . ... : ... .. . ... : ... .. . ... : ... .. . ... : ... .. . ...
ROW 2A : ... .. . ... : ... .. . ... : ... .. . ... : ... .. . ... : ... .. . ... : ... .. . ... : ... .. . ...
ROW 2B : ... .. 6 ... : ... .. 6 ... : ... .. . ... : ... .. . ... : ... .. . ... : ... .. 6 ... : ... .. . ...
ROW 2C : D-4 01 F ... : D-4 01 F ... : ... .. . ... : ... .. . ... : ... .. . ... : D-4 01 F ... : ... .. . ...
ROW 2D : ... .. . ... : ... .. . ... : ... .. . ... : ... .. . ... : ... .. . ... : ... .. . ... : ... .. . ...
ROW 2E : ... .. . ... : ... .. . ... : ... .. . ... : ... .. . ... : ... .. . ... : ... .. . ... : ... .. . ...
ROW 2F : ... .. 6 ... : ... .. 6 ... : ... .. . ... : ... .. . ... : ... .. . ... : ... .. 6 ... : ... .. . ...
ROW 30 : D-4 01 F ... : D-4 01 F ... : ... .. . ... : ... .. . ... : ... .. . ... : D-4 01 F ... : ... .. . ...
ROW 31 : ... .. . ... : ... .. . ... : ... .. . ... : ... .. . ... : ... .. . ... : ... .. . ... : ... .. . ...
ROW 32 : ... .. . ... : ... .. . ... : ... .. . ... : ... .. . ... : ... .. . ... : ... .. . ... : ... .. . ...
ROW 33 : ... .. . ... : ... .. . ... : ... .. . ... : ... .. . ... : ... .. . ... : ... .. . ... : ... .. . ...
ROW 34 : G-4 01 . ... : G-4 01 . ... : ... .. . ... : ... .. . ... : ... .. . ... : G-4 01 . ... : ... .. . ...
ROW 35 : ... .. . ... : ... .. . ... : ... .. . ... : ... .. . ... : ... .. . ... : ... .. . ... : ... .. . ...
ROW 36 : ... .. . ... : ... .. . ... : ... .. . ... : ... .. . ... : ... .. . ... : ... .. . ... : ... .. . ...
ROW 37 : ... .. . ... : ... .. . ... : ... .. . ... : ... .. . ... : ... .. . ... : ... .. . ... : ... .. . ...
ROW 38 : E-4 01 . ... : E-4 01 . ... : ... .. . ... : ... .. . ... : ... .. . ... : E-4 01 . ... : ... .. . ...
ROW 39 : ... .. . ... : ... .. . ... : ... .. . ... : ... .. . ... : ... .. . ... : ... .. . ... : ... .. . ...
ROW 3A : ... .. . ... : ... .. . ... : ... .. . ... : ... .. . ... : ... .. . ... : ... .. . ... : ... .. . ...
ROW 3B : ... .. . ... : ... .. . ... : ... .. . ... : ... .. . ... : ... .. . ... : ... .. . ... : ... .. . ...
ROW 3C : A-4 01 F ... : A-4 01 F ... : ... .. . ... : ... .. . ... : ... .. . ... : A-4 01 F ... : ... .. . ...
ROW 3D : ... .. . ... : ... .. . ... : ... .. . ... : ... .. . ... : ... .. . ... : ... .. . ... : ... .. . ...
ROW 3E : ... .. . ... : ... .. . ... : ... .. . ... : ... .. . ... : ... .. . ... : ... .. . ... : ... .. . ...
ROW 3F : ... .. 6 ... : ... .. 6 ... : ... .. . ... : ... .. . ... : ... .. . ... : ... .. 6 ... : ... .. . ...

PATTERN 09
ROW 00 : A-4 01 F ... : A-4 01 F ... : ... .. . ... : ... .. . ... : ... .. . ... : A-4 01 F ... : ... .. . ...
ROW 01 : ... .. . ... : ... .. . ... : ... .. . ... : ... .. . ... : ... .. . ... : ... .. . ... : ... .. . ...
ROW 02 : F#4 01 . ... : F#4 01 . ... : ... .. . ... : ... .. . ... : ... .. . ... : F#4 01 . ... : ... .. . ...
ROW 03 : G-4 01 . ... : G-4 01 . ... : ... .. . ... : ... .. . ... : ... .. . ... : G-4 01 . ... : ... .. . ...
ROW 04 : A-4 01 . ... : A-4 01 . ... : ... .. . ... : ... .. . ... : ... .. . ... : A-4 01 . ... : ... .. . ...
ROW 05 : ... .. . ... : ... .. . ... : ... .. . ... : ... .. . ... : ... .. . ... : ... .. . ... : ... .. . ...
ROW 06 : F#4 01 . ... : F#4 01 . ... : ... .. . ... : ... .. . ... : ... .. . ... : F#4 01 . ... : ... .. . ...
ROW 07 : G-4 01 . ... : G-4 01 . ... : ... .. . ... : ... .. . ... : ... .. . ... : G-4 01 . ... : ... .. . ...
ROW 08 : A-4 01 . ... : A-4 01 . ... : ... .. . ... : ... .. . ... : ... .. . ... : A-4 01 . ... : ... .. . ...
ROW 09 : A-3 01 . ... : A-3 01 . ... : ... .. . ... : ... .. . ... : ... .. . ... : A-3 01 . ... : ... .. . ...
ROW 0A : B-3 01 . ... : B-3 01 . ... : ... .. . ... : ... .. . ... : ... .. . ... : B-3 01 . ... : ... .. . ...
ROW 0B : C#4 01 . ... : C#4 01 . ... : ... .. . ... : ... .. . ... : ... .. . ... : C#4 01 . ... : ... .. . ...
ROW 0C : D-4 01 . ... : D-4 01 . ... : ... .. . ... : ... .. . ... : ... .. . ... : D-4 01 . ... : ... .. . ...
ROW 0D : E-4 01 . ... : E-4 01 . ... : ... .. . ... : ... .. . ... : ... .. . ... : E-4 01 . ... : ... .. . ...
ROW 0E : F#4 01 . ... : F#4 01 . ... : ... .. . ... : ... .. . ... : ... .. . ... : F#4 01 . ... : ... .. . ...
ROW 0F : G-4 01 . ... : G-4 01 . ... : ... .. . ... : ... .. . ... : ... .. . ... : G-4 01 . ... : ... .. . ...
ROW 10 : F#4 01 . ... : F#4 01 . ... : ... .. . ... : ... .. . ... : ... .. . ... : F#4 01 . ... : ... .. . ...
ROW 11 : ... .. . ... : ... .. . ... : ... .. . ... : ... .. . ... : ... .. . ... : ... .. . ... : ... .. . ...
ROW 12 : D-4 01 . ... : D-4 01 . ... : ... .. . ... : ... .. . ... : ... .. . ... : D-4 01 . ... : ... .. . ...
ROW 13 : E-4 01 . ... : E-4 01 . ... : ... .. . ... : ... .. . ... : ... .. . ... : E-4 01 . ... : ... .. . ...
ROW 14 : F#4 01 . ... : F#4 01 . ... : ... .. . ... : ... .. . ... : ... .. . ... : F#4 01 . ... : ... .. . ...
ROW 15 : ... .. . ... : ... .. . ... : ... .. . ... : ... .. . ... : ... .. . ... : ... .. . ... : ... .. . ...
ROW 16 : F#3 01 . ... : F#3 01 . ... : ... .. . ... : ... .. . ... : ... .. . ... : F#3 01 . ... : ... .. . ...
ROW 17 : G-3 01 . ... : G-3 01 . ... : ... .. . ... : ... .. . ... : ... .. . ... : G-3 01 . ... : ... .. . ...
ROW 18 : A-3 01 . ... : A-3 01 . ... : ... .. . ... : ... .. . ... : ... .. . ... : A-3 01 . ... : ... .. . ...
ROW 19 : B-3 01 . ... : B-3 01 . ... : ... .. . ... : ... .. . ... : ... .. . ... : B-3 01 . ... : ... .. . ...
ROW 1A : A-3 01 . ... : A-3 01 . ... : ... .. . ... : ... .. . ... : ... .. . ... : A-3 01 . ... : ... .. . ...
ROW 1B : G-3 01 . ... : G-3 01 . ... : ... .. . ... : ... .. . ... : ... .. . ... : G-3 01 . ... : ... .. . ...
ROW 1C : A-3 01 . ... : A-3 01 . ... : ... .. . ... : ... .. . ... : ... .. . ... : A-3 01 . ... : ... .. . ...
ROW 1D : F#3 01 . ... : F#3 01 . ... : ... .. . ... : ... .. . ... : ... .. . ... : F#3 01 . ... : ... .. . ...
ROW 1E : G-3 01 . ... : G-3 01 . ... : ... .. . ... : ... .. . ... : ... .. . ... : G-3 01 . ... : ... .. . ...
ROW 1F : A-3 01 . ... : A-3 01 . ... : ... .. . ... : ... .. . ... : ... .. . ... : A-3 01 . ... : ... .. . ...
ROW 20 : G-3 01 . ... : G-3 01 . ... : ... .. . ... : ... .. . ... : ... .. . ... : G-3 01 . ... : ... .. . ...
ROW 21 : ... .. . ... : ... .. . ... : ... .. . ... : ... .. . ... : ... .. . ... : ... .. . ... : ... .. . ...
ROW 22 : B-3 01 . ... : B-3 01 . ... : ... .. . ... : ... .. . ... : ... .. . ... : B-3 01 . ... : ... .. . ...
ROW 23 : A-3 01 . ... : A-3 01 . ... : ... .. . ... : ... .. . ... : ... .. . ... : A-3 01 . ... : ... .. . ...
ROW 24 : G-3 01 . ... : G-3 01 . ... : ... .. . ... : ... .. . ... : ... .. . ... : G-3 01 . ... : ... .. . ...
ROW 25 : ... .. . ... : ... .. . ... : ... .. . ... : ... .. . ... : ... .. . ... : ... .. . ... : ... .. . ...
ROW 26 : F#3 01 . ... : F#3 01 . ... : ... .. . ... : ... .. . ... : ... .. . ... : F#3 01 . ... : ... .. . ...
ROW 27 : E-3 01 . ... : E-3 01 . ... : ... .. . ... : ... .. . ... : ... .. . ... : E-3 01 . ... : ... .. . ...
ROW 28 : F#3 01 . ... : F#3 01 . ... : ... .. . ... : ... .. . ... : ... .. . ... : F#3 01 . ... : ... .. . ...
ROW 29 : E-3 01 . ... : E-3 01 . ... : ... .. . ... : ... .. . ... : ... .. . ... : E-3 01 . ... : ... .. . ...
ROW 2A : D-3 01 . ... : D-3 01 . ... : ... .. . ... : ... .. . ... : ... .. . ... : D-3 01 . ... : ... .. . ...
ROW 2B : E-3 01 . ... : E-3 01 . ... : ... .. . ... : ... .. . ... : ... .. . ... : E-3 01 . ... : ... .. . ...
ROW 2C : F#3 01 . ... : F#3 01 . ... : ... .. . ... : ... .. . ... : ... .. . ... : F#3 01 . ... : ... .. . ...
ROW 2D : G-3 01 . ... : G-3 01 . ... : ... .. . ... : ... .. . ... : ... .. . ... : G-3 01 . ... : ... .. . ...
ROW 2E : A-3 01 . ... : A-3 01 . ... : ... .. . ... : ... .. . ... : ... .. . ... : A-3 01 . ... : ... .. . ...
ROW 2F : B-3 01 . ... : B-3 01 . ... : ... .. . ... : ... .. . ... : ... .. . ... : B-3 01 . ... : ... .. . ...
ROW 30 : G-3 01 . ... : G-3 01 . ... : ... .. . ... : ... .. . ... : ... .. . ... : G-3 01 . ... : ... .. . ...
ROW 31 : ... .. . ... : ... .. . ... : ... .. . ... : ... .. . ... : ... .. . ... : ... .. . ... : ... .. . ...
ROW 32 : B-3 01 . ... : B-3 01 . ... : ... .. . ... : ... .. . ... : ... .. . ... : B-3 01 . ... : ... .. . ...
ROW 33 : A-3 01 . ... : A-3 01 . ... : ... .. . ... : ... .. . ... : ... .. . ... : A-3 01 . ... : ... .. . ...
ROW 34 : B-3 01 . ... : B-3 01 . ... : ... .. . ... : ... .. . ... : ... .. . ... : B-3 01 . ... : ... .. . ...
ROW 35 : ... .. . ... : ... .. . ... : ... .. . ... : ... .. . ... : ... .. . ... : ... .. . ... : ... .. . ...
ROW 36 : C#4 01 . ... : C#4 01 . ... : ... .. . ... : ... .. . ... : ... .. . ... : C#4 01 . ... : ... .. . ...
ROW 37 : D-4 01 . ... : D-4 01 . ... : ... .. . ... : ... .. . ... : ... .. . ... : D-4 01 . ... : ... .. . ...
ROW 38 : A-3 01 . ... : A-3 01 . ... : ... .. . ... : ... .. . ... : ... .. . ... : A-3 01 . ... : ... .. . ...
ROW 39 : B-3 01 . ... : B-3 01 . ... : ... .. . ... : ... .. . ... : ... .. . ... : B-3 01 . ... : ... .. . ...
ROW 3A : C#4 01 . ... : C#4 01 . ... : ... .. . ... : ... .. . ... : ... .. . ... : C#4 01 . ... : ... .. . ...
ROW 3B : D-4 01 . ... : D-4 01 . ... : ... .. . ... : ... .. . ... : ... .. . ... : D-4 01 . ... : ... .. . ...
ROW 3C : E-4 01 . ... : E-4 01 . ... : ... .. . ... : ... .. . ... : ... .. . ... : E-4 01 . ... : ... .. . ...
ROW 3D : F#4 01 . ... : F#4 01 . ... : ... .. . ... : ... .. . ... : ... .. . ... : F#4 01 . ... : ... .. . ...
ROW 3E : G-4 01 . ... : G-4 01 . ... : ... .. . ... : ... .. . ... : ... .. . ... : G-4 01 . ... : ... .. . ...
ROW 3F : A-4 01 . ... : A-4 01 . ... : ... .. . ... : ... .. . ... : ... .. . ... : A-4 01 . ... : ... .. . ...

PATTERN 0A
ROW 00 : F#4 01 . ... : F#4 01 . ... : ... .. . ... : ... .. . ... : ... .. . ... : F#4 01 . ... : ... .. . ...
ROW 01 : ... .. . ... : ... .. . ... : ... .. . ... : ... .. . ... : ... .. . ... : ... .. . ... : ... .. . ...
ROW 02 : D-4 01 . ... : D-4 01 . ... : ... .. . ... : ... .. . ... : ... .. . ... : D-4 01 . ... : ... .. . ...
ROW 03 : E-4 01 . ... : E-4 01 . ... : ... .. . ... : ... .. . ... : ... .. . ... : E-4 01 . ... : ... .. . ...
ROW 04 : F#4 01 . ... : F#4 01 . ... : ... .. . ... : ... .. . ... : ... .. . ... : F#4 01 . ... : ... .. . ...
ROW 05 : ... .. . ... : ... .. . ... : ... .. . ... : ... .. . ... : ... .. . ... : ... .. . ... : ... .. . ...
ROW 06 : E-4 01 . ... : E-4 01 . ... : ... .. . ... : ... .. . ... : ... .. . ... : E-4 01 . ... : ... .. . ...
ROW 07 : D-4 01 . ... : D-4 01 . ... : ... .. . ... : ... .. . ... : ... .. . ... : D-4 01 . ... : ... .. . ...
ROW 08 : E-4 01 . ... : E-4 01 . ... : ... .. . ... : ... .. . ... : ... .. . ... : E-4 01 . ... : ... .. . ...
ROW 09 : C#4 01 . ... : C#4 01 . ... : ... .. . ... : ... .. . ... : ... .. . ... : C#4 01 . ... : ... .. . ...
ROW 0A : D-4 01 . ... : D-4 01 . ... : ... .. . ... : ... .. . ... : ... .. . ... : D-4 01 . ... : ... .. . ...
ROW 0B : E-4 01 . ... : E-4 01 . ... : ... .. . ... : ... .. . ... : ... .. . ... : E-4 01 . ... : ... .. . ...
ROW 0C : F#4 01 . ... : F#4 01 . ... : ... .. . ... : ... .. . ... : ... .. . ... : F#4 01 . ... : ... .. . ...
ROW 0D : E-4 01 . ... : E-4 01 . ... : ... .. . ... : ... .. . ... : ... .. . ... : E-4 01 . ... : ... .. . ...
ROW 0E : D-4 01 . ... : D-4 01 . ... : ... .. . ... : ... .. . ... : ... .. . ... : D-4 01 . ... : ... .. . ...
ROW 0F : C#4 01 . ... : C#4 01 . ... : ... .. . ... : ... .. . ... : ... .. . ... : C#4 01 . ... : ... .. . ...
ROW 10 : D-4 01 . ... : D-4 01 . ... : ... .. . ... : ... .. . ... : ... .. . ... : D-4 01 . ... : ... .. . ...
ROW 11 : ... .. . ... : ... .. . ... : ... .. . ... : ... .. . ... : ... .. . ... : ... .. . ... : ... .. . ...
ROW 12 : ... .. . ... : ... .. . ... : ... .. . ... : ... .. . ... : ... .. . ... : ... .. . ... : ... .. . ...
ROW 13 : B-3 01 . ... : B-3 01 . ... : ... .. . ... : ... .. . ... : ... .. . ... : B-3 01 . ... : ... .. . ...
ROW 14 : C#4 01 . ... : C#4 01 . ... : ... .. . ... : ... .. . ... : ... .. . ... : C#4 01 . ... : ... .. . ...
ROW 15 : D-4 01 . ... : D-4 01 . ... : ... .. . ... : ... .. . ... : ... .. . ... : D-4 01 . ... : ... .. . ...
ROW 16 : D-3 01 . ... : D-3 01 . ... : ... .. . ... : ... .. . ... : ... .. . ... : D-3 01 . ... : ... .. . ...
ROW 17 : E-3 01 . ... : E-3 01 . ... : ... .. . ... : ... .. . ... : ... .. . ... : E-3 01 . ... : ... .. . ...
ROW 18 : F#3 01 . ... : F#3 01 . ... : ... .. . ... : ... .. . ... : ... .. . ... : F#3 01 . ... : ... .. . ...
ROW 19 : G-3 01 . ... : G-3 01 . ... : ... .. . ... : ... .. . ... : ... .. . ... : G-3 01 . ... : ... .. . ...
ROW 1A : F#3 01 . ... : F#3 01 . ... : ... .. . ... : ... .. . ... : ... .. . ... : F#3 01 . ... : ... .. . ...
ROW 1B : E-3 01 . ... : E-3 01 . ... : ... .. . ... : ... .. . ... : ... .. . ... : E-3 01 . ... : ... .. . ...
ROW 1C : F#3 01 . ... : F#3 01 . ... : ... .. . ... : ... .. . ... : ... .. . ... : F#3 01 . ... : ... .. . ...
ROW 1D : D-4 01 . ... : D-4 01 . ... : ... .. . ... : ... .. . ... : ... .. . ... : D-4 01 . ... : ... .. . ...
ROW 1E : C#4 01 . ... : C#4 01 . ... : ... .. . ... : ... .. . ... : ... .. . ... : C#4 01 . ... : ... .. . ...
ROW 1F : D-4 01 . ... : D-4 01 . ... : ... .. . ... : ... .. . ... : ... .. . ... : D-4 01 . ... : ... .. . ...
ROW 20 : B-3 01 . ... : B-3 01 . ... : ... .. . ... : ... .. . ... : ... .. . ... : B-3 01 . ... : ... .. . ...
ROW 21 : ... .. . ... : ... .. . ... : ... .. . ... : ... .. . ... : ... .. . ... : ... .. . ... : ... .. . ...
ROW 22 : D-4 01 . ... : D-4 01 . ... : ... .. . ... : ... .. . ... : ... .. . ... : D-4 01 . ... : ... .. . ...
ROW 23 : C#4 01 . ... : C#4 01 . ... : ... .. . ... : ... .. . ... : ... .. . ... : C#4 01 . ... : ... .. . ...
ROW 24 : B-3 01 . ... : B-3 01 . ... : ... .. . ... : ... .. . ... : ... .. . ... : B-3 01 . ... : ... .. . ...
ROW 25 : ... .. . ... : ... .. . ... : ... .. . ... : ... .. . ... : ... .. . ... : ... .. . ... : ... .. . ...
ROW 26 : A-3 01 . ... : A-3 01 . ... : ... .. . ... : ... .. . ... : ... .. . ... : A-3 01 . ... : ... .. . ...
ROW 27 : G-3 01 . ... : G-3 01 . ... : ... .. . ... : ... .. . ... : ... .. . ... : G-3 01 . ... : ... .. . ...
ROW 28 : A-3 01 . ... : A-3 01 . ... : ... .. . ... : ... .. . ... : ... .. . ... : A-3 01 . ... : ... .. . ...
ROW 29 : G-3 01 . ... : G-3 01 . ... : ... .. . ... : ... .. . ... : ... .. . ... : G-3 01 . ... : ... .. . ...
ROW 2A : F#3 01 . ... : F#3 01 . ... : ... .. . ... : ... .. . ... : ... .. . ... : F#3 01 . ... : ... .. . ...
ROW 2B : G-3 01 . ... : G-3 01 . ... : ... .. . ... : ... .. . ... : ... .. . ... : G-3 01 . ... : ... .. . ...
ROW 2C : A-3 01 . ... : A-3 01 . ... : ... .. . ... : ... .. . ... : ... .. . ... : A-3 01 . ... : ... .. . ...
ROW 2D : B-3 01 . ... : B-3 01 . ... : ... .. . ... : ... .. . ... : ... .. . ... : B-3 01 . ... : ... .. . ...
ROW 2E : C#4 01 . ... : C#4 01 . ... : ... .. . ... : ... .. . ... : ... .. . ... : C#4 01 . ... : ... .. . ...
ROW 2F : D-4 01 . ... : D-4 01 . ... : ... .. . ... : ... .. . ... : ... .. . ... : D-4 01 . ... : ... .. . ...
ROW 30 : B-3 01 . ... : B-3 01 . ... : ... .. . ... : ... .. . ... : ... .. . ... : B-3 01 . ... : ... .. . ...
ROW 31 : ... .. . ... : ... .. . ... : ... .. . ... : ... .. . ... : ... .. . ... : ... .. . ... : ... .. . ...
ROW 32 : D-4 01 . ... : D-4 01 . ... : ... .. . ... : ... .. . ... : ... .. . ... : D-4 01 . ... : ... .. . ...
ROW 33 : C#4 01 . ... : C#4 01 . ... : ... .. . ... : ... .. . ... : ... .. . ... : C#4 01 . ... : ... .. . ...
ROW 34 : D-4 01 . ... : D-4 01 . ... : ... .. . ... : ... .. . ... : ... .. . ... : D-4 01 . ... : ... .. . ...
ROW 35 : ... .. . ... : ... .. . ... : ... .. . ... : ... .. . ... : ... .. . ... : ... .. . ... : ... .. . ...
ROW 36 : C#4 01 . ... : C#4 01 . ... : ... .. . ... : ... .. . ... : ... .. . ... : C#4 01 . ... : ... .. . ...
ROW 37 : B-3 01 . ... : B-3 01 . ... : ... .. . ... : ... .. . ... : ... .. . ... : B-3 01 . ... : ... .. . ...
ROW 38 : C#4 01 . ... : C#4 01 . ... : ... .. . ... : ... .. . ... : ... .. . ... : C#4 01 . ... : ... .. . ...
ROW 39 : D-4 01 . ... : D-4 01 . ... : ... .. . ... : ... .. . ... : ... .. . ... : D-4 01 . ... : ... .. . ...
ROW 3A : E-4 01 . ... : E-4 01 . ... : ... .. . ... : ... .. . ... : ... .. . ... : E-4 01 . ... : ... .. . ...
ROW 3B : D-4 01 . ... : D-4 01 . ... : ... .. . ... : ... .. . ... : ... .. . ... : D-4 01 . ... : ... .. . ...
ROW 3C : C#4 01 . ... : C#4 01 . ... : ... .. . ... : ... .. . ... : ... .. . ... : C#4 01 . ... : ... .. . ...
ROW 3D : D-4 01 . ... : D-4 01 . ... : ... .. . ... : ... .. . ... : ... .. . ... : D-4 01 . ... : ... .. . ...
ROW 3E : B-3 01 . ... : B-3 01 . ... : ... .. . ... : ... .. . ... : ... .. . ... : B-3 01 . ... : ... .. . ...
ROW 3F : C#4 01 . ... : C#4 01 . ... : ... .. . ... : ... .. . ... : ... .. . ... : C#4 01 . ... : ... .. . ...

PATTERN 0B
ROW 00 : D-4 01 . ... : D-4 01 . ... : ... .. . ... : ... .. . ... : ... .. . ... : D-4 01 . ... : ... .. . ...
ROW 01 : ... .. . ... : ... .. . ... : ... .. . ... : ... .. . ... : ... .. . ... : ... .. . ... : ... .. . ...
ROW 02 : --- .. . ... : --- .. . ... : ... .. . ... : ... .. . ... : ... .. . ... : --- .. . ... : ... .. . ...
ROW 03 : ... .. . ... : ... .. . ... : ... .. . ... : ... .. . ... : ... .. . ... : ... .. . ... : ... .. . ...
ROW 04 : C#4 01 . ... : C#4 01 . ... : ... .. . ... : ... .. . ... : ... .. . ... : C#4 01 . ... : ... .. . ...
ROW 05 : ... .. . ... : ... .. . ... : ... .. . ... : ... .. . ... : ... .. . ... : ... .. . ... : ... .. . ...
ROW 06 : --- .. . ... : --- .. . ... : ... .. . ... : ... .. . ... : ... .. . ... : --- .. . ... : ... .. . ...
ROW 07 : ... .. . ... : ... .. . ... : ... .. . ... : ... .. . ... : ... .. . ... : ... .. . ... : ... .. . ...
ROW 08 : B-3 01 . ... : B-3 01 . ... : ... .. . ... : ... .. . ... : ... .. . ... : B-3 01 . ... : ... .. . ...
ROW 09 : ... .. . ... : ... .. . ... : ... .. . ... : ... .. . ... : ... .. . ... : ... .. . ... : ... .. . ...
ROW 0A : --- .. . ... : --- .. . ... : ... .. . ... : ... .. . ... : ... .. . ... : --- .. . ... : ... .. . ...
ROW 0B : ... .. . ... : ... .. . ... : ... .. . ... : ... .. . ... : ... .. . ... : ... .. . ... : ... .. . ...
ROW 0C : D-4 01 . ... : D-4 01 . ... : ... .. . ... : ... .. . ... : ... .. . ... : D-4 01 . ... : ... .. . ...
ROW 0D : ... .. . ... : ... .. . ... : ... .. . ... : ... .. . ... : ... .. . ... : ... .. . ... : ... .. . ...
ROW 0E : --- .. . ... : --- .. . ... : ... .. . ... : ... .. . ... : ... .. . ... : --- .. . ... : ... .. . ...
ROW 0F : ... .. . ... : ... .. . ... : ... .. . ... : ... .. . ... : ... .. . ... : ... .. . ... : ... .. . ...
ROW 10 : D-3 01 . ... : D-3 01 . ... : ... .. . ... : ... .. . ... : ... .. . ... : D-3 01 . ... : ... .. . ...
ROW 11 : ... .. . ... : ... .. . ... : ... .. . ... : ... .. . ... : ... .. . ... : ... .. . ... : ... .. . ...
ROW 12 : --- .. . ... : --- .. . ... : ... .. . ... : ... .. . ... : ... .. . ... : --- .. . ... : ... .. . ...
ROW 13 : ... .. . ... : ... .. . ... : ... .. . ... : ... .. . ... : ... .. . ... : ... .. . ... : ... .. . ...
ROW 14 : D-3 01 . ... : D-3 01 . ... : ... .. . ... : ... .. . ... : ... .. . ... : D-3 01 . ... : ... .. . ...
ROW 15 : ... .. . ... : ... .. . ... : ... .. . ... : ... .. . ... : ... .. . ... : ... .. . ... : ... .. . ...
ROW 16 : --- .. . ... : --- .. . ... : ... .. . ... : ... .. . ... : ... .. . ... : --- .. . ... : ... .. . ...
ROW 17 : ... .. . ... : ... .. . ... : ... .. . ... : ... .. . ... : ... .. . ... : ... .. . ... : ... .. . ...
ROW 18 : D-3 01 . ... : D-3 01 . ... : ... .. . ... : ... .. . ... : ... .. . ... : D-3 01 . ... : ... .. . ...
ROW 19 : ... .. . ... : ... .. . ... : ... .. . ... : ... .. . ... : ... .. . ... : ... .. . ... : ... .. . ...
ROW 1A : --- .. . ... : --- .. . ... : ... .. . ... : ... .. . ... : ... .. . ... : --- .. . ... : ... .. . ...
ROW 1B : ... .. . ... : ... .. . ... : ... .. . ... : ... .. . ... : ... .. . ... : ... .. . ... : ... .. . ...
ROW 1C : E-3 01 . ... : E-3 01 . ... : ... .. . ... : ... .. . ... : ... .. . ... : E-3 01 . ... : ... .. . ...
ROW 1D : ... .. . ... : ... .. . ... : ... .. . ... : ... .. . ... : ... .. . ... : ... .. . ... : ... .. . ...
ROW 1E : --- .. . ... : --- .. . ... : ... .. . ... : ... .. . ... : ... .. . ... : --- .. . ... : ... .. . ...
ROW 1F : ... .. . ... : ... .. . ... : ... .. . ... : ... .. . ... : ... .. . ... : ... .. . ... : ... .. . ...
ROW 20 : ... .. . ... : ... .. . ... : ... .. . ... : ... .. . ... : ... .. . ... : ... .. . ... : ... .. . ...
ROW 21 : ... .. . ... : ... .. . ... : ... .. . ... : ... .. . ... : ... .. . ... : ... .. . ... : ... .. . ...
ROW 22 : A-3 01 . ... : A-3 01 . ... : ... .. . ... : ... .. . ... : ... .. . ... : A-3 01 . ... : ... .. . ...
ROW 23 : ... .. . ... : ... .. . ... : ... .. . ... : ... .. . ... : ... .. . ... : ... .. . ... : ... .. . ...
ROW 24 : --- .. . ... : --- .. . ... : ... .. . ... : ... .. . ... : ... .. . ... : --- .. . ... : ... .. . ...
ROW 25 : ... .. . ... : ... .. . ... : ... .. . ... : ... .. . ... : ... .. . ... : ... .. . ... : ... .. . ...
ROW 26 : A-3 01 . ... : A-3 01 . ... : ... .. . ... : ... .. . ... : ... .. . ... : A-3 01 . ... : ... .. . ...
ROW 27 : ... .. . ... : ... .. . ... : ... .. . ... : ... .. . ... : ... .. . ... : ... .. . ... : ... .. . ...
ROW 28 : --- .. . ... : --- .. . ... : ... .. . ... : ... .. . ... : ... .. . ... : --- .. . ... : ... .. . ...
ROW 29 : ... .. . ... : ... .. . ... : ... .. . ... : ... .. . ... : ... .. . ... : ... .. . ... : ... .. . ...
ROW 2A : F#3 01 . ... : F#3 01 . ... : ... .. . ... : ... .. . ... : ... .. . ... : F#3 01 . ... : ... .. . ...
ROW 2B : ... .. . ... : ... .. . ... : ... .. . ... : ... .. . ... : ... .. . ... : ... .. . ... : ... .. . ...
ROW 2C : --- .. . ... : --- .. . ... : ... .. . ... : ... .. . ... : ... .. . ... : --- .. . ... : ... .. . ...
ROW 2D : ... .. . ... : ... .. . ... : ... .. . ... : ... .. . ... : ... .. . ... : ... .. . ... : ... .. . ...
ROW 2E : A-3 01 . ... : A-3 01 . ... : ... .. . ... : ... .. . ... : ... .. . ... : A-3 01 . ... : ... .. . ...
ROW 2F : ... .. . ... : ... .. . ... : ... .. . ... : ... .. . ... : ... .. . ... : ... .. . ... : ... .. . ...
ROW 30 : --- .. . ... : --- .. . ... : ... .. . ... : ... .. . ... : ... .. . ... : --- .. . ... : ... .. . ...
ROW 31 : ... .. . ... : ... .. . ... : ... .. . ... : ... .. . ... : ... .. . ... : ... .. . ... : ... .. . ...
ROW 32 : G-3 01 . ... : G-3 01 . ... : ... .. . ... : ... .. . ... : ... .. . ... : G-3 01 . ... : ... .. . ...
ROW 33 : ... .. . ... : ... .. . ... : ... .. . ... : ... .. . ... : ... .. . ... : ... .. . ... : ... .. . ...
ROW 34 : --- .. . ... : --- .. . ... : ... .. . ... : ... .. . ... : ... .. . ... : --- .. . ... : ... .. . ...
ROW 35 : ... .. . ... : ... .. . ... : ... .. . ... : ... .. . ... : ... .. . ... : ... .. . ... : ... .. . ...
ROW 36 : F#3 01 . ... : F#3 01 . ... : ... .. . ... : ... .. . ... : ... .. . ... : F#3 01 . ... : ... .. . ...
ROW 37 : ... .. . ... : ... .. . ... : ... .. . ... : ... .. . ... : ... .. . ... : ... .. . ... : ... .. . ...
ROW 38 : --- .. . ... : --- .. . ... : ... .. . ... : ... .. . ... : ... .. . ... : --- .. . ... : ... .. . ...
ROW 39 : ... .. . ... : ... .. . ... : ... .. . ... : ... .. . ... : ... .. . ... : ... .. . ... : ... .. . ...
ROW 3A : G-3 01 . ... : G-3 01 . ... : ... .. . ... : ... .. . ... : ... .. . ... : G-3 01 . ... : ... .. . ...
ROW 3B : ... .. . ... : ... .. . ... : ... .. . ... : ... .. . ... : ... .. . ... : ... .. . ... : ... .. . ...
ROW 3C : --- .. . ... : --- .. . ... : ... .. . ... : ... .. . ... : ... .. . ... : --- .. . ... : ... .. . ...
ROW 3D : ... .. . ... : ... .. . ... : ... .. . ... : ... .. . ... : ... .. . ... : ... .. . ... : ... .. . ...
ROW 3E : E-4 01 . ... : E-4 01 . ... : ... .. . ... : ... .. . ... : ... .. . ... : E-4 01 . ... : ... .. . ...
ROW 3F : ... .. . ... : ... .. . ... : ... .. . ... : ... .. . ... : ... .. . ... : ... .. . ... : ... .. . ...

PATTERN 0C
ROW 00 : F#4 01 . ... : F#4 01 . ... : ... .. . ... : ... .. . ... : ... .. . ... : F#4 01 . ... : ... .. . ...
ROW 01 : ... .. . ... : ... .. . ... : ... .. . ... : ... .. . ... : ... .. . ... : ... .. . ... : ... .. . ...
ROW 02 : F#3 01 . ... : F#3 01 . ... : ... .. . ... : ... .. . ... : ... .. . ... : F#3 01 . ... : ... .. . ...
ROW 03 : ... .. . ... : ... .. . ... : ... .. . ... : ... .. . ... : ... .. . ... : ... .. . ... : ... .. . ...
ROW 04 : G-3 01 . ... : G-3 01 . ... : ... .. . ... : ... .. . ... : ... .. . ... : G-3 01 . ... : ... .. . ...
ROW 05 : ... .. . ... : ... .. . ... : ... .. . ... : ... .. . ... : ... .. . ... : ... .. . ... : ... .. . ...
ROW 06 : F#3 01 . ... : F#3 01 . ... : ... .. . ... : ... .. . ... : ... .. . ... : F#3 01 . ... : ... .. . ...
ROW 07 : ... .. . ... : ... .. . ... : ... .. . ... : ... .. . ... : ... .. . ... : ... .. . ... : ... .. . ...
ROW 08 : E-3 01 . ... : E-3 01 . ... : ... .. . ... : ... .. . ... : ... .. . ... : E-3 01 . ... : ... .. . ...
ROW 09 : ... .. . ... : ... .. . ... : ... .. . ... : ... .. . ... : ... .. . ... : ... .. . ... : ... .. . ...
ROW 0A : E-4 01 . ... : E-4 01 . ... : ... .. . ... : ... .. . ... : ... .. . ... : E-4 01 . ... : ... .. . ...
ROW 0B : ... .. . ... : ... .. . ... : ... .. . ... : ... .. . ... : ... .. . ... : ... .. . ... : ... .. . ...
ROW 0C : F#4 01 . ... : F#4 01 . ... : ... .. . ... : ... .. . ... : ... .. . ... : F#4 01 . ... : ... .. . ...
ROW 0D : ... .. . ... : ... .. . ... : ... .. . ... : ... .. . ... : ... .. . ... : ... .. . ... : ... .. . ...
ROW 0E : E-4 01 . ... : E-4 01 . ... : ... .. . ... : ... .. . ... : ... .. . ... : E-4 01 . ... : ... .. . ...
ROW 0F : ... .. . ... : ... .. . ... : ... .. . ... : ... .. . ... : ... .. . ... : ... .. . ... : ... .. . ...
ROW 10 : D-4 01 . ... : D-4 01 . ... : ... .. . ... : ... .. . ... : ... .. . ... : D-4 01 . ... : ... .. . ...
ROW 11 : ... .. . ... : ... .. . ... : ... .. . ... : ... .. . ... : ... .. . ... : ... .. . ... : ... .. . ...
ROW 12 : F#3 01 . ... : F#3 01 . ... : ... .. . ... : ... .. . ... : ... .. . ... : F#3 01 . ... : ... .. . ...
ROW 13 : ... .. . ... : ... .. . ... : ... .. . ... : ... .. . ... : ... .. . ... : ... .. . ... : ... .. . ...
ROW 14 : D-3 01 . ... : D-3 01 . ... : ... .. . ... : ... .. . ... : ... .. . ... : D-3 01 . ... : ... .. . ...
ROW 15 : ... .. . ... : ... .. . ... : ... .. . ... : ... .. . ... : ... .. . ... : ... .. . ... : ... .. . ...
ROW 16 : B-3 01 . ... : B-3 01 . ... : ... .. . ... : ... .. . ... : ... .. . ... : B-3 01 . ... : ... .. . ...
ROW 17 : ... .. . ... : ... .. . ... : ... .. . ... : ... .. . ... : ... .. . ... : ... .. . ... : ... .. . ...
ROW 18 : A-3 01 . ... : A-3 01 . ... : ... .. . ... : ... .. . ... : ... .. . ... : A-3 01 . ... : ... .. . ...
ROW 19 : ... .. . ... : ... .. . ... : ... .. . ... : ... .. . ... : ... .. . ... : ... .. . ... : ... .. . ...
ROW 1A : A-2 01 . ... : A-2 01 . ... : ... .. . ... : ... .. . ... : ... .. . ... : A-2 01 . ... : ... .. . ...
ROW 1B : ... .. . ... : ... .. . ... : ... .. . ... : ... .. . ... : ... .. . ... : ... .. . ... : ... .. . ...
ROW 1C : G-2 01 . ... : G-2 01 . ... : ... .. . ... : ... .. . ... : ... .. . ... : G-2 01 . ... : ... .. . ...
ROW 1D : ... .. . ... : ... .. . ... : ... .. . ... : ... .. . ... : ... .. . ... : ... .. . ... : ... .. . ...
ROW 1E : A-2 01 . ... : A-2 01 . ... : ... .. . ... : ... .. . ... : ... .. . ... : A-2 01 . ... : ... .. . ...
ROW 1F : ... .. . ... : ... .. . ... : ... .. . ... : ... .. . ... : ... .. . ... : ... .. . ... : ... .. . ...
ROW 20 : F#2 01 . ... : F#2 01 . ... : ... .. . ... : ... .. . ... : ... .. . ... : F#2 01 . ... : ... .. . ...
ROW 21 : ... .. . ... : ... .. . ... : ... .. . ... : ... .. . ... : ... .. . ... : ... .. . ... : ... .. . ...
ROW 22 : B-3 01 . ... : B-3 01 . ... : ... .. . ... : ... .. . ... : ... .. . ... : B-3 01 . ... : ... .. . ...
ROW 23 : ... .. . ... : ... .. . ... : ... .. . ... : ... .. . ... : ... .. . ... : ... .. . ... : ... .. . ...
ROW 24 : C#4 01 . ... : C#4 01 . ... : ... .. . ... : ... .. . ... : ... .. . ... : C#4 01 . ... : ... .. . ...
ROW 25 : ... .. . ... : ... .. . ... : ... .. . ... : ... .. . ... : ... .. . ... : ... .. . ... : ... .. . ...
ROW 26 : B-3 01 . ... : B-3 01 . ... : ... .. . ... : ... .. . ... : ... .. . ... : B-3 01 . ... : ... .. . ...
ROW 27 : ... .. . ... : ... .. . ... : ... .. . ... : ... .. . ... : ... .. . ... : ... .. . ... : ... .. . ...
ROW 28 : A-3 01 . ... : A-3 01 . ... : ... .. . ... : ... .. . ... : ... .. . ... : A-3 01 . ... : ... .. . ...
ROW 29 : ... .. . ... : ... .. . ... : ... .. . ... : ... .. . ... : ... .. . ... : ... .. . ... : ... .. . ...
ROW 2A : A-2 01 . ... : A-2 01 . ... : ... .. . ... : ... .. . ... : ... .. . ... : A-2 01 . ... : ... .. . ...
ROW 2B : ... .. . ... : ... .. . ... : ... .. . ... : ... .. . ... : ... .. . ... : ... .. . ... : ... .. . ...
ROW 2C : G-2 01 . ... : G-2 01 . ... : ... .. . ... : ... .. . ... : ... .. . ... : G-2 01 . ... : ... .. . ...
ROW 2D : ... .. . ... : ... .. . ... : ... .. . ... : ... .. . ... : ... .. . ... : ... .. . ... : ... .. . ...
ROW 2E : A-2 01 . ... : A-2 01 . ... : ... .. . ... : ... .. . ... : ... .. . ... : A-2 01 . ... : ... .. . ...
ROW 2F : ... .. . ... : ... .. . ... : ... .. . ... : ... .. . ... : ... .. . ... : ... .. . ... : ... .. . ...
ROW 30 : B-2 01 . ... : B-2 01 . ... : ... .. . ... : ... .. . ... : ... .. . ... : B-2 01 . ... : ... .. . ...
ROW 31 : ... .. . ... : ... .. . ... : ... .. . ... : ... .. . ... : ... .. . ... : ... .. . ... : ... .. . ...
ROW 32 : B-3 01 . ... : B-3 01 . ... : ... .. . ... : ... .. . ... : ... .. . ... : B-3 01 . ... : ... .. . ...
ROW 33 : ... .. . ... : ... .. . ... : ... .. . ... : ... .. . ... : ... .. . ... : ... .. . ... : ... .. . ...
ROW 34 : A-3 01 . ... : A-3 01 . ... : ... .. . ... : ... .. . ... : ... .. . ... : A-3 01 . ... : ... .. . ...
ROW 35 : ... .. . ... : ... .. . ... : ... .. . ... : ... .. . ... : ... .. . ... : ... .. . ... : ... .. . ...
ROW 36 : B-3 01 . ... : B-3 01 . ... : ... .. . ... : ... .. . ... : ... .. . ... : B-3 01 . ... : ... .. . ...
ROW 37 : ... .. . ... : ... .. . ... : ... .. . ... : ... .. . ... : ... .. . ... : ... .. . ... : ... .. . ...
ROW 38 : C#4 01 . ... : C#4 01 . ... : ... .. . ... : ... .. . ... : ... .. . ... : C#4 01 . ... : ... .. . ...
ROW 39 : ... .. . ... : ... .. . ... : ... .. . ... : ... .. . ... : ... .. . ... : ... .. . ... : ... .. . ...
ROW 3A : C#3 01 . ... : C#3 01 . ... : ... .. . ... : ... .. . ... : ... .. . ... : C#3 01 . ... : ... .. . ...
ROW 3B : ... .. . ... : ... .. . ... : ... .. . ... : ... .. . ... : ... .. . ... : ... .. . ... : ... .. . ...
ROW 3C : B-2 01 . ... : B-2 01 . ... : ... .. . ... : ... .. . ... : ... .. . ... : B-2 01 . ... : ... .. . ...
ROW 3D : ... .. . ... : ... .. . ... : ... .. . ... : ... .. . ... : ... .. . ... : ... .. . ... : ... .. . ...
ROW 3E : C#3 01 . ... : C#3 01 . ... : ... .. . ... : ... .. . ... : ... .. . ... : C#3 01 . ... : ... .. . ...
ROW 3F : ... .. . ... : ... .. . ... : ... .. . ... : ... .. . ... : ... .. . ... : ... .. . ... : ... .. . ...

PATTERN 0D
ROW 00 : F#3 01 . ... : F#3 01 . ... : ... .. . ... : ... .. . ... : ... .. . ... : F#3 01 . ... : ... .. . ...
ROW 01 : ... .. . ... : ... .. . ... : ... .. . ... : ... .. . ... : ... .. . ... : ... .. . ... : ... .. . ...
ROW 02 : A-3 01 F ... : A-3 01 F ... : ... .. . ... : ... .. . ... : ... .. . ... : A-3 01 F ... : ... .. . ...
ROW 03 : ... .. 6 ... : ... .. 6 ... : ... .. . ... : ... .. . ... : ... .. . ... : ... .. 6 ... : ... .. . ...
ROW 04 : A-3 01 F ... : A-3 01 F ... : ... .. . ... : ... .. . ... : ... .. . ... : A-3 01 F ... : ... .. . ...
ROW 05 : ... .. 6 ... : ... .. 6 ... : ... .. . ... : ... .. . ... : ... .. . ... : ... .. 6 ... : ... .. . ...
ROW 06 : A-3 01 F ... : A-3 01 F ... : ... .. . ... : ... .. . ... : ... .. . ... : A-3 01 F ... : ... .. . ...
ROW 07 : ... .. 6 ... : ... .. 6 ... : ... .. . ... : ... .. . ... : ... .. . ... : ... .. 6 ... : ... .. . ...
ROW 08 : A-3 01 F ... : A-3 01 F ... : ... .. . ... : ... .. . ... : ... .. . ... : A-3 01 F ... : ... .. . ...
ROW 09 : ... .. 6 ... : ... .. 6 ... : ... .. . ... : ... .. . ... : ... .. . ... : ... .. 6 ... : ... .. . ...
ROW 0A : A-3 01 F ... : A-3 01 F ... : ... .. . ... : ... .. . ... : ... .. . ... : A-3 01 F ... : ... .. . ...
ROW 0B : ... .. 6 ... : ... .. 6 ... : ... .. . ... : ... .. . ... : ... .. . ... : ... .. 6 ... : ... .. . ...
ROW 0C : A-3 01 F ... : A-3 01 F ... : ... .. . ... : ... .. . ... : ... .. . ... : A-3 01 F ... : ... .. . ...
ROW 0D : ... .. 6 ... : ... .. 6 ... : ... .. . ... : ... .. . ... : ... .. . ... : ... .. 6 ... : ... .. . ...
ROW 0E : A-3 01 F ... : A-3 01 F ... : ... .. . ... : ... .. . ... : ... .. . ... : A-3 01 F ... : ... .. . ...
ROW 0F : ... .. 6 ... : ... .. 6 ... : ... .. . ... : ... .. . ... : ... .. . ... : ... .. 6 ... : ... .. . ...
ROW 10 : F#3 01 F ... : F#3 01 F ... : ... .. . ... : ... .. . ... : ... .. . ... : F#3 01 F ... : ... .. . ...
ROW 11 : ... .. 6 ... : ... .. 6 ... : ... .. . ... : ... .. . ... : ... .. . ... : ... .. 6 ... : ... .. . ...
ROW 12 : F#3 01 F ... : F#3 01 F ... : ... .. . ... : ... .. . ... : ... .. . ... : F#3 01 F ... : ... .. . ...
ROW 13 : ... .. 6 ... : ... .. 6 ... : ... .. . ... : ... .. . ... : ... .. . ... : ... .. 6 ... : ... .. . ...
ROW 14 : F#3 01 F ... : F#3 01 F ... : ... .. . ... : ... .. . ... : ... .. . ... : F#3 01 F ... : ... .. . ...
ROW 15 : ... .. 6 ... : ... .. 6 ... : ... .. . ... : ... .. . ... : ... .. . ... : ... .. 6 ... : ... .. . ...
ROW 16 : F#3 01 F ... : F#3 01 F ... : ... .. . ... : ... .. . ... : ... .. . ... : F#3 01 F ... : ... .. . ...
ROW 17 : ... .. 6 ... : ... .. 6 ... : ... .. . ... : ... .. . ... : ... .. . ... : ... .. 6 ... : ... .. . ...
ROW 18 : F#3 01 F ... : F#3 01 F ... : ... .. . ... : ... .. . ... : ... .. . ... : F#3 01 F ... : ... .. . ...
ROW 19 : ... .. 6 ... : ... .. 6 ... : ... .. . ... : ... .. . ... : ... .. . ... : ... .. 6 ... : ... .. . ...
ROW 1A : F#3 01 F ... : F#3 01 F ... : ... .. . ... : ... .. . ... : ... .. . ... : F#3 01 F ... : ... .. . ...
ROW 1B : ... .. 6 ... : ... .. 6 ... : ... .. . ... : ... .. . ... : ... .. . ... : ... .. 6 ... : ... .. . ...
ROW 1C : A-3 01 F ... : A-3 01 F ... : ... .. . ... : ... .. . ... : ... .. . ... : A-3 01 F ... : ... .. . ...
ROW 1D : ... .. 6 ... : ... .. 6 ... : ... .. . ... : ... .. . ... : ... .. . ... : ... .. 6 ... : ... .. . ...
ROW 1E : A-3 01 F ... : A-3 01 F ... : ... .. . ... : ... .. . ... : ... .. . ... : A-3 01 F ... : ... .. . ...
ROW 1F : ... .. 6 ... : ... .. 6 ... : ... .. . ... : ... .. . ... : ... .. . ... : ... .. 6 ... : ... .. . ...
ROW 20 : G-3 01 F ... : G-3 01 F ... : ... .. . ... : ... .. . ... : ... .. . ... : G-3 01 F ... : ... .. . ...
ROW 21 : ... .. 6 ... : ... .. 6 ... : ... .. . ... : ... .. . ... : ... .. . ... : ... .. 6 ... : ... .. . ...
ROW 22 : G-3 01 F ... : G-3 01 F ... : ... .. . ... : ... .. . ... : ... .. . ... : G-3 01 F ... : ... .. . ...
ROW 23 : ... .. 6 ... : ... .. 6 ... : ... .. . ... : ... .. . ... : ... .. . ... : ... .. 6 ... : ... .. . ...
ROW 24 : G-3 01 F ... : G-3 01 F ... : ... .. . ... : ... .. . ... : ... .. . ... : G-3 01 F ... : ... .. . ...
ROW 25 : ... .. 6 ... : ... .. 6 ... : ... .. . ... : ... .. . ... : ... .. . ... : ... .. 6 ... : ... .. . ...
ROW 26 : D-4 01 F ... : D-4 01 F ... : ... .. . ... : ... .. . ... : ... .. . ... : D-4 01 F ... : ... .. . ...
ROW 27 : ... .. 6 ... : ... .. 6 ... : ... .. . ... : ... .. . ... : ... .. . ... : ... .. 6 ... : ... .. . ...
ROW 28 : D-4 01 F ... : D-4 01 F ... : ... .. . ... : ... .. . ... : ... .. . ... : D-4 01 F ... : ... .. . ...
ROW 29 : ... .. 6 ... : ... .. 6 ... : ... .. . ... : ... .. . ... : ... .. . ... : ... .. 6 ... : ... .. . ...
ROW 2A : D-4 01 F ... : D-4 01 F ... : ... .. . ... : ... .. . ... : ... .. . ... : D-4 01 F ... : ... .. . ...
ROW 2B : ... .. 6 ... : ... .. 6 ... : ... .. . ... : ... .. . ... : ... .. . ... : ... .. 6 ... : ... .. . ...
ROW 2C : D-4 01 F ... : D-4 01 F ... : ... .. . ... : ... .. . ... : ... .. . ... : D-4 01 F ... : ... .. . ...
ROW 2D : ... .. 6 ... : ... .. 6 ... : ... .. . ... : ... .. . ... : ... .. . ... : ... .. 6 ... : ... .. . ...
ROW 2E : D-4 01 F ... : D-4 01 F ... : ... .. . ... : ... .. . ... : ... .. . ... : D-4 01 F ... : ... .. . ...
ROW 2F : ... .. 6 ... : ... .. 6 ... : ... .. . ... : ... .. . ... : ... .. . ... : ... .. 6 ... : ... .. . ...
ROW 30 : D-4 01 F ... : D-4 01 F ... : ... .. . ... : ... .. . ... : ... .. . ... : D-4 01 F ... : ... .. . ...
ROW 31 : ... .. 6 ... : ... .. 6 ... : ... .. . ... : ... .. . ... : ... .. . ... : ... .. 6 ... : ... .. . ...
ROW 32 : D-4 01 F ... : D-4 01 F ... : ... .. . ... : ... .. . ... : ... .. . ... : D-4 01 F ... : ... .. . ...
ROW 33 : ... .. 6 ... : ... .. 6 ... : ... .. . ... : ... .. . ... : ... .. . ... : ... .. 6 ... : ... .. . ...
ROW 34 : B-3 01 F ... : B-3 01 F ... : ... .. . ... : ... .. . ... : ... .. . ... : B-3 01 F ... : ... .. . ...
ROW 35 : ... .. 6 ... : ... .. 6 ... : ... .. . ... : ... .. . ... : ... .. . ... : ... .. 6 ... : ... .. . ...
ROW 36 : B-3 01 F ... : B-3 01 F ... : ... .. . ... : ... .. . ... : ... .. . ... : B-3 01 F ... : ... .. . ...
ROW 37 : ... .. 6 ... : ... .. 6 ... : ... .. . ... : ... .. . ... : ... .. . ... : ... .. 6 ... : ... .. . ...
ROW 38 : A-3 01 F ... : A-3 01 F ... : ... .. . ... : ... .. . ... : ... .. . ... : A-3 01 F ... : ... .. . ...
ROW 39 : ... .. 6 ... : ... .. 6 ... : ... .. . ... : ... .. . ... : ... .. . ... : ... .. 6 ... : ... .. . ...
ROW 3A : A-3 01 F ... : A-3 01 F ... : ... .. . ... : ... .. . ... : ... .. . ... : A-3 01 F ... : ... .. . ...
ROW 3B : ... .. 6 ... : ... .. 6 ... : ... .. . ... : ... .. . ... : ... .. . ... : ... .. 6 ... : ... .. . ...
ROW 3C : E-4 01 F ... : E-4 01 F ... : ... .. . ... : ... .. . ... : ... .. . ... : E-4 01 F ... : ... .. . ...
ROW 3D : ... .. 6 ... : ... .. 6 ... : ... .. . ... : ... .. . ... : ... .. . ... : ... .. 6 ... : ... .. . ...
ROW 3E : C#4 01 F ... : C#4 01 F ... : ... .. . ... : ... .. . ... : ... .. . ... : C#4 01 F ... : ... .. . ...
ROW 3F : ... .. 6 ... : ... .. 6 ... : ... .. . ... : ... .. . ... : ... .. . ... : ... .. 6 ... : ... .. . ...

PATTERN 0E
ROW 00 : A-3 01 F ... : A-3 01 F ... : ... .. . ... : ... .. . ... : ... .. . ... : A-3 01 F ... : ... .. . ...
ROW 01 : ... .. 6 ... : ... .. 6 ... : ... .. . ... : ... .. . ... : ... .. . ... : ... .. 6 ... : ... .. . ...
ROW 02 : F#4 01 F ... : F#4 01 F ... : ... .. . ... : ... .. . ... : ... .. . ... : F#4 01 F ... : ... .. . ...
ROW 03 : ... .. 6 ... : ... .. 6 ... : ... .. . ... : ... .. . ... : ... .. . ... : ... .. 6 ... : ... .. . ...
ROW 04 : F#4 01 F ... : F#4 01 F ... : ... .. . ... : ... .. . ... : ... .. . ... : F#4 01 F ... : ... .. . ...
ROW 05 : ... .. 6 ... : ... .. 6 ... : ... .. . ... : ... .. . ... : ... .. . ... : ... .. 6 ... : ... .. . ...
ROW 06 : F#4 01 F ... : F#4 01 F ... : ... .. . ... : ... .. . ... : ... .. . ... : F#4 01 F ... : ... .. . ...
ROW 07 : ... .. 6 ... : ... .. 6 ... : ... .. . ... : ... .. . ... : ... .. . ... : ... .. 6 ... : ... .. . ...
ROW 08 : E-4 01 F ... : E-4 01 F ... : ... .. . ... : ... .. . ... : ... .. . ... : E-4 01 F ... : ... .. . ...
ROW 09 : ... .. 6 ... : ... .. 6 ... : ... .. . ... : ... .. . ... : ... .. . ... : ... .. 6 ... : ... .. . ...
ROW 0A : E-4 01 F ... : E-4 01 F ... : ... .. . ... : ... .. . ... : ... .. . ... : E-4 01 F ... : ... .. . ...
ROW 0B : ... .. 6 ... : ... .. 6 ... : ... .. . ... : ... .. . ... : ... .. . ... : ... .. 6 ... : ... .. . ...
ROW 0C : E-4 01 F ... : E-4 01 F ... : ... .. . ... : ... .. . ... : ... .. . ... : E-4 01 F ... : ... .. . ...
ROW 0D : ... .. 6 ... : ... .. 6 ... : ... .. . ... : ... .. . ... : ... .. . ... : ... .. 6 ... : ... .. . ...
ROW 0E : E-4 01 F ... : E-4 01 F ... : ... .. . ... : ... .. . ... : ... .. . ... : E-4 01 F ... : ... .. . ...
ROW 0F : ... .. 6 ... : ... .. 6 ... : ... .. . ... : ... .. . ... : ... .. . ... : ... .. 6 ... : ... .. . ...
ROW 10 : D-4 01 F ... : D-4 01 F ... : ... .. . ... : ... .. . ... : ... .. . ... : D-4 01 F ... : ... .. . ...
ROW 11 : ... .. 6 ... : ... .. 6 ... : ... .. . ... : ... .. . ... : ... .. . ... : ... .. 6 ... : ... .. . ...
ROW 12 : D-4 01 F ... : D-4 01 F ... : ... .. . ... : ... .. . ... : ... .. . ... : D-4 01 F ... : ... .. . ...
ROW 13 : ... .. 6 ... : ... .. 6 ... : ... .. . ... : ... .. . ... : ... .. . ... : ... .. 6 ... : ... .. . ...
ROW 14 : D-4 01 F ... : D-4 01 F ... : ... .. . ... : ... .. . ... : ... .. . ... : D-4 01 F ... : ... .. . ...
ROW 15 : ... .. 6 ... : ... .. 6 ... : ... .. . ... : ... .. . ... : ... .. . ... : ... .. 6 ... : ... .. . ...
ROW 16 : D-4 01 F ... : D-4 01 F ... : ... .. . ... : ... .. . ... : ... .. . ... : D-4 01 F ... : ... .. . ...
ROW 17 : ... .. 6 ... : ... .. 6 ... : ... .. . ... : ... .. . ... : ... .. . ... : ... .. 6 ... : ... .. . ...
ROW 18 : A-4 01 F ... : A-4 01 F ... : ... .. . ... : ... .. . ... : ... .. . ... : A-4 01 F ... : ... .. . ...
ROW 19 : ... .. 6 ... : ... .. 6 ... : ... .. . ... : ... .. . ... : ... .. . ... : ... .. 6 ... : ... .. . ...
ROW 1A : A-4 01 F ... : A-4 01 F ... : ... .. . ... : ... .. . ... : ... .. . ... : A-4 01 F ... : ... .. . ...
ROW 1B : ... .. 6 ... : ... .. 6 ... : ... .. . ... : ... .. . ... : ... .. . ... : ... .. 6 ... : ... .. . ...
ROW 1C : A-4 01 F ... : A-4 01 F ... : ... .. . ... : ... .. . ... : ... .. . ... : A-4 01 F ... : ... .. . ...
ROW 1D : ... .. 6 ... : ... .. 6 ... : ... .. . ... : ... .. . ... : ... .. . ... : ... .. 6 ... : ... .. . ...
ROW 1E : A-4 01 F ... : A-4 01 F ... : ... .. . ... : ... .. . ... : ... .. . ... : A-4 01 F ... : ... .. . ...
ROW 1F : ... .. 6 ... : ... .. 6 ... : ... .. . ... : ... .. . ... : ... .. . ... : ... .. 6 ... : ... .. . ...
ROW 20 : B-4 01 F ... : B-4 01 F ... : ... .. . ... : ... .. . ... : ... .. . ... : B-4 01 F ... : ... .. . ...
ROW 21 : ... .. 6 ... : ... .. 6 ... : ... .. . ... : ... .. . ... : ... .. . ... : ... .. 6 ... : ... .. . ...
ROW 22 : B-4 01 F ... : B-4 01 F ... : ... .. . ... : ... .. . ... : ... .. . ... : B-4 01 F ... : ... .. . ...
ROW 23 : ... .. 6 ... : ... .. 6 ... : ... .. . ... : ... .. . ... : ... .. . ... : ... .. 6 ... : ... .. . ...
ROW 24 : B-4 01 F ... : B-4 01 F ... : ... .. . ... : ... .. . ... : ... .. . ... : B-4 01 F ... : ... .. . ...
ROW 25 : ... .. 6 ... : ... .. 6 ... : ... .. . ... : ... .. . ... : ... .. . ... : ... .. 6 ... : ... .. . ...
ROW 26 : B-4 01 F ... : B-4 01 F ... : ... .. . ... : ... .. . ... : ... .. . ... : B-4 01 F ... : ... .. . ...
ROW 27 : ... .. 6 ... : ... .. 6 ... : ... .. . ... : ... .. . ... : ... .. . ... : ... .. 6 ... : ... .. . ...
ROW 28 : A-4 01 F ... : A-4 01 F ... : ... .. . ... : ... .. . ... : ... .. . ... : A-4 01 F ... : ... .. . ...
ROW 29 : ... .. 6 ... : ... .. 6 ... : ... .. . ... : ... .. . ... : ... .. . ... : ... .. 6 ... : ... .. . ...
ROW 2A : A-4 01 F ... : A-4 01 F ... : ... .. . ... : ... .. . ... : ... .. . ... : A-4 01 F ... : ... .. . ...
ROW 2B : ... .. 6 ... : ... .. 6 ... : ... .. . ... : ... .. . ... : ... .. . ... : ... .. 6 ... : ... .. . ...
ROW 2C : A-4 01 F ... : A-4 01 F ... : ... .. . ... : ... .. . ... : ... .. . ... : A-4 01 F ... : ... .. . ...
ROW 2D : ... .. 6 ... : ... .. 6 ... : ... .. . ... : ... .. . ... : ... .. . ... : ... .. 6 ... : ... .. . ...
ROW 2E : A-4 01 F ... : A-4 01 F ... : ... .. . ... : ... .. . ... : ... .. . ... : A-4 01 F ... : ... .. . ...
ROW 2F : ... .. 6 ... : ... .. 6 ... : ... .. . ... : ... .. . ... : ... .. . ... : ... .. 6 ... : ... .. . ...
ROW 30 : B-4 01 F ... : B-4 01 F ... : ... .. . ... : ... .. . ... : ... .. . ... : B-4 01 F ... : ... .. . ...
ROW 31 : ... .. 6 ... : ... .. 6 ... : ... .. . ... : ... .. . ... : ... .. . ... : ... .. 6 ... : ... .. . ...
ROW 32 : B-4 01 F ... : B-4 01 F ... : ... .. . ... : ... .. . ... : ... .. . ... : B-4 01 F ... : ... .. . ...
ROW 33 : ... .. 6 ... : ... .. 6 ... : ... .. . ... : ... .. . ... : ... .. . ... : ... .. 6 ... : ... .. . ...
ROW 34 : B-4 01 F ... : B-4 01 F ... : ... .. . ... : ... .. . ... : ... .. . ... : B-4 01 F ... : ... .. . ...
ROW 35 : ... .. 6 ... : ... .. 6 ... : ... .. . ... : ... .. . ... : ... .. . ... : ... .. 6 ... : ... .. . ...
ROW 36 : B-4 01 F ... : B-4 01 F ... : ... .. . ... : ... .. . ... : ... .. . ... : B-4 01 F ... : ... .. . ...
ROW 37 : ... .. 6 ... : ... .. 6 ... : ... .. . ... : ... .. . ... : ... .. . ... : ... .. 6 ... : ... .. . ...
ROW 38 : C#5 01 F ... : C#5 01 F ... : ... .. . ... : ... .. . ... : ... .. . ... : C#5 01 F ... : ... .. . ...
ROW 39 : ... .. 6 ... : ... .. 6 ... : ... .. . ... : ... .. . ... : ... .. . ... : ... .. 6 ... : ... .. . ...
ROW 3A : C#4 01 F ... : C#4 01 F ... : ... .. . ... : ... .. . ... : ... .. . ... : C#4 01 F ... : ... .. . ...
ROW 3B : ... .. 6 ... : ... .. 6 ... : ... .. . ... : ... .. . ... : ... .. . ... : ... .. 6 ... : ... .. . ...
ROW 3C : C#4 01 F ... : C#4 01 F ... : ... .. . ... : ... .. . ... : ... .. . ... : C#4 01 F ... : ... .. . ...
ROW 3D : ... .. 6 ... : ... .. 6 ... : ... .. . ... : ... .. . ... : ... .. . ... : ... .. 6 ... : ... .. . ...
ROW 3E : C#4 01 F ... : C#4 01 F ... : ... .. . ... : ... .. . ... : ... .. . ... : C#4 01 F ... : ... .. . ...
ROW 3F : ... .. 6 ... : ... .. 6 ... : ... .. . ... : ... .. . ... : ... .. . ... : ... .. 6 ... : ... .. . ...

PATTERN 0F
ROW 00 : D-4 01 F ... : D-4 01 F ... : ... .. . ... : ... .. . ... : ... .. . ... : D-4 01 F ... : ... .. . ...
ROW 01 : ... .. . ... : ... .. . ... : ... .. . ... : ... .. . ... : ... .. . ... : ... .. . ... : ... .. . ...
ROW 02 : D-3 01 . ... : D-3 01 . ... : ... .. . ... : ... .. . ... : ... .. . ... : D-3 01 . ... : ... .. . ...
ROW 03 : E-3 01 . ... : E-3 01 . ... : ... .. . ... : ... .. . ... : ... .. . ... : E-3 01 . ... : ... .. . ...
ROW 04 : F#3 01 . ... : F#3 01 . ... : ... .. . ... : ... .. . ... : ... .. . ... : F#3 01 . ... : ... .. . ...
ROW 05 : ... .. . ... : ... .. . ... : ... .. . ... : ... .. . ... : ... .. . ... : ... .. . ... : ... .. . ...
ROW 06 : D-3 01 . ... : D-3 01 . ... : ... .. . ... : ... .. . ... : ... .. . ... : D-3 01 . ... : ... .. . ...
ROW 07 : ... .. . ... : ... .. . ... : ... .. . ... : ... .. . ... : ... .. . ... : ... .. . ... : ... .. . ...
ROW 08 : C#3 01 . ... : C#3 01 . ... : ... .. . ... : ... .. . ... : ... .. . ... : C#3 01 . ... : ... .. . ...
ROW 09 : ... .. . ... : ... .. . ... : ... .. . ... : ... .. . ... : ... .. . ... : ... .. . ... : ... .. . ...
ROW 0A : C#4 01 . ... : C#4 01 . ... : ... .. . ... : ... .. . ... : ... .. . ... : C#4 01 . ... : ... .. . ...
ROW 0B : D-4 01 . ... : D-4 01 . ... : ... .. . ... : ... .. . ... : ... .. . ... : D-4 01 . ... : ... .. . ...
ROW 0C : E-4 01 . ... : E-4 01 . ... : ... .. . ... : ... .. . ... : ... .. . ... : E-4 01 . ... : ... .. . ...
ROW 0D : ... .. . ... : ... .. . ... : ... .. . ... : ... .. . ... : ... .. . ... : ... .. . ... : ... .. . ...
ROW 0E : C#4 01 . ... : C#4 01 . ... : ... .. . ... : ... .. . ... : ... .. . ... : C#4 01 . ... : ... .. . ...
ROW 0F : ... .. . ... : ... .. . ... : ... .. . ... : ... .. . ... : ... .. . ... : ... .. . ... : ... .. . ...
ROW 10 : B-3 01 . ... : B-3 01 . ... : ... .. . ... : ... .. . ... : ... .. . ... : B-3 01 . ... : ... .. . ...
ROW 11 : ... .. . ... : ... .. . ... : ... .. . ... : ... .. . ... : ... .. . ... : ... .. . ... : ... .. . ...
ROW 12 : B-2 01 . ... : B-2 01 . ... : ... .. . ... : ... .. . ... : ... .. . ... : B-2 01 . ... : ... .. . ...
ROW 13 : C#3 01 . ... : C#3 01 . ... : ... .. . ... : ... .. . ... : ... .. . ... : C#3 01 . ... : ... .. . ...
ROW 14 : D-3 01 . ... : D-3 01 . ... : ... .. . ... : ... .. . ... : ... .. . ... : D-3 01 . ... : ... .. . ...
ROW 15 : ... .. . ... : ... .. . ... : ... .. . ... : ... .. . ... : ... .. . ... : ... .. . ... : ... .. . ...
ROW 16 : B-2 01 . ... : B-2 01 . ... : ... .. . ... : ... .. . ... : ... .. . ... : B-2 01 . ... : ... .. . ...
ROW 17 : ... .. . ... : ... .. . ... : ... .. . ... : ... .. . ... : ... .. . ... : ... .. . ... : ... .. . ...
ROW 18 : C#3 01 . ... : C#3 01 . ... : ... .. . ... : ... .. . ... : ... .. . ... : C#3 01 . ... : ... .. . ...
ROW 19 : ... .. . ... : ... .. . ... : ... .. . ... : ... .. . ... : ... .. . ... : ... .. . ... : ... .. . ...
ROW 1A : A-3 01 . ... : A-3 01 . ... : ... .. . ... : ... .. . ... : ... .. . ... : A-3 01 . ... : ... .. . ...
ROW 1B : G-3 01 . ... : G-3 01 . ... : ... .. . ... : ... .. . ... : ... .. . ... : G-3 01 . ... : ... .. . ...
ROW 1C : F#3 01 . ... : F#3 01 . ... : ... .. . ... : ... .. . ... : ... .. . ... : F#3 01 . ... : ... .. . ...
ROW 1D : ... .. . ... : ... .. . ... : ... .. . ... : ... .. . ... : ... .. . ... : ... .. . ... : ... .. . ...
ROW 1E : E-3 01 . ... : E-3 01 . ... : ... .. . ... : ... .. . ... : ... .. . ... : E-3 01 . ... : ... .. . ...
ROW 1F : ... .. . ... : ... .. . ... : ... .. . ... : ... .. . ... : ... .. . ... : ... .. . ... : ... .. . ...
ROW 20 : D-3 01 . ... : D-3 01 . ... : ... .. . ... : ... .. . ... : ... .. . ... : D-3 01 . ... : ... .. . ...
ROW 21 : ... .. . ... : ... .. . ... : ... .. . ... : ... .. . ... : ... .. . ... : ... .. . ... : ... .. . ...
ROW 22 : G-3 01 . ... : G-3 01 . ... : ... .. . ... : ... .. . ... : ... .. . ... : G-3 01 . ... : ... .. . ...
ROW 23 : F#3 01 . ... : F#3 01 . ... : ... .. . ... : ... .. . ... : ... .. . ... : F#3 01 . ... : ... .. . ...
ROW 24 : E-3 01 . ... : E-3 01 . ... : ... .. . ... : ... .. . ... : ... .. . ... : E-3 01 . ... : ... .. . ...
ROW 25 : ... .. . ... : ... .. . ... : ... .. . ... : ... .. . ... : ... .. . ... : ... .. . ... : ... .. . ...
ROW 26 : G-3 01 . ... : G-3 01 . ... : ... .. . ... : ... .. . ... : ... .. . ... : G-3 01 . ... : ... .. . ...
ROW 27 : ... .. . ... : ... .. . ... : ... .. . ... : ... .. . ... : ... .. . ... : ... .. . ... : ... .. . ...
ROW 28 : F#3 01 . ... : F#3 01 . ... : ... .. . ... : ... .. . ... : ... .. . ... : F#3 01 . ... : ... .. . ...
ROW 29 : ... .. . ... : ... .. . ... : ... .. . ... : ... .. . ... : ... .. . ... : ... .. . ... : ... .. . ...
ROW 2A : D-3 01 . ... : D-3 01 . ... : ... .. . ... : ... .. . ... : ... .. . ... : D-3 01 . ... : ... .. . ...
ROW 2B : E-3 01 . ... : E-3 01 . ... : ... .. . ... : ... .. . ... : ... .. . ... : E-3 01 . ... : ... .. . ...
ROW 2C : F#3 01 . ... : F#3 01 . ... : ... .. . ... : ... .. . ... : ... .. . ... : F#3 01 . ... : ... .. . ...
ROW 2D : ... .. . ... : ... .. . ... : ... .. . ... : ... .. . ... : ... .. . ... : ... .. . ... : ... .. . ...
ROW 2E : A-3 01 . ... : A-3 01 . ... : ... .. . ... : ... .. . ... : ... .. . ... : A-3 01 . ... : ... .. . ...
ROW 2F : ... .. . ... : ... .. . ... : ... .. . ... : ... .. . ... : ... .. . ... : ... .. . ... : ... .. . ...
ROW 30 : G-3 01 . ... : G-3 01 . ... : ... .. . ... : ... .. . ... : ... .. . ... : G-3 01 . ... : ... .. . ...
ROW 31 : ... .. . ... : ... .. . ... : ... .. . ... : ... .. . ... : ... .. . ... : ... .. . ... : ... .. . ...
ROW 32 : B-3 01 . ... : B-3 01 . ... : ... .. . ... : ... .. . ... : ... .. . ... : B-3 01 . ... : ... .. . ...
ROW 33 : A-3 01 . ... : A-3 01 . ... : ... .. . ... : ... .. . ... : ... .. . ... : A-3 01 . ... : ... .. . ...
ROW 34 : G-3 01 . ... : G-3 01 . ... : ... .. . ... : ... .. . ... : ... .. . ... : G-3 01 . ... : ... .. . ...
ROW 35 : ... .. . ... : ... .. . ... : ... .. . ... : ... .. . ... : ... .. . ... : ... .. . ... : ... .. . ...
ROW 36 : F#3 01 . ... : F#3 01 . ... : ... .. . ... : ... .. . ... : ... .. . ... : F#3 01 . ... : ... .. . ...
ROW 37 : ... .. . ... : ... .. . ... : ... .. . ... : ... .. . ... : ... .. . ... : ... .. . ... : ... .. . ...
ROW 38 : E-3 01 . ... : E-3 01 . ... : ... .. . ... : ... .. . ... : ... .. . ... : E-3 01 . ... : ... .. . ...
ROW 39 : ... .. . ... : ... .. . ... : ... .. . ... : ... .. . ... : ... .. . ... : ... .. . ... : ... .. . ...
ROW 3A : A-3 01 . ... : A-3 01 . ... : ... .. . ... : ... .. . ... : ... .. . ... : A-3 01 . ... : ... .. . ...
ROW 3B : G-3 01 . ... : G-3 01 . ... : ... .. . ... : ... .. . ... : ... .. . ... : G-3 01 . ... : ... .. . ...
ROW 3C : F#3 01 . ... : F#3 01 . ... : ... .. . ... : ... .. . ... : ... .. . ... : F#3 01 . ... : ... .. . ...
ROW 3D : ... .. . ... : ... .. . ... : ... .. . ... : ... .. . ... : ... .. . ... : ... .. . ... : ... .. . ...
ROW 3E : E-3 01 . ... : E-3 01 . ... : ... .. . ... : ... .. . ... : ... .. . ... : E-3 01 . ... : ... .. . ...
ROW 3F : ... .. . ... : ... .. . ... : ... .. . ... : ... .. . ... : ... .. . ... : ... .. . ... : ... .. . ...

PATTERN 10
ROW 00 : F#3 01 . ... : F#3 01 . ... : ... .. . ... : ... .. . ... : ... .. . ... : F#3 01 . ... : ... .. . ...
ROW 01 : ... .. . ... : ... .. . ... : ... .. . ... : ... .. . ... : ... .. . ... : ... .. . ... : ... .. . ...
ROW 02 : D-4 01 . ... : D-4 01 . ... : ... .. . ... : ... .. . ... : ... .. . ... : D-4 01 . ... : ... .. . ...
ROW 03 : C#4 01 . ... : C#4 01 . ... : ... .. . ... : ... .. . ... : ... .. . ... : C#4 01 . ... : ... .. . ...
ROW 04 : D-4 01 . ... : D-4 01 . ... : ... .. . ... : ... .. . ... : ... .. . ... : D-4 01 . ... : ... .. . ...
ROW 05 : ... .. . ... : ... .. . ... : ... .. . ... : ... .. . ... : ... .. . ... : ... .. . ... : ... .. . ...
ROW 06 : F#3 01 . ... : F#3 01 . ... : ... .. . ... : ... .. . ... : ... .. . ... : F#3 01 . ... : ... .. . ...
ROW 07 : ... .. . ... : ... .. . ... : ... .. . ... : ... .. . ... : ... .. . ... : ... .. . ... : ... .. . ...
ROW 08 : A-3 01 . ... : A-3 01 . ... : ... .. . ... : ... .. . ... : ... .. . ... : A-3 01 . ... : ... .. . ...
ROW 09 : ... .. . ... : ... .. . ... : ... .. . ... : ... .. . ... : ... .. . ... : ... .. . ... : ... .. . ...
ROW 0A : A-3 01 . ... : A-3 01 . ... : ... .. . ... : ... .. . ... : ... .. . ... : A-3 01 . ... : ... .. . ...
ROW 0B : B-3 01 . ... : B-3 01 . ... : ... .. . ... : ... .. . ... : ... .. . ... : B-3 01 . ... : ... .. . ...
ROW 0C : C#4 01 . ... : C#4 01 . ... : ... .. . ... : ... .. . ... : ... .. . ... : C#4 01 . ... : ... .. . ...
ROW 0D : ... .. . ... : ... .. . ... : ... .. . ... : ... .. . ... : ... .. . ... : ... .. . ... : ... .. . ...
ROW 0E : A-3 01 . ... : A-3 01 . ... : ... .. . ... : ... .. . ... : ... .. . ... : A-3 01 . ... : ... .. . ...
ROW 0F : ... .. . ... : ... .. . ... : ... .. . ... : ... .. . ... : ... .. . ... : ... .. . ... : ... .. . ...
ROW 10 : F#3 01 . ... : F#3 01 . ... : ... .. . ... : ... .. . ... : ... .. . ... : F#3 01 . ... : ... .. . ...
ROW 11 : ... .. . ... : ... .. . ... : ... .. . ... : ... .. . ... : ... .. . ... : ... .. . ... : ... .. . ...
ROW 12 : D-4 01 . ... : D-4 01 . ... : ... .. . ... : ... .. . ... : ... .. . ... : D-4 01 . ... : ... .. . ...
ROW 13 : E-4 01 . ... : E-4 01 . ... : ... .. . ... : ... .. . ... : ... .. . ... : E-4 01 . ... : ... .. . ...
ROW 14 : F#4 01 . ... : F#4 01 . ... : ... .. . ... : ... .. . ... : ... .. . ... : F#4 01 . ... : ... .. . ...
ROW 15 : ... .. . ... : ... .. . ... : ... .. . ... : ... .. . ... : ... .. . ... : ... .. . ... : ... .. . ...
ROW 16 : D-4 01 . ... : D-4 01 . ... : ... .. . ... : ... .. . ... : ... .. . ... : D-4 01 . ... : ... .. . ...
ROW 17 : ... .. . ... : ... .. . ... : ... .. . ... : ... .. . ... : ... .. . ... : ... .. . ... : ... .. . ...
ROW 18 : F#4 01 F ... : F#4 01 F ... : ... .. . ... : ... .. . ... : ... .. . ... : F#4 01 F ... : ... .. . ...
ROW 19 : ... .. 6 ... : ... .. 6 ... : ... .. . ... : ... .. . ... : ... .. . ... : ... .. 6 ... : ... .. . ...
ROW 1A : F#4 01 F ... : F#4 01 F ... : ... .. . ... : ... .. . ... : ... .. . ... : F#4 01 F ... : ... .. . ...
ROW 1B : E-4 01 . ... : E-4 01 . ... : ... .. . ... : ... .. . ... : ... .. . ... : E-4 01 . ... : ... .. . ...
ROW 1C : D-4 01 . ... : D-4 01 . ... : ... .. . ... : ... .. . ... : ... .. . ... : D-4 01 . ... : ... .. . ...
ROW 1D : ... .. . ... : ... .. . ... : ... .. . ... : ... .. . ... : ... .. . ... : ... .. . ... : ... .. . ...
ROW 1E : C#4 01 . ... : C#4 01 . ... : ... .. . ... : ... .. . ... : ... .. . ... : C#4 01 . ... : ... .. . ...
ROW 1F : ... .. . ... : ... .. . ... : ... .. . ... : ... .. . ... : ... .. . ... : ... .. . ... : ... .. . ...
ROW 20 : B-3 01 . ... : B-3 01 . ... : ... .. . ... : ... .. . ... : ... .. . ... : B-3 01 . ... : ... .. . ...
ROW 21 : ... .. . ... : ... .. . ... : ... .. . ... : ... .. . ... : ... .. . ... : ... .. . ... : ... .. . ...
ROW 22 : B-3 01 . ... : B-3 01 . ... : ... .. . ... : ... .. . ... : ... .. . ... : B-3 01 . ... : ... .. . ...
ROW 23 : A-3 01 . ... : A-3 01 . ... : ... .. . ... : ... .. . ... : ... .. . ... : A-3 01 . ... : ... .. . ...
ROW 24 : B-3 01 . ... : B-3 01 . ... : ... .. . ... : ... .. . ... : ... .. . ... : B-3 01 . ... : ... .. . ...
ROW 25 : ... .. . ... : ... .. . ... : ... .. . ... : ... .. . ... : ... .. . ... : ... .. . ... : ... .. . ...
ROW 26 : C#4 01 . ... : C#4 01 . ... : ... .. . ... : ... .. . ... : ... .. . ... : C#4 01 . ... : ... .. . ...
ROW 27 : ... .. . ... : ... .. . ... : ... .. . ... : ... .. . ... : ... .. . ... : ... .. . ... : ... .. . ...
ROW 28 : D-4 01 . ... : D-4 01 . ... : ... .. . ... : ... .. . ... : ... .. . ... : D-4 01 . ... : ... .. . ...
ROW 29 : ... .. . ... : ... .. . ... : ... .. . ... : ... .. . ... : ... .. . ... : ... .. . ... : ... .. . ...
ROW 2A : F#4 01 . ... : F#4 01 . ... : ... .. . ... : ... .. . ... : ... .. . ... : F#4 01 . ... : ... .. . ...
ROW 2B : E-4 01 . ... : E-4 01 . ... : ... .. . ... : ... .. . ... : ... .. . ... : E-4 01 . ... : ... .. . ...
ROW 2C : D-4 01 . ... : D-4 01 . ... : ... .. . ... : ... .. . ... : ... .. . ... : D-4 01 . ... : ... .. . ...
ROW 2D : ... .. . ... : ... .. . ... : ... .. . ... : ... .. . ... : ... .. . ... : ... .. . ... : ... .. . ...
ROW 2E : F#4 01 . ... : F#4 01 . ... : ... .. . ... : ... .. . ... : ... .. . ... : F#4 01 . ... : ... .. . ...
ROW 2F : ... .. . ... : ... .. . ... : ... .. . ... : ... .. . ... : ... .. . ... : ... .. . ... : ... .. . ...
ROW 30 : G-4 01 . ... : G-4 01 . ... : ... .. . ... : ... .. . ... : ... .. . ... : G-4 01 . ... : ... .. . ...
ROW 31 : ... .. . ... : ... .. . ... : ... .. . ... : ... .. . ... : ... .. . ... : ... .. . ... : ... .. . ...
ROW 32 : D-4 01 . ... : D-4 01 . ... : ... .. . ... : ... .. . ... : ... .. . ... : D-4 01 . ... : ... .. . ...
ROW 33 : C#4 01 . ... : C#4 01 . ... : ... .. . ... : ... .. . ... : ... .. . ... : C#4 01 . ... : ... .. . ...
ROW 34 : B-3 01 F ... : B-3 01 F ... : ... .. . ... : ... .. . ... : ... .. . ... : B-3 01 F ... : ... .. . ...
ROW 35 : ... .. 6 ... : ... .. 6 ... : ... .. . ... : ... .. . ... : ... .. . ... : ... .. 6 ... : ... .. . ...
ROW 36 : B-3 01 F ... : B-3 01 F ... : ... .. . ... : ... .. . ... : ... .. . ... : B-3 01 F ... : ... .. . ...
ROW 37 : ... .. . ... : ... .. . ... : ... .. . ... : ... .. . ... : ... .. . ... : ... .. . ... : ... .. . ...
ROW 38 : A-3 01 . ... : A-3 01 . ... : ... .. . ... : ... .. . ... : ... .. . ... : A-3 01 . ... : ... .. . ...
ROW 39 : ... .. . ... : ... .. . ... : ... .. . ... : ... .. . ... : ... .. . ... : ... .. . ... : ... .. . ...
ROW 3A : E-3 01 . ... : E-3 01 . ... : ... .. . ... : ... .. . ... : ... .. . ... : E-3 01 . ... : ... .. . ...
ROW 3B : ... .. . ... : ... .. . ... : ... .. . ... : ... .. . ... : ... .. . ... : ... .. . ... : ... .. . ...
ROW 3C : A-3 01 F ... : A-3 01 F ... : ... .. . ... : ... .. . ... : ... .. . ... : A-3 01 F ... : ... .. . ...
ROW 3D : ... .. 6 ... : ... .. 6 ... : ... .. . ... : ... .. . ... : ... .. . ... : ... .. 6 ... : ... .. . ...
ROW 3E : A-3 01 F ... : A-3 01 F ... : ... .. . ... : ... .. . ... : ... .. . ... : A-3 01 F ... : ... .. . ...
ROW 3F : ... .. . ... : ... .. . ... : ... .. . ... : ... .. . ... : ... .. . ... : ... .. . ... : ... .. . ...

PATTERN 11
ROW 00 : A-3 01 F ... : A-3 01 F ... : ... .. . ... : ... .. . ... : ... .. . ... : A-3 01 F ... : ... .. . ...
ROW 01 : ... .. . ... : ... .. . ... : ... .. . ... : ... .. . ... : ... .. . ... : ... .. . ... : ... .. . ...
ROW 02 : ... .. . ... : ... .. . ... : ... .. . ... : ... .. . ... : ... .. . ... : ... .. . ... : ... .. . ...
ROW 03 : ... .. . ... : ... .. . ... : ... .. . ... : ... .. . ... : ... .. . ... : ... .. . ... : ... .. . ...
ROW 04 : ... .. . ... : ... .. . ... : ... .. . ... : ... .. . ... : ... .. . ... : ... .. . ... : ... .. . ...
ROW 05 : ... .. . ... : ... .. . ... : ... .. . ... : ... .. . ... : ... .. . ... : ... .. . ... : ... .. . ...
ROW 06 : ... .. . ... : ... .. . ... : ... .. . ... : ... .. . ... : ... .. . ... : ... .. . ... : ... .. . ...
ROW 07 : ... .. . ... : ... .. . ... : ... .. . ... : ... .. . ... : ... .. . ... : ... .. . ... : ... .. . ...
ROW 08 : ... .. . ... : ... .. . ... : ... .. . ... : ... .. . ... : ... .. . ... : ... .. . ... : ... .. . ...
ROW 09 : ... .. . ... : ... .. . ... : ... .. . ... : ... .. . ... : ... .. . ... : ... .. . ... : ... .. . ...
ROW 0A : ... .. . ... : ... .. . ... : ... .. . ... : ... .. . ... : ... .. . ... : ... .. . ... : ... .. . ...
ROW 0B : ... .. 6 ... : ... .. 6 ... : ... .. . ... : ... .. . ... : ... .. . ... : ... .. 6 ... : ... .. . ...
ROW 0C : A-3 01 F ... : A-3 01 F ... : ... .. . ... : ... .. . ... : ... .. . ... : A-3 01 F ... : ... .. . ...
ROW 0D : ... .. . ... : ... .. . ... : ... .. . ... : ... .. . ... : ... .. . ... : ... .. . ... : ... .. . ...
ROW 0E : ... .. . ... : ... .. . ... : ... .. . ... : ... .. . ... : ... .. . ... : ... .. . ... : ... .. . ...
ROW 0F : ... .. . ... : ... .. . ... : ... .. . ... : ... .. . ... : ... .. . ... : ... .. . ... : ... .. . ...
ROW 10 : D-3 01 . ... : D-3 01 . ... : ... .. . ... : ... .. . ... : ... .. . ... : D-3 01 . ... : ... .. . ...
ROW 11 : ... .. . ... : ... .. . ... : ... .. . ... : ... .. . ... : ... .. . ... : ... .. . ... : ... .. . ...
ROW 12 : ... .. . ... : ... .. . ... : ... .. . ... : ... .. . ... : ... .. . ... : ... .. . ... : ... .. . ...
ROW 13 : ... .. . ... : ... .. . ... : ... .. . ... : ... .. . ... : ... .. . ... : ... .. . ... : ... .. . ...
ROW 14 : ... .. . ... : ... .. . ... : ... .. . ... : ... .. . ... : ... .. . ... : ... .. . ... : ... .. . ...
ROW 15 : ... .. . ... : ... .. . ... : ... .. . ... : ... .. . ... : ... .. . ... : ... .. . ... : ... .. . ...
ROW 16 : ... .. . ... : ... .. . ... : ... .. . ... : ... .. . ... : ... .. . ... : ... .. . ... : ... .. . ...
ROW 17 : ... .. . ... : ... .. . ... : ... .. . ... : ... .. . ... : ... .. . ... : ... .. . ... : ... .. . ...
ROW 18 : ... .. . ... : ... .. . ... : ... .. . ... : ... .. . ... : ... .. . ... : ... .. . ... : ... .. . ...
ROW 19 : ... .. . ... : ... .. . ... : ... .. . ... : ... .. . ... : ... .. . ... : ... .. . ... : ... .. . ...
ROW 1A : ... .. . ... : ... .. . ... : ... .. . ... : ... .. . ... : ... .. . ... : ... .. . ... : ... .. . ...
ROW 1B : ... .. . ... : ... .. . ... : ... .. . ... : ... .. . ... : ... .. . ... : ... .. . ... : ... .. . ...
ROW 1C : A-3 01 . ... : A-3 01 . ... : ... .. . ... : ... .. . ... : ... .. . ... : A-3 01 . ... : ... .. . ...
ROW 1D : ... .. . ... : ... .. . ... : ... .. . ... : ... .. . ... : ... .. . ... : ... .. . ... : ... .. . ...
ROW 1E : ... .. . ... : ... .. . ... : ... .. . ... : ... .. . ... : ... .. . ... : ... .. . ... : ... .. . ...
ROW 1F : ... .. . ... : ... .. . ... : ... .. . ... : ... .. . ... : ... .. . ... : ... .. . ... : ... .. . ...
ROW 20 : G-3 01 . ... : G-3 01 . ... : ... .. . ... : ... .. . ... : ... .. . ... : G-3 01 . ... : ... .. . ...
ROW 21 : ... .. . ... : ... .. . ... : ... .. . ... : ... .. . ... : ... .. . ... : ... .. . ... : ... .. . ...
ROW 22 : ... .. . ... : ... .. . ... : ... .. . ... : ... .. . ... : ... .. . ... : ... .. . ... : ... .. . ...
ROW 23 : ... .. . ... : ... .. . ... : ... .. . ... : ... .. . ... : ... .. . ... : ... .. . ... : ... .. . ...
ROW 24 : ... .. . ... : ... .. . ... : ... .. . ... : ... .. . ... : ... .. . ... : ... .. . ... : ... .. . ...
ROW 25 : ... .. . ... : ... .. . ... : ... .. . ... : ... .. . ... : ... .. . ... : ... .. . ... : ... .. . ...
ROW 26 : ... .. . ... : ... .. . ... : ... .. . ... : ... .. . ... : ... .. . ... : ... .. . ... : ... .. . ...
ROW 27 : ... .. . ... : ... .. . ... : ... .. . ... : ... .. . ... : ... .. . ... : ... .. . ... : ... .. . ...
ROW 28 : A-3 01 . ... : A-3 01 . ... : ... .. . ... : ... .. . ... : ... .. . ... : A-3 01 . ... : ... .. . ...
ROW 29 : ... .. . ... : ... .. . ... : ... .. . ... : ... .. . ... : ... .. . ... : ... .. . ... : ... .. . ...
ROW 2A : ... .. . ... : ... .. . ... : ... .. . ... : ... .. . ... : ... .. . ... : ... .. . ... : ... .. . ...
ROW 2B : ... .. . ... : ... .. . ... : ... .. . ... : ... .. . ... : ... .. . ... : ... .. . ... : ... .. . ...
ROW 2C : ... .. . ... : ... .. . ... : ... .. . ... : ... .. . ... : ... .. . ... : ... .. . ... : ... .. . ...
ROW 2D : ... .. . ... : ... .. . ... : ... .. . ... : ... .. . ... : ... .. . ... : ... .. . ... : ... .. . ...
ROW 2E : ... .. . ... : ... .. . ... : ... .. . ... : ... .. . ... : ... .. . ... : ... .. . ... : ... .. . ...
ROW 2F : ... .. . ... : ... .. . ... : ... .. . ... : ... .. . ... : ... .. . ... : ... .. . ... : ... .. . ...
ROW 30 : G-3 01 . ... : G-3 01 . ... : ... .. . ... : ... .. . ... : ... .. . ... : G-3 01 . ... : ... .. . ...
ROW 31 : ... .. . ... : ... .. . ... : ... .. . ... : ... .. . ... : ... .. . ... : ... .. . ... : ... .. . ...
ROW 32 : ... .. . ... : ... .. . ... : ... .. . ... : ... .. . ... : ... .. . ... : ... .. . ... : ... .. . ...
ROW 33 : ... .. . ... : ... .. . ... : ... .. . ... : ... .. . ... : ... .. . ... : ... .. . ... : ... .. . ...
ROW 34 : D-3 01 F ... : D-3 01 F ... : ... .. . ... : ... .. . ... : ... .. . ... : D-3 01 F ... : ... .. . ...
ROW 35 : ... .. . ... : ... .. . ... : ... .. . ... : ... .. . ... : ... .. . ... : ... .. . ... : ... .. . ...
ROW 36 : ... .. . ... : ... .. . ... : ... .. . ... : ... .. . ... : ... .. . ... : ... .. . ... : ... .. . ...
ROW 37 : ... .. 6 ... : ... .. 6 ... : ... .. . ... : ... .. . ... : ... .. . ... : ... .. 6 ... : ... .. . ...
ROW 38 : D-3 01 F ... : D-3 01 F ... : ... .. . ... : ... .. . ... : ... .. . ... : D-3 01 F ... : ... .. . ...
ROW 39 : ... .. . ... : ... .. . ... : ... .. . ... : ... .. . ... : ... .. . ... : ... .. . ... : ... .. . ...
ROW 3A : ... .. . ... : ... .. . ... : ... .. . ... : ... .. . ... : ... .. . ... : ... .. . ... : ... .. . ...
ROW 3B : ... .. . ... : ... .. . ... : ... .. . ... : ... .. . ... : ... .. . ... : ... .. . ... : ... .. . ...
ROW 3C : ... .. . ... : ... .. . ... : ... .. . ... : ... .. . ... : ... .. . ... : ... .. . ... : ... .. . ...
ROW 3D : ... .. . ... : ... .. . ... : ... .. . ... : ... .. . ... : ... .. . ... : ... .. . ... : ... .. . ...
ROW 3E : C#3 01 . ... : C#3 01 . ... : ... .. . ... : ... .. . ... : ... .. . ... : C#3 01 . ... : ... .. . ...
ROW 3F : ... .. . ... : ... .. . ... : ... .. . ... : ... .. . ... : ... .. . ... : ... .. . ... : ... .. . ...

PATTERN 12
ROW 00 : D-3 01 . ... : D-3 01 . ... : ... .. . ... : ... .. . ... : ... .. . ... : D-3 01 . ... : ... .. . ...
ROW 01 : ... .. . ... : ... .. . ... : ... .. . ... : ... .. . ... : ... .. . ... : ... .. . ... : ... .. . ...
ROW 02 : ... .. . ... : ... .. . ... : ... .. . ... : ... .. . ... : ... .. . ... : ... .. . ... : ... .. . ...
ROW 03 : ... .. . ... : ... .. . ... : ... .. . ... : ... .. . ... : ... .. . ... : ... .. . ... : ... .. . ...
ROW 04 : D-4 01 . ... : D-4 01 . ... : ... .. . ... : ... .. . ... : ... .. . ... : D-4 01 . ... : ... .. . ...
ROW 05 : ... .. . ... : ... .. . ... : ... .. . ... : ... .. . ... : ... .. . ... : ... .. . ... : ... .. . ...
ROW 06 : ... .. . ... : ... .. . ... : ... .. . ... : ... .. . ... : ... .. . ... : ... .. . ... : ... .. . ...
ROW 07 : ... .. . ... : ... .. . ... : ... .. . ... : ... .. . ... : ... .. . ... : ... .. . ... : ... .. . ...
ROW 08 : C#4 01 . ... : C#4 01 . ... : ... .. . ... : ... .. . ... : ... .. . ... : C#4 01 . ... : ... .. . ...
ROW 09 : ... .. . ... : ... .. . ... : ... .. . ... : ... .. . ... : ... .. . ... : ... .. . ... : ... .. . ...
ROW 0A : ... .. . ... : ... .. . ... : ... .. . ... : ... .. . ... : ... .. . ... : ... .. . ... : ... .. . ...
ROW 0B : ... .. . ... : ... .. . ... : ... .. . ... : ... .. . ... : ... .. . ... : ... .. . ... : ... .. . ...
ROW 0C : ... .. . ... : ... .. . ... : ... .. . ... : ... .. . ... : ... .. . ... : ... .. . ... : ... .. . ...
ROW 0D : ... .. . ... : ... .. . ... : ... .. . ... : ... .. . ... : ... .. . ... : ... .. . ... : ... .. . ...
ROW 0E : ... .. . ... : ... .. . ... : ... .. . ... : ... .. . ... : ... .. . ... : ... .. . ... : ... .. . ...
ROW 0F : ... .. . ... : ... .. . ... : ... .. . ... : ... .. . ... : ... .. . ... : ... .. . ... : ... .. . ...
ROW 10 : B-3 01 . ... : B-3 01 . ... : ... .. . ... : ... .. . ... : ... .. . ... : B-3 01 . ... : ... .. . ...
ROW 11 : ... .. . ... : ... .. . ... : ... .. . ... : ... .. . ... : ... .. . ... : ... .. . ... : ... .. . ...
ROW 12 : ... .. . ... : ... .. . ... : ... .. . ... : ... .. . ... : ... .. . ... : ... .. . ... : ... .. . ...
ROW 13 : ... .. . ... : ... .. . ... : ... .. . ... : ... .. . ... : ... .. . ... : ... .. . ... : ... .. . ...
ROW 14 : ... .. . ... : ... .. . ... : ... .. . ... : ... .. . ... : ... .. . ... : ... .. . ... : ... .. . ...
ROW 15 : ... .. . ... : ... .. . ... : ... .. . ... : ... .. . ... : ... .. . ... : ... .. . ... : ... .. . ...
ROW 16 : ... .. . ... : ... .. . ... : ... .. . ... : ... .. . ... : ... .. . ... : ... .. . ... : ... .. . ...
ROW 17 : ... .. . ... : ... .. . ... : ... .. . ... : ... .. . ... : ... .. . ... : ... .. . ... : ... .. . ...
ROW 18 : A-3 01 . ... : A-3 01 . ... : ... .. . ... : ... .. . ... : ... .. . ... : A-3 01 . ... : ... .. . ...
ROW 19 : ... .. . ... : ... .. . ... : ... .. . ... : ... .. . ... : ... .. . ... : ... .. . ... : ... .. . ...
ROW 1A : ... .. . ... : ... .. . ... : ... .. . ... : ... .. . ... : ... .. . ... : ... .. . ... : ... .. . ...
ROW 1B : ... .. . ... : ... .. . ... : ... .. . ... : ... .. . ... : ... .. . ... : ... .. . ... : ... .. . ...
ROW 1C : ... .. . ... : ... .. . ... : ... .. . ... : ... .. . ... : ... .. . ... : ... .. . ... : ... .. . ...
ROW 1D : ... .. . ... : ... .. . ... : ... .. . ... : ... .. . ... : ... .. . ... : ... .. . ... : ... .. . ...
ROW 1E : ... .. . ... : ... .. . ... : ... .. . ... : ... .. . ... : ... .. . ... : ... .. . ... : ... .. . ...
ROW 1F : ... .. . ... : ... .. . ... : ... .. . ... : ... .. . ... : ... .. . ... : ... .. . ... : ... .. . ...
ROW 20 : D-3 01 . ... : D-3 01 . ... : ... .. . ... : ... .. . ... : ... .. . ... : D-3 01 . ... : ... .. . ...
ROW 21 : ... .. . ... : ... .. . ... : ... .. . ... : ... .. . ... : ... .. . ... : ... .. . ... : ... .. . ...
ROW 22 : ... .. . ... : ... .. . ... : ... .. . ... : ... .. . ... : ... .. . ... : ... .. . ... : ... .. . ...
ROW 23 : ... .. . ... : ... .. . ... : ... .. . ... : ... .. . ... : ... .. . ... : ... .. . ... : ... .. . ...
ROW 24 : ... .. . ... : ... .. . ... : ... .. . ... : ... .. . ... : ... .. . ... : ... .. . ... : ... .. . ...
ROW 25 : ... .. . ... : ... .. . ... : ... .. . ... : ... .. . ... : ... .. . ... : ... .. . ... : ... .. . ...
ROW 26 : E-3 01 . ... : E-3 01 . ... : ... .. . ... : ... .. . ... : ... .. . ... : E-3 01 . ... : ... .. . ...
ROW 27 : ... .. . ... : ... .. . ... : ... .. . ... : ... .. . ... : ... .. . ... : ... .. . ... : ... .. . ...
ROW 28 : F#3 01 . ... : F#3 01 . ... : ... .. . ... : ... .. . ... : ... .. . ... : F#3 01 . ... : ... .. . ...
ROW 29 : ... .. . ... : ... .. . ... : ... .. . ... : ... .. . ... : ... .. . ... : ... .. . ... : ... .. . ...
ROW 2A : ... .. . ... : ... .. . ... : ... .. . ... : ... .. . ... : ... .. . ... : ... .. . ... : ... .. . ...
ROW 2B : ... .. . ... : ... .. . ... : ... .. . ... : ... .. . ... : ... .. . ... : ... .. . ... : ... .. . ...
ROW 2C : ... .. . ... : ... .. . ... : ... .. . ... : ... .. . ... : ... .. . ... : ... .. . ... : ... .. . ...
ROW 2D : ... .. . ... : ... .. . ... : ... .. . ... : ... .. . ... : ... .. . ... : ... .. . ... : ... .. . ...
ROW 2E : ... .. . ... : ... .. . ... : ... .. . ... : ... .. . ... : ... .. . ... : ... .. . ... : ... .. . ...
ROW 2F : ... .. . ... : ... .. . ... : ... .. . ... : ... .. . ... : ... .. . ... : ... .. . ... : ... .. . ...
ROW 30 : B-3 01 . ... : B-3 01 . ... : ... .. . ... : ... .. . ... : ... .. . ... : B-3 01 . ... : ... .. . ...
ROW 31 : ... .. . ... : ... .. . ... : ... .. . ... : ... .. . ... : ... .. . ... : ... .. . ... : ... .. . ...
ROW 32 : ... .. . ... : ... .. . ... : ... .. . ... : ... .. . ... : ... .. . ... : ... .. . ... : ... .. . ...
ROW 33 : ... .. . ... : ... .. . ... : ... .. . ... : ... .. . ... : ... .. . ... : ... .. . ... : ... .. . ...
ROW 34 : ... .. . ... : ... .. . ... : ... .. . ... : ... .. . ... : ... .. . ... : ... .. . ... : ... .. . ...
ROW 35 : ... .. . ... : ... .. . ... : ... .. . ... : ... .. . ... : ... .. . ... : ... .. . ... : ... .. . ...
ROW 36 : ... .. . ... : ... .. . ... : ... .. . ... : ... .. . ... : ... .. . ... : ... .. . ... : ... .. . ...
ROW 37 : ... .. . ... : ... .. . ... : ... .. . ... : ... .. . ... : ... .. . ... : ... .. . ... : ... .. . ...
ROW 38 : E-3 01 F ... : E-3 01 F ... : ... .. . ... : ... .. . ... : ... .. . ... : E-3 01 F ... : ... .. . ...
ROW 39 : ... .. . ... : ... .. . ... : ... .. . ... : ... .. . ... : ... .. . ... : ... .. . ... : ... .. . ...
ROW 3A : ... .. . ... : ... .. . ... : ... .. . ... : ... .. . ... : ... .. . ... : ... .. . ... : ... .. . ...
ROW 3B : ... .. . ... : ... .. . ... : ... .. . ... : ... .. . ... : ... .. . ... : ... .. . ... : ... .. . ...
ROW 3C : ... .. . ... : ... .. . ... : ... .. . ... : ... .. . ... : ... .. . ... : ... .. . ... : ... .. . ...
ROW 3D : ... .. 6 ... : ... .. 6 ... : ... .. . ... : ... .. . ... : ... .. . ... : ... .. 6 ... : ... .. . ...
ROW 3E : E-3 01 F ... : E-3 01 F ... : ... .. . ... : ... .. . ... : ... .. . ... : E-3 01 F ... : ... .. . ...
ROW 3F : ... .. . ... : ... .. . ... : ... .. . ... : ... .. . ... : ... .. . ... : ... .. . ... : ... .. . ...

PATTERN 13
ROW 00 : F#3 01 . ... : F#3 01 . ... : ... .. . ... : ... .. . ... : ... .. . ... : F#3 01 . ... : ... .. . ...
ROW 01 : ... .. . ... : ... .. . ... : ... .. . ... : ... .. . ... : ... .. . ... : ... .. . ... : ... .. . ...
ROW 02 : ... .. . ... : ... .. . ... : ... .. . ... : ... .. . ... : ... .. . ... : ... .. . ... : ... .. . ...
ROW 03 : ... .. . ... : ... .. . ... : ... .. . ... : ... .. . ... : ... .. . ... : ... .. . ... : ... .. . ...
ROW 04 : ... .. . ... : ... .. . ... : ... .. . ... : ... .. . ... : ... .. . ... : ... .. . ... : ... .. . ...
ROW 05 : ... .. . ... : ... .. . ... : ... .. . ... : ... .. . ... : ... .. . ... : ... .. . ... : ... .. . ...
ROW 06 : F#4 01 F ... : F#4 01 F ... : ... .. . ... : ... .. . ... : ... .. . ... : F#4 01 F ... : ... .. . ...
ROW 07 : ... .. 6 ... : ... .. 6 ... : ... .. . ... : ... .. . ... : ... .. . ... : ... .. 6 ... : ... .. . ...
ROW 08 : F#4 01 F ... : F#4 01 F ... : ... .. . ... : ... .. . ... : ... .. . ... : F#4 01 F ... : ... .. . ...
ROW 09 : ... .. . ... : ... .. . ... : ... .. . ... : ... .. . ... : ... .. . ... : ... .. . ... : ... .. . ...
ROW 0A : G-4 01 . ... : G-4 01 . ... : ... .. . ... : ... .. . ... : ... .. . ... : G-4 01 . ... : ... .. . ...
ROW 0B : ... .. . ... : ... .. . ... : ... .. . ... : ... .. . ... : ... .. . ... : ... .. . ... : ... .. . ...
ROW 0C : F#4 01 . ... : F#4 01 . ... : ... .. . ... : ... .. . ... : ... .. . ... : F#4 01 . ... : ... .. . ...
ROW 0D : ... .. . ... : ... .. . ... : ... .. . ... : ... .. . ... : ... .. . ... : ... .. . ... : ... .. . ...
ROW 0E : E-4 01 . ... : E-4 01 . ... : ... .. . ... : ... .. . ... : ... .. . ... : E-4 01 . ... : ... .. . ...
ROW 0F : ... .. . ... : ... .. . ... : ... .. . ... : ... .. . ... : ... .. . ... : ... .. . ... : ... .. . ...
ROW 10 : D-4 01 F ... : D-4 01 F ... : ... .. . ... : ... .. . ... : ... .. . ... : D-4 01 F ... : ... .. . ...
ROW 11 : ... .. . ... : ... .. . ... : ... .. . ... : ... .. . ... : ... .. . ... : ... .. . ... : ... .. . ...
ROW 12 : ... .. . ... : ... .. . ... : ... .. . ... : ... .. . ... : ... .. . ... : ... .. . ... : ... .. . ...
ROW 13 : ... .. . ... : ... .. . ... : ... .. . ... : ... .. . ... : ... .. . ... : ... .. . ... : ... .. . ...
ROW 14 : ... .. . ... : ... .. . ... : ... .. . ... : ... .. . ... : ... .. . ... : ... .. . ... : ... .. . ...
ROW 15 : ... .. 6 ... : ... .. 6 ... : ... .. . ... : ... .. . ... : ... .. . ... : ... .. 6 ... : ... .. . ...
ROW 16 : D-4 01 F ... : D-4 01 F ... : ... .. . ... : ... .. . ... : ... .. . ... : D-4 01 F ... : ... .. . ...
ROW 17 : ... .. 6 ... : ... .. 6 ... : ... .. . ... : ... .. . ... : ... .. . ... : ... .. 6 ... : ... .. . ...
ROW 18 : D-4 01 F ... : D-4 01 F ... : ... .. . ... : ... .. . ... : ... .. . ... : D-4 01 F ... : ... .. . ...
ROW 19 : ... .. . ... : ... .. . ... : ... .. . ... : ... .. . ... : ... .. . ... : ... .. . ... : ... .. . ...
ROW 1A : E-4 01 . ... : E-4 01 . ... : ... .. . ... : ... .. . ... : ... .. . ... : E-4 01 . ... : ... .. . ...
ROW 1B : ... .. . ... : ... .. . ... : ... .. . ... : ... .. . ... : ... .. . ... : ... .. . ... : ... .. . ...
ROW 1C : D-4 01 . ... : D-4 01 . ... : ... .. . ... : ... .. . ... : ... .. . ... : D-4 01 . ... : ... .. . ...
ROW 1D : ... .. . ... : ... .. . ... : ... .. . ... : ... .. . ... : ... .. . ... : ... .. . ... : ... .. . ...
ROW 1E : C#4 01 . ... : C#4 01 . ... : ... .. . ... : ... .. . ... : ... .. . ... : C#4 01 . ... : ... .. . ...
ROW 1F : ... .. . ... : ... .. . ... : ... .. . ... : ... .. . ... : ... .. . ... : ... .. . ... : ... .. . ...
ROW 20 : B-3 01 . ... : B-3 01 . ... : ... .. . ... : ... .. . ... : ... .. . ... : B-3 01 . ... : ... .. . ...
ROW 21 : ... .. . ... : ... .. . ... : ... .. . ... : ... .. . ... : ... .. . ... : ... .. . ... : ... .. . ...
ROW 22 : ... .. . ... : ... .. . ... : ... .. . ... : ... .. . ... : ... .. . ... : ... .. . ... : ... .. . ...
ROW 23 : ... .. . ... : ... .. . ... : ... .. . ... : ... .. . ... : ... .. . ... : ... .. . ... : ... .. . ...
ROW 24 : ... .. . ... : ... .. . ... : ... .. . ... : ... .. . ... : ... .. . ... : ... .. . ... : ... .. . ...
ROW 25 : ... .. . ... : ... .. . ... : ... .. . ... : ... .. . ... : ... .. . ... : ... .. . ... : ... .. . ...
ROW 26 : ... .. . ... : ... .. . ... : ... .. . ... : ... .. . ... : ... .. . ... : ... .. . ... : ... .. . ...
ROW 27 : ... .. . ... : ... .. . ... : ... .. . ... : ... .. . ... : ... .. . ... : ... .. . ... : ... .. . ...
ROW 28 : D-4 01 F ... : D-4 01 F ... : ... .. . ... : ... .. . ... : ... .. . ... : D-4 01 F ... : ... .. . ...
ROW 29 : ... .. . ... : ... .. . ... : ... .. . ... : ... .. . ... : ... .. . ... : ... .. . ... : ... .. . ...
ROW 2A : ... .. . ... : ... .. . ... : ... .. . ... : ... .. . ... : ... .. . ... : ... .. . ... : ... .. . ...
ROW 2B : ... .. . ... : ... .. . ... : ... .. . ... : ... .. . ... : ... .. . ... : ... .. . ... : ... .. . ...
ROW 2C : ... .. . ... : ... .. . ... : ... .. . ... : ... .. . ... : ... .. . ... : ... .. . ... : ... .. . ...
ROW 2D : ... .. . ... : ... .. . ... : ... .. . ... : ... .. . ... : ... .. . ... : ... .. . ... : ... .. . ...
ROW 2E : ... .. . ... : ... .. . ... : ... .. . ... : ... .. . ... : ... .. . ... : ... .. . ... : ... .. . ...
ROW 2F : ... .. 6 ... : ... .. 6 ... : ... .. . ... : ... .. . ... : ... .. . ... : ... .. 6 ... : ... .. . ...
ROW 30 : D-4 01 F ... : D-4 01 F ... : ... .. . ... : ... .. . ... : ... .. . ... : D-4 01 F ... : ... .. . ...
ROW 31 : ... .. . ... : ... .. . ... : ... .. . ... : ... .. . ... : ... .. . ... : ... .. . ... : ... .. . ...
ROW 32 : C-4 01 . ... : C-4 01 . ... : ... .. . ... : ... .. . ... : ... .. . ... : C-4 01 . ... : ... .. . ...
ROW 33 : ... .. . ... : ... .. . ... : ... .. . ... : ... .. . ... : ... .. . ... : ... .. . ... : ... .. . ...
ROW 34 : B-3 01 . ... : B-3 01 . ... : ... .. . ... : ... .. . ... : ... .. . ... : B-3 01 . ... : ... .. . ...
ROW 35 : ... .. . ... : ... .. . ... : ... .. . ... : ... .. . ... : ... .. . ... : ... .. . ... : ... .. . ...
ROW 36 : C-4 01 . ... : C-4 01 . ... : ... .. . ... : ... .. . ... : ... .. . ... : C-4 01 . ... : ... .. . ...
ROW 37 : ... .. . ... : ... .. . ... : ... .. . ... : ... .. . ... : ... .. . ... : ... .. . ... : ... .. . ...
ROW 38 : A-3 01 F ... : A-3 01 F ... : ... .. . ... : ... .. . ... : ... .. . ... : A-3 01 F ... : ... .. . ...
ROW 39 : ... .. . ... : ... .. . ... : ... .. . ... : ... .. . ... : ... .. . ... : ... .. . ... : ... .. . ...
ROW 3A : ... .. . ... : ... .. . ... : ... .. . ... : ... .. . ... : ... .. . ... : ... .. . ... : ... .. . ...
ROW 3B : ... .. . ... : ... .. . ... : ... .. . ... : ... .. . ... : ... .. . ... : ... .. . ... : ... .. . ...
ROW 3C : ... .. . ... : ... .. . ... : ... .. . ... : ... .. . ... : ... .. . ... : ... .. . ... : ... .. . ...
ROW 3D : ... .. 6 ... : ... .. 6 ... : ... .. . ... : ... .. . ... : ... .. . ... : ... .. 6 ... : ... .. . ...
ROW 3E : A-3 01 F ... : A-3 01 F ... : ... .. . ... : ... .. . ... : ... .. . ... : A-3 01 F ... : ... .. . ...
ROW 3F : ... .. 6 ... : ... .. 6 ... : ... .. . ... : ... .. . ... : ... .. . ... : ... .. 6 ... : ... .. . ...

PATTERN 14
ROW 00 : A-3 01 F ... : A-3 01 F ... : ... .. . ... : ... .. . ... : ... .. . ... : A-3 01 F ... : ... .. . ...
ROW 01 : ... .. . ... : ... .. . ... : ... .. . ... : ... .. . ... : ... .. . ... : ... .. . ... : ... .. . ...
ROW 02 : ... .. . ... : ... .. . ... : ... .. . ... : ... .. . ... : ... .. . ... : ... .. . ... : ... .. . ...
ROW 03 : ... .. . ... : ... .. . ... : ... .. . ... : ... .. . ... : ... .. . ... : ... .. . ... : ... .. . ...
ROW 04 : ... .. . ... : ... .. . ... : ... .. . ... : ... .. . ... : ... .. . ... : ... .. . ... : ... .. . ...
ROW 05 : ... .. . ... : ... .. . ... : ... .. . ... : ... .. . ... : ... .. . ... : ... .. . ... : ... .. . ...
ROW 06 : A-4 01 F ... : A-4 01 F ... : ... .. . ... : ... .. . ... : ... .. . ... : A-4 01 F ... : ... .. . ...
ROW 07 : ... .. 6 ... : ... .. 6 ... : ... .. . ... : ... .. . ... : ... .. . ... : ... .. 6 ... : ... .. . ...
ROW 08 : A-4 01 F ... : A-4 01 F ... : ... .. . ... : ... .. . ... : ... .. . ... : A-4 01 F ... : ... .. . ...
ROW 09 : ... .. 6 ... : ... .. 6 ... : ... .. . ... : ... .. . ... : ... .. . ... : ... .. 6 ... : ... .. . ...
ROW 0A : B-4 01 . ... : B-4 01 . ... : ... .. . ... : ... .. . ... : ... .. . ... : B-4 01 . ... : ... .. . ...
ROW 0B : ... .. . ... : ... .. . ... : ... .. . ... : ... .. . ... : ... .. . ... : ... .. . ... : ... .. . ...
ROW 0C : A-4 01 . ... : A-4 01 . ... : ... .. . ... : ... .. . ... : ... .. . ... : A-4 01 . ... : ... .. . ...
ROW 0D : ... .. . ... : ... .. . ... : ... .. . ... : ... .. . ... : ... .. . ... : ... .. . ... : ... .. . ...
ROW 0E : G-4 01 . ... : G-4 01 . ... : ... .. . ... : ... .. . ... : ... .. . ... : G-4 01 . ... : ... .. . ...
ROW 0F : ... .. . ... : ... .. . ... : ... .. . ... : ... .. . ... : ... .. . ... : ... .. . ... : ... .. . ...
ROW 10 : F#4 01 F ... : F#4 01 F ... : ... .. . ... : ... .. . ... : ... .. . ... : F#4 01 F ... : ... .. . ...
ROW 11 : ... .. . ... : ... .. . ... : ... .. . ... : ... .. . ... : ... .. . ... : ... .. . ... : ... .. . ...
ROW 12 : ... .. . ... : ... .. . ... : ... .. . ... : ... .. . ... : ... .. . ... : ... .. . ... : ... .. . ...
ROW 13 : ... .. . ... : ... .. . ... : ... .. . ... : ... .. . ... : ... .. . ... : ... .. . ... : ... .. . ...
ROW 14 : ... .. . ... : ... .. . ... : ... .. . ... : ... .. . ... : ... .. . ... : ... .. . ... : ... .. . ...
ROW 15 : ... .. 6 ... : ... .. 6 ... : ... .. . ... : ... .. . ... : ... .. . ... : ... .. 6 ... : ... .. . ...
ROW 16 : F#4 01 F ... : F#4 01 F ... : ... .. . ... : ... .. . ... : ... .. . ... : F#4 01 F ... : ... .. . ...
ROW 17 : ... .. 6 ... : ... .. 6 ... : ... .. . ... : ... .. . ... : ... .. . ... : ... .. 6 ... : ... .. . ...
ROW 18 : F#4 01 F ... : F#4 01 F ... : ... .. . ... : ... .. . ... : ... .. . ... : F#4 01 F ... : ... .. . ...
ROW 19 : ... .. . ... : ... .. . ... : ... .. . ... : ... .. . ... : ... .. . ... : ... .. . ... : ... .. . ...
ROW 1A : G-4 01 . ... : G-4 01 . ... : ... .. . ... : ... .. . ... : ... .. . ... : G-4 01 . ... : ... .. . ...
ROW 1B : ... .. . ... : ... .. . ... : ... .. . ... : ... .. . ... : ... .. . ... : ... .. . ... : ... .. . ...
ROW 1C : F#4 01 . ... : F#4 01 . ... : ... .. . ... : ... .. . ... : ... .. . ... : F#4 01 . ... : ... .. . ...
ROW 1D : ... .. . ... : ... .. . ... : ... .. . ... : ... .. . ... : ... .. . ... : ... .. . ... : ... .. . ...
ROW 1E : E-4 01 . ... : E-4 01 . ... : ... .. . ... : ... .. . ... : ... .. . ... : E-4 01 . ... : ... .. . ...
ROW 1F : ... .. . ... : ... .. . ... : ... .. . ... : ... .. . ... : ... .. . ... : ... .. . ... : ... .. . ...
ROW 20 : D-4 01 . ... : D-4 01 . ... : ... .. . ... : ... .. . ... : ... .. . ... : D-4 01 . ... : ... .. . ...
ROW 21 : ... .. . ... : ... .. . ... : ... .. . ... : ... .. . ... : ... .. . ... : ... .. . ... : ... .. . ...
ROW 22 : C-4 01 . ... : C-4 01 . ... : ... .. . ... : ... .. . ... : ... .. . ... : C-4 01 . ... : ... .. . ...
ROW 23 : ... .. . ... : ... .. . ... : ... .. . ... : ... .. . ... : ... .. . ... : ... .. . ... : ... .. . ...
ROW 24 : B-3 01 . ... : B-3 01 . ... : ... .. . ... : ... .. . ... : ... .. . ... : B-3 01 . ... : ... .. . ...
ROW 25 : ... .. . ... : ... .. . ... : ... .. . ... : ... .. . ... : ... .. . ... : ... .. . ... : ... .. . ...
ROW 26 : C-4 01 . ... : C-4 01 . ... : ... .. . ... : ... .. . ... : ... .. . ... : C-4 01 . ... : ... .. . ...
ROW 27 : ... .. . ... : ... .. . ... : ... .. . ... : ... .. . ... : ... .. . ... : ... .. . ... : ... .. . ...
ROW 28 : A-3 01 F ... : A-3 01 F ... : ... .. . ... : ... .. . ... : ... .. . ... : A-3 01 F ... : ... .. . ...
ROW 29 : ... .. . ... : ... .. . ... : ... .. . ... : ... .. . ... : ... .. . ... : ... .. . ... : ... .. . ...
ROW 2A : ... .. . ... : ... .. . ... : ... .. . ... : ... .. . ... : ... .. . ... : ... .. . ... : ... .. . ...
ROW 2B : ... .. . ... : ... .. . ... : ... .. . ... : ... .. . ... : ... .. . ... : ... .. . ... : ... .. . ...
ROW 2C : ... .. . ... : ... .. . ... : ... .. . ... : ... .. . ... : ... .. . ... : ... .. . ... : ... .. . ...
ROW 2D : ... .. 6 ... : ... .. 6 ... : ... .. . ... : ... .. . ... : ... .. . ... : ... .. 6 ... : ... .. . ...
ROW 2E : A-3 01 F ... : A-3 01 F ... : ... .. . ... : ... .. . ... : ... .. . ... : A-3 01 F ... : ... .. . ...
ROW 2F : ... .. . ... : ... .. . ... : ... .. . ... : ... .. . ... : ... .. . ... : ... .. . ... : ... .. . ...
ROW 30 : G-3 01 . ... : G-3 01 . ... : ... .. . ... : ... .. . ... : ... .. . ... : G-3 01 . ... : ... .. . ...
ROW 31 : ... .. . ... : ... .. . ... : ... .. . ... : ... .. . ... : ... .. . ... : ... .. . ... : ... .. . ...
ROW 32 : ... .. . ... : ... .. . ... : ... .. . ... : ... .. . ... : ... .. . ... : ... .. . ... : ... .. . ...
ROW 33 : ... .. . ... : ... .. . ... : ... .. . ... : ... .. . ... : ... .. . ... : ... .. . ... : ... .. . ...
ROW 34 : D-4 01 . ... : D-4 01 . ... : ... .. . ... : ... .. . ... : ... .. . ... : D-4 01 . ... : ... .. . ...
ROW 35 : ... .. . ... : ... .. . ... : ... .. . ... : ... .. . ... : ... .. . ... : ... .. . ... : ... .. . ...
ROW 36 : ... .. . ... : ... .. . ... : ... .. . ... : ... .. . ... : ... .. . ... : ... .. . ... : ... .. . ...
ROW 37 : ... .. . ... : ... .. . ... : ... .. . ... : ... .. . ... : ... .. . ... : ... .. . ... : ... .. . ...
ROW 38 : C#4 01 F ... : C#4 01 F ... : ... .. . ... : ... .. . ... : ... .. . ... : C#4 01 F ... : ... .. . ...
ROW 39 : ... .. . ... : ... .. . ... : ... .. . ... : ... .. . ... : ... .. . ... : ... .. . ... : ... .. . ...
ROW 3A : ... .. . ... : ... .. . ... : ... .. . ... : ... .. . ... : ... .. . ... : ... .. . ... : ... .. . ...
ROW 3B : ... .. . ... : ... .. . ... : ... .. . ... : ... .. . ... : ... .. . ... : ... .. . ... : ... .. . ...
ROW 3C : ... .. . ... : ... .. . ... : ... .. . ... : ... .. . ... : ... .. . ... : ... .. . ... : ... .. . ...
ROW 3D : ... .. 6 ... : ... .. 6 ... : ... .. . ... : ... .. . ... : ... .. . ... : ... .. 6 ... : ... .. . ...
ROW 3E : C#4 01 F ... : C#4 01 F ... : ... .. . ... : ... .. . ... : ... .. . ... : C#4 01 F ... : ... .. . ...
ROW 3F : ... .. . ... : ... .. . ... : ... .. . ... : ... .. . ... : ... .. . ... : ... .. . ... : ... .. . ...

PATTERN 15
ROW 00 : D-4 01 F ... : D-4 01 F ... : ... .. . ... : ... .. . ... : ... .. . ... : D-4 01 F ... : ... .. . ...
ROW 01 : ... .. . ... : ... .. . ... : ... .. . ... : ... .. . ... : ... .. . ... : ... .. . ... : ... .. . ...
ROW 02 : ... .. . ... : ... .. . ... : ... .. . ... : ... .. . ... : ... .. . ... : ... .. . ... : ... .. . ...
ROW 03 : ... .. 6 ... : ... .. 6 ... : ... .. . ... : ... .. . ... : ... .. . ... : ... .. 6 ... : ... .. . ...
ROW 04 : D-4 01 F ... : D-4 01 F ... : ... .. . ... : ... .. . ... : ... .. . ... : D-4 01 F ... : ... .. . ...
ROW 05 : ... .. . ... : ... .. . ... : ... .. . ... : ... .. . ... : ... .. . ... : ... .. . ... : ... .. . ...
ROW 06 : ... .. . ... : ... .. . ... : ... .. . ... : ... .. . ... : ... .. . ... : ... .. . ... : ... .. . ...
ROW 07 : ... .. . ... : ... .. . ... : ... .. . ... : ... .. . ... : ... .. . ... : ... .. . ... : ... .. . ...
ROW 08 : ... .. . ... : ... .. . ... : ... .. . ... : ... .. . ... : ... .. . ... : ... .. . ... : ... .. . ...
ROW 09 : ... .. . ... : ... .. . ... : ... .. . ... : ... .. . ... : ... .. . ... : ... .. . ... : ... .. . ...
ROW 0A : ... .. . ... : ... .. . ... : ... .. . ... : ... .. . ... : ... .. . ... : ... .. . ... : ... .. . ...
ROW 0B : ... .. . ... : ... .. . ... : ... .. . ... : ... .. . ... : ... .. . ... : ... .. . ... : ... .. . ...
ROW 0C : C#4 01 . ... : C#4 01 . ... : ... .. . ... : ... .. . ... : ... .. . ... : C#4 01 . ... : ... .. . ...
ROW 0D : ... .. . ... : ... .. . ... : ... .. . ... : ... .. . ... : ... .. . ... : ... .. . ... : ... .. . ...
ROW 0E : ... .. . ... : ... .. . ... : ... .. . ... : ... .. . ... : ... .. . ... : ... .. . ... : ... .. . ...
ROW 0F : ... .. . ... : ... .. . ... : ... .. . ... : ... .. . ... : ... .. . ... : ... .. . ... : ... .. . ...
ROW 10 : ... .. . ... : ... .. . ... : ... .. . ... : ... .. . ... : ... .. . ... : ... .. . ... : ... .. . ...
ROW 11 : ... .. . ... : ... .. . ... : ... .. . ... : ... .. . ... : ... .. . ... : ... .. . ... : ... .. . ...
ROW 12 : ... .. . ... : ... .. . ... : ... .. . ... : ... .. . ... : ... .. . ... : ... .. . ... : ... .. . ...
ROW 13 : ... .. . ... : ... .. . ... : ... .. . ... : ... .. . ... : ... .. . ... : ... .. . ... : ... .. . ...
ROW 14 : A-3 01 . ... : A-3 01 . ... : ... .. . ... : ... .. . ... : ... .. . ... : A-3 01 . ... : ... .. . ...
ROW 15 : ... .. . ... : ... .. . ... : ... .. . ... : ... .. . ... : ... .. . ... : ... .. . ... : ... .. . ...
ROW 16 : ... .. . ... : ... .. . ... : ... .. . ... : ... .. . ... : ... .. . ... : ... .. . ... : ... .. . ...
ROW 17 : ... .. . ... : ... .. . ... : ... .. . ... : ... .. . ... : ... .. . ... : ... .. . ... : ... .. . ...
ROW 18 : ... .. . ... : ... .. . ... : ... .. . ... : ... .. . ... : ... .. . ... : ... .. . ... : ... .. . ...
ROW 19 : ... .. . ... : ... .. . ... : ... .. . ... : ... .. . ... : ... .. . ... : ... .. . ... : ... .. . ...
ROW 1A : ... .. . ... : ... .. . ... : ... .. . ... : ... .. . ... : ... .. . ... : ... .. . ... : ... .. . ...
ROW 1B : ... .. . ... : ... .. . ... : ... .. . ... : ... .. . ... : ... .. . ... : ... .. . ... : ... .. . ...
ROW 1C : A-3 01 . ... : A-3 01 . ... : ... .. . ... : ... .. . ... : ... .. . ... : A-3 01 . ... : ... .. . ...
ROW 1D : ... .. . ... : ... .. . ... : ... .. . ... : ... .. . ... : ... .. . ... : ... .. . ... : ... .. . ...
ROW 1E : ... .. . ... : ... .. . ... : ... .. . ... : ... .. . ... : ... .. . ... : ... .. . ... : ... .. . ...
ROW 1F : ... .. . ... : ... .. . ... : ... .. . ... : ... .. . ... : ... .. . ... : ... .. . ... : ... .. . ...
ROW 20 : ... .. . ... : ... .. . ... : ... .. . ... : ... .. . ... : ... .. . ... : ... .. . ... : ... .. . ...
ROW 21 : ... .. . ... : ... .. . ... : ... .. . ... : ... .. . ... : ... .. . ... : ... .. . ... : ... .. . ...
ROW 22 : ... .. . ... : ... .. . ... : ... .. . ... : ... .. . ... : ... .. . ... : ... .. . ... : ... .. . ...
ROW 23 : ... .. . ... : ... .. . ... : ... .. . ... : ... .. . ... : ... .. . ... : ... .. . ... : ... .. . ...
ROW 24 : G-3 01 . ... : G-3 01 . ... : ... .. . ... : ... .. . ... : ... .. . ... : G-3 01 . ... : ... .. . ...
ROW 25 : ... .. . ... : ... .. . ... : ... .. . ... : ... .. . ... : ... .. . ... : ... .. . ... : ... .. . ...
ROW 26 : ... .. . ... : ... .. . ... : ... .. . ... : ... .. . ... : ... .. . ... : ... .. . ... : ... .. . ...
ROW 27 : ... .. . ... : ... .. . ... : ... .. . ... : ... .. . ... : ... .. . ... : ... .. . ... : ... .. . ...
ROW 28 : ... .. . ... : ... .. . ... : ... .. . ... : ... .. . ... : ... .. . ... : ... .. . ... : ... .. . ...
ROW 29 : ... .. . ... : ... .. . ... : ... .. . ... : ... .. . ... : ... .. . ... : ... .. . ... : ... .. . ...
ROW 2A : ... .. . ... : ... .. . ... : ... .. . ... : ... .. . ... : ... .. . ... : ... .. . ... : ... .. . ...
ROW 2B : ... .. . ... : ... .. . ... : ... .. . ... : ... .. . ... : ... .. . ... : ... .. . ... : ... .. . ...
ROW 2C : F#3 01 . ... : F#3 01 . ... : ... .. . ... : ... .. . ... : ... .. . ... : F#3 01 . ... : ... .. . ...
ROW 2D : ... .. . ... : ... .. . ... : ... .. . ... : ... .. . ... : ... .. . ... : ... .. . ... : ... .. . ...
ROW 2E : ... .. . ... : ... .. . ... : ... .. . ... : ... .. . ... : ... .. . ... : ... .. . ... : ... .. . ...
ROW 2F : ... .. . ... : ... .. . ... : ... .. . ... : ... .. . ... : ... .. . ... : ... .. . ... : ... .. . ...
ROW 30 : ... .. . ... : ... .. . ... : ... .. . ... : ... .. . ... : ... .. . ... : ... .. . ... : ... .. . ...
ROW 31 : ... .. . ... : ... .. . ... : ... .. . ... : ... .. . ... : ... .. . ... : ... .. . ... : ... .. . ...
ROW 32 : ... .. . ... : ... .. . ... : ... .. . ... : ... .. . ... : ... .. . ... : ... .. . ... : ... .. . ...
ROW 33 : ... .. . ... : ... .. . ... : ... .. . ... : ... .. . ... : ... .. . ... : ... .. . ... : ... .. . ...
ROW 34 : ... .. . ... : ... .. . ... : ... .. . ... : ... .. . ... : ... .. . ... : ... .. . ... : ... .. . ...
ROW 35 : ... .. . ... : ... .. . ... : ... .. . ... : ... .. . ... : ... .. . ... : ... .. . ... : ... .. . ...
ROW 36 : E-3 01 F ... : E-3 01 F ... : ... .. . ... : ... .. . ... : ... .. . ... : E-3 01 F ... : ... .. . ...
ROW 37 : ... .. 6 ... : ... .. 6 ... : ... .. . ... : ... .. . ... : ... .. . ... : ... .. 6 ... : ... .. . ...
ROW 38 : E-3 01 F ... : E-3 01 F ... : ... .. . ... : ... .. . ... : ... .. . ... : E-3 01 F ... : ... .. . ...
ROW 39 : ... .. . ... : ... .. . ... : ... .. . ... : ... .. . ... : ... .. . ... : ... .. . ... : ... .. . ...
ROW 3A : ... .. . ... : ... .. . ... : ... .. . ... : ... .. . ... : ... .. . ... : ... .. . ... : ... .. . ...
ROW 3B : ... .. . ... : ... .. . ... : ... .. . ... : ... .. . ... : ... .. . ... : ... .. . ... : ... .. . ...
ROW 3C : ... .. . ... : ... .. . ... : ... .. . ... : ... .. . ... : ... .. . ... : ... .. . ... : ... .. . ...
ROW 3D : ... .. . ... : ... .. . ... : ... .. . ... : ... .. . ... : ... .. . ... : ... .. . ... : ... .. . ...
ROW 3E : ... .. . ... : ... .. . ... : ... .. . ... : ... .. . ... : ... .. . ... : ... .. . ... : ... .. . ...
ROW 3F : ... .. . ... : ... .. . ... : ... .. . ... : ... .. . ... : ... .. . ... : ... .. . ... : ... .. . ...

PATTERN 16
ROW 00 : F#3 01 . ... : F#3 01 . ... : ... .. . ... : ... .. . ... : ... .. . ... : F#3 01 . ... : ... .. . ...
ROW 01 : ... .. . ... : ... .. . ... : ... .. . ... : ... .. . ... : ... .. . ... : ... .. . ... : ... .. . ...
ROW 02 : ... .. . ... : ... .. . ... : ... .. . ... : ... .. . ... : ... .. . ... : ... .. . ... : ... .. . ...
ROW 03 : ... .. . ... : ... .. . ... : ... .. . ... : ... .. . ... : ... .. . ... : ... .. . ... : ... .. . ...
ROW 04 : F#4 01 . ... : F#4 01 . ... : ... .. . ... : ... .. . ... : ... .. . ... : F#4 01 . ... : ... .. . ...
ROW 05 : ... .. . ... : ... .. . ... : ... .. . ... : ... .. . ... : ... .. . ... : ... .. . ... : ... .. . ...
ROW 06 : ... .. . ... : ... .. . ... : ... .. . ... : ... .. . ... : ... .. . ... : ... .. . ... : ... .. . ...
ROW 07 : ... .. . ... : ... .. . ... : ... .. . ... : ... .. . ... : ... .. . ... : ... .. . ... : ... .. . ...
ROW 08 : ... .. . ... : ... .. . ... : ... .. . ... : ... .. . ... : ... .. . ... : ... .. . ... : ... .. . ...
ROW 09 : ... .. . ... : ... .. . ... : ... .. . ... : ... .. . ... : ... .. . ... : ... .. . ... : ... .. . ...
ROW 0A : ... .. . ... : ... .. . ... : ... .. . ... : ... .. . ... : ... .. . ... : ... .. . ... : ... .. . ...
ROW 0B : ... .. . ... : ... .. . ... : ... .. . ... : ... .. . ... : ... .. . ... : ... .. . ... : ... .. . ...
ROW 0C : E-4 01 . ... : E-4 01 . ... : ... .. . ... : ... .. . ... : ... .. . ... : E-4 01 . ... : ... .. . ...
ROW 0D : ... .. . ... : ... .. . ... : ... .. . ... : ... .. . ... : ... .. . ... : ... .. . ... : ... .. . ...
ROW 0E : ... .. . ... : ... .. . ... : ... .. . ... : ... .. . ... : ... .. . ... : ... .. . ... : ... .. . ...
ROW 0F : ... .. . ... : ... .. . ... : ... .. . ... : ... .. . ... : ... .. . ... : ... .. . ... : ... .. . ...
ROW 10 : D-4 01 . ... : D-4 01 . ... : ... .. . ... : ... .. . ... : ... .. . ... : D-4 01 . ... : ... .. . ...
ROW 11 : ... .. . ... : ... .. . ... : ... .. . ... : ... .. . ... : ... .. . ... : ... .. . ... : ... .. . ...
ROW 12 : ... .. . ... : ... .. . ... : ... .. . ... : ... .. . ... : ... .. . ... : ... .. . ... : ... .. . ...
ROW 13 : ... .. . ... : ... .. . ... : ... .. . ... : ... .. . ... : ... .. . ... : ... .. . ... : ... .. . ...
ROW 14 : D-5 01 . ... : D-5 01 . ... : ... .. . ... : ... .. . ... : ... .. . ... : D-5 01 . ... : ... .. . ...
ROW 15 : ... .. . ... : ... .. . ... : ... .. . ... : ... .. . ... : ... .. . ... : ... .. . ... : ... .. . ...
ROW 16 : ... .. . ... : ... .. . ... : ... .. . ... : ... .. . ... : ... .. . ... : ... .. . ... : ... .. . ...
ROW 17 : ... .. . ... : ... .. . ... : ... .. . ... : ... .. . ... : ... .. . ... : ... .. . ... : ... .. . ...
ROW 18 : ... .. . ... : ... .. . ... : ... .. . ... : ... .. . ... : ... .. . ... : ... .. . ... : ... .. . ...
ROW 19 : ... .. . ... : ... .. . ... : ... .. . ... : ... .. . ... : ... .. . ... : ... .. . ... : ... .. . ...
ROW 1A : ... .. . ... : ... .. . ... : ... .. . ... : ... .. . ... : ... .. . ... : ... .. . ... : ... .. . ...
ROW 1B : ... .. . ... : ... .. . ... : ... .. . ... : ... .. . ... : ... .. . ... : ... .. . ... : ... .. . ...
ROW 1C : C-5 01 . ... : C-5 01 . ... : ... .. . ... : ... .. . ... : ... .. . ... : C-5 01 . ... : ... .. . ...
ROW 1D : ... .. . ... : ... .. . ... : ... .. . ... : ... .. . ... : ... .. . ... : ... .. . ... : ... .. . ...
ROW 1E : ... .. . ... : ... .. . ... : ... .. . ... : ... .. . ... : ... .. . ... : ... .. . ... : ... .. . ...
ROW 1F : ... .. . ... : ... .. . ... : ... .. . ... : ... .. . ... : ... .. . ... : ... .. . ... : ... .. . ...
ROW 20 : B-4 01 . ... : B-4 01 . ... : ... .. . ... : ... .. . ... : ... .. . ... : B-4 01 . ... : ... .. . ...
ROW 21 : ... .. . ... : ... .. . ... : ... .. . ... : ... .. . ... : ... .. . ... : ... .. . ... : ... .. . ...
ROW 22 : ... .. . ... : ... .. . ... : ... .. . ... : ... .. . ... : ... .. . ... : ... .. . ... : ... .. . ...
ROW 23 : ... .. . ... : ... .. . ... : ... .. . ... : ... .. . ... : ... .. . ... : ... .. . ... : ... .. . ...
ROW 24 : ... .. . ... : ... .. . ... : ... .. . ... : ... .. . ... : ... .. . ... : ... .. . ... : ... .. . ...
ROW 25 : ... .. . ... : ... .. . ... : ... .. . ... : ... .. . ... : ... .. . ... : ... .. . ... : ... .. . ...
ROW 26 : ... .. . ... : ... .. . ... : ... .. . ... : ... .. . ... : ... .. . ... : ... .. . ... : ... .. . ...
ROW 27 : ... .. . ... : ... .. . ... : ... .. . ... : ... .. . ... : ... .. . ... : ... .. . ... : ... .. . ...
ROW 28 : D-5 01 . ... : D-5 01 . ... : ... .. . ... : ... .. . ... : ... .. . ... : D-5 01 . ... : ... .. . ...
ROW 29 : ... .. . ... : ... .. . ... : ... .. . ... : ... .. . ... : ... .. . ... : ... .. . ... : ... .. . ...
ROW 2A : ... .. . ... : ... .. . ... : ... .. . ... : ... .. . ... : ... .. . ... : ... .. . ... : ... .. . ...
ROW 2B : ... .. . ... : ... .. . ... : ... .. . ... : ... .. . ... : ... .. . ... : ... .. . ... : ... .. . ...
ROW 2C : A-4 01 . ... : A-4 01 . ... : ... .. . ... : ... .. . ... : ... .. . ... : A-4 01 . ... : ... .. . ...
ROW 2D : ... .. . ... : ... .. . ... : ... .. . ... : ... .. . ... : ... .. . ... : ... .. . ... : ... .. . ...
ROW 2E : ... .. . ... : ... .. . ... : ... .. . ... : ... .. . ... : ... .. . ... : ... .. . ... : ... .. . ...
ROW 2F : ... .. . ... : ... .. . ... : ... .. . ... : ... .. . ... : ... .. . ... : ... .. . ... : ... .. . ...
ROW 30 : B-4 01 . ... : B-4 01 . ... : ... .. . ... : ... .. . ... : ... .. . ... : B-4 01 . ... : ... .. . ...
ROW 31 : ... .. . ... : ... .. . ... : ... .. . ... : ... .. . ... : ... .. . ... : ... .. . ... : ... .. . ...
ROW 32 : ... .. . ... : ... .. . ... : ... .. . ... : ... .. . ... : ... .. . ... : ... .. . ... : ... .. . ...
ROW 33 : ... .. . ... : ... .. . ... : ... .. . ... : ... .. . ... : ... .. . ... : ... .. . ... : ... .. . ...
ROW 34 : ... .. . ... : ... .. . ... : ... .. . ... : ... .. . ... : ... .. . ... : ... .. . ... : ... .. . ...
ROW 35 : ... .. . ... : ... .. . ... : ... .. . ... : ... .. . ... : ... .. . ... : ... .. . ... : ... .. . ...
ROW 36 : ... .. . ... : ... .. . ... : ... .. . ... : ... .. . ... : ... .. . ... : ... .. . ... : ... .. . ...
ROW 37 : ... .. . ... : ... .. . ... : ... .. . ... : ... .. . ... : ... .. . ... : ... .. . ... : ... .. . ...
ROW 38 : A-4 01 F ... : A-4 01 F ... : ... .. . ... : ... .. . ... : ... .. . ... : A-4 01 F ... : ... .. . ...
ROW 39 : ... .. . ... : ... .. . ... : ... .. . ... : ... .. . ... : ... .. . ... : ... .. . ... : ... .. . ...
ROW 3A : ... .. . ... : ... .. . ... : ... .. . ... : ... .. . ... : ... .. . ... : ... .. . ... : ... .. . ...
ROW 3B : ... .. . ... : ... .. . ... : ... .. . ... : ... .. . ... : ... .. . ... : ... .. . ... : ... .. . ...
ROW 3C : ... .. . ... : ... .. . ... : ... .. . ... : ... .. . ... : ... .. . ... : ... .. . ... : ... .. . ...
ROW 3D : ... .. . ... : ... .. . ... : ... .. . ... : ... .. . ... : ... .. . ... : ... .. . ... : ... .. . ...
ROW 3E : ... .. . ... : ... .. . ... : ... .. . ... : ... .. . ... : ... .. . ... : ... .. . ... : ... .. . ...
ROW 3F : ... .. 6 ... : ... .. 6 ... : ... .. . ... : ... .. . ... : ... .. . ... : ... .. . ... : ... .. . ...

PATTERN 17
ROW 00 : A-4 01 F ... : A-4 01 F ... : ... .. . ... : ... .. . ... : ... .. . ... : A-4 01 F F09 : ... .. . ...
ROW 01 : ... .. . ... : ... .. . ... : ... .. . ... : ... .. . ... : ... .. . ... : ... .. . ... : ... .. . ...
ROW 02 : ... .. . ... : ... .. . ... : ... .. . ... : ... .. . ... : ... .. . ... : ... .. . ... : ... .. . ...
ROW 03 : ... .. . ... : ... .. . ... : ... .. . ... : ... .. . ... : ... .. . ... : ... .. . ... : ... .. . ...
ROW 04 : ... .. . ... : ... .. . ... : ... .. . ... : ... .. . ... : ... .. . ... : ... .. . ... : ... .. . ...
ROW 05 : ... .. . ... : ... .. . ... : ... .. . ... : ... .. . ... : ... .. . ... : ... .. . ... : ... .. . ...
ROW 06 : ... .. . ... : ... .. . ... : ... .. . ... : ... .. . ... : ... .. . ... : ... .. . ... : ... .. . ...
ROW 07 : ... .. . ... : ... .. . ... : ... .. . ... : ... .. . ... : ... .. . ... : ... .. . ... : ... .. . ...
ROW 08 : A-3 01 . ... : A-3 01 . ... : ... .. . ... : ... .. . ... : ... .. . ... : A-3 01 . ... : ... .. . ...
ROW 09 : ... .. . ... : ... .. . ... : ... .. . ... : ... .. . ... : ... .. . ... : ... .. . ... : ... .. . ...
ROW 0A : ... .. . ... : ... .. . ... : ... .. . ... : ... .. . ... : ... .. . ... : ... .. . ... : ... .. . ...
ROW 0B : ... .. . ... : ... .. . ... : ... .. . ... : ... .. . ... : ... .. . ... : ... .. . ... : ... .. . ...
ROW 0C : ... .. . ... : ... .. . ... : ... .. . ... : ... .. . ... : ... .. . ... : ... .. . ... : ... .. . ...
ROW 0D : ... .. . ... : ... .. . ... : ... .. . ... : ... .. . ... : ... .. . ... : ... .. . ... : ... .. . ...
ROW 0E : G-3 01 . ... : G-3 01 . ... : ... .. . ... : ... .. . ... : ... .. . ... : G-3 01 . ... : ... .. . ...
ROW 0F : ... .. . ... : ... .. . ... : ... .. . ... : ... .. . ... : ... .. . ... : ... .. . ... : ... .. . ...
ROW 10 : F#3 01 . ... : F#3 01 . ... : ... .. . ... : ... .. . ... : ... .. . ... : F#3 01 . ... : ... .. . ...
ROW 11 : ... .. . ... : ... .. . ... : ... .. . ... : ... .. . ... : ... .. . ... : ... .. . ... : ... .. . ...
ROW 12 : ... .. . ... : ... .. . ... : ... .. . ... : ... .. . ... : ... .. . ... : ... .. . ... : ... .. . ...
ROW 13 : ... .. . ... : ... .. . ... : ... .. . ... : ... .. . ... : ... .. . ... : ... .. . ... : ... .. . ...
ROW 14 : ... .. . ... : ... .. . ... : ... .. . ... : ... .. . ... : ... .. . ... : ... .. . ... : ... .. . ...
ROW 15 : ... .. . ... : ... .. . ... : ... .. . ... : ... .. . ... : ... .. . ... : ... .. . ... : ... .. . ...
ROW 16 : ... .. . ... : ... .. . ... : ... .. . ... : ... .. . ... : ... .. . ... : ... .. . ... : ... .. . ...
ROW 17 : ... .. . ... : ... .. . ... : ... .. . ... : ... .. . ... : ... .. . ... : ... .. . ... : ... .. . ...
ROW 18 : F#4 01 . ... : F#4 01 . ... : ... .. . ... : ... .. . ... : ... .. . ... : F#4 01 . ... : ... .. . ...
ROW 19 : ... .. . ... : ... .. . ... : ... .. . ... : ... .. . ... : ... .. . ... : ... .. . ... : ... .. . ...
ROW 1A : ... .. . ... : ... .. . ... : ... .. . ... : ... .. . ... : ... .. . ... : ... .. . ... : ... .. . ...
ROW 1B : ... .. . ... : ... .. . ... : ... .. . ... : ... .. . ... : ... .. . ... : ... .. . ... : ... .. . ...
ROW 1C : ... .. . ... : ... .. . ... : ... .. . ... : ... .. . ... : ... .. . ... : ... .. . ... : ... .. . ...
ROW 1D : ... .. . ... : ... .. . ... : ... .. . ... : ... .. . ... : ... .. . ... : ... .. . ... : ... .. . ...
ROW 1E : E-4 01 . ... : E-4 01 . ... : ... .. . ... : ... .. . ... : ... .. . ... : E-4 01 . ... : ... .. . ...
ROW 1F : ... .. . ... : ... .. . ... : ... .. . ... : ... .. . ... : ... .. . ... : ... .. . ... : ... .. . ...
ROW 20 : D-4 01 F ... : D-4 01 F ... : ... .. . ... : ... .. . ... : ... .. . ... : D-4 01 F F10 : ... .. . ...
ROW 21 : ... .. . ... : ... .. . ... : ... .. . ... : ... .. . ... : ... .. . ... : ... .. . ... : ... .. . ...
ROW 22 : ... .. . ... : ... .. . ... : ... .. . ... : ... .. . ... : ... .. . ... : ... .. . ... : ... .. . ...
ROW 23 : ... .. . ... : ... .. . ... : ... .. . ... : ... .. . ... : ... .. . ... : ... .. . ... : ... .. . ...
ROW 24 : ... .. . ... : ... .. . ... : ... .. . ... : ... .. . ... : ... .. . ... : ... .. . ... : ... .. . ...
ROW 25 : ... .. . ... : ... .. . ... : ... .. . ... : ... .. . ... : ... .. . ... : ... .. . ... : ... .. . ...
ROW 26 : ... .. . ... : ... .. . ... : ... .. . ... : ... .. . ... : ... .. . ... : ... .. . ... : ... .. . ...
ROW 27 : ... .. . ... : ... .. . ... : ... .. . ... : ... .. . ... : ... .. . ... : ... .. . ... : ... .. . ...
ROW 28 : ... .. . ... : ... .. . ... : ... .. . ... : ... .. . ... : ... .. . ... : ... .. . ... : ... .. . ...
ROW 29 : ... .. . ... : ... .. . ... : ... .. . ... : ... .. . ... : ... .. . ... : ... .. . ... : ... .. . ...
ROW 2A : ... .. . ... : ... .. . ... : ... .. . ... : ... .. . ... : ... .. . ... : ... .. . ... : ... .. . ...
ROW 2B : ... .. 6 ... : ... .. 6 ... : ... .. . ... : ... .. . ... : ... .. . ... : ... .. 6 ... : ... .. . ...
ROW 2C : D-4 01 F ... : D-4 01 F ... : ... .. . ... : ... .. . ... : ... .. . ... : D-4 01 F ... : ... .. . ...
ROW 2D : ... .. . ... : ... .. . ... : ... .. . ... : ... .. . ... : ... .. . ... : ... .. . ... : ... .. . ...
ROW 2E : ... .. . ... : ... .. . ... : ... .. . ... : ... .. . ... : ... .. . ... : ... .. . ... : ... .. . ...
ROW 2F : ... .. 6 ... : ... .. 6 ... : ... .. . ... : ... .. . ... : ... .. . ... : ... .. 6 ... : ... .. . ...
ROW 30 : D-4 01 F ... : D-4 01 F ... : ... .. . ... : ... .. . ... : ... .. . ... : D-4 01 F ... : ... .. . ...
ROW 31 : ... .. . ... : ... .. . ... : ... .. . ... : ... .. . ... : ... .. . ... : ... .. . ... : ... .. . ...
ROW 32 : ... .. . ... : ... .. . ... : ... .. . ... : ... .. . ... : ... .. . ... : ... .. . ... : ... .. . ...
ROW 33 : ... .. . ... : ... .. . ... : ... .. . ... : ... .. . ... : ... .. . ... : ... .. . ... : ... .. . ...
ROW 34 : ... .. . ... : ... .. . ... : ... .. . ... : ... .. . ... : ... .. . ... : ... .. . ... : ... .. . ...
ROW 35 : ... .. . ... : ... .. . ... : ... .. . ... : ... .. . ... : ... .. . ... : ... .. . ... : ... .. . ...
ROW 36 : ... .. . ... : ... .. . ... : ... .. . ... : ... .. . ... : ... .. . ... : ... .. . ... : ... .. . ...
ROW 37 : ... .. . ... : ... .. . ... : ... .. . ... : ... .. . ... : ... .. . ... : ... .. . ... : ... .. . ...
ROW 38 : C#4 01 . ... : C#4 01 . ... : ... .. . ... : ... .. . ... : ... .. . ... : C#4 01 . ... : ... .. . ...
ROW 39 : ... .. . ... : ... .. . ... : ... .. . ... : ... .. . ... : ... .. . ... : ... .. . ... : ... .. . ...
ROW 3A : ... .. . ... : ... .. . ... : ... .. . ... : ... .. . ... : ... .. . ... : ... .. . ... : ... .. . ...
ROW 3B : ... .. . ... : ... .. . ... : ... .. . ... : ... .. . ... : ... .. . ... : ... .. . ... : ... .. . ...
ROW 3C : ... .. . ... : ... .. . ... : ... .. . ... : ... .. . ... : ... .. . ... : ... .. . ... : ... .. . ...
ROW 3D : ... .. . ... : ... .. . ... : ... .. . ... : ... .. . ... : ... .. . ... : ... .. . ... : ... .. . ...
ROW 3E : ... .. . ... : ... .. . ... : ... .. . ... : ... .. . ... : ... .. . ... : ... .. . ... : ... .. . ...
ROW 3F : ... .. . ... : ... .. . ... : ... .. . ... : ... .. . ... : ... .. . ... : ... .. . ... : ... .. . ...

PATTERN 18
ROW 00 : D-4 01 . ... : D-4 01 . ... : ... .. . ... : ... .. . ... : ... .. . ... : D-4 01 . F12 : ... .. . ...
ROW 01 : ... .. . ... : ... .. . ... : ... .. . ... : ... .. . ... : ... .. . ... : ... .. . ... : ... .. . ...
ROW 02 : ... .. . ... : ... .. . ... : ... .. . ... : ... .. . ... : ... .. . ... : ... .. . ... : ... .. . ...
ROW 03 : ... .. . ... : ... .. . ... : ... .. . ... : ... .. . ... : ... .. . ... : ... .. . ... : ... .. . ...
ROW 04 : D-3 01 . ... : D-3 01 . ... : ... .. . ... : ... .. . ... : ... .. . ... : ... .. . ... : ... .. . ...
ROW 05 : ... .. . ... : ... .. . ... : ... .. . ... : ... .. . ... : ... .. . ... : ... .. . ... : ... .. . ...
ROW 06 : ... .. . ... : ... .. . ... : ... .. . ... : ... .. . ... : ... .. . ... : ... .. . ... : ... .. . ...
ROW 07 : ... .. . ... : ... .. . ... : ... .. . ... : ... .. . ... : ... .. . ... : ... .. . ... : ... .. . ...
ROW 08 : C#3 01 . ... : C#3 01 . ... : ... .. . ... : ... .. . ... : ... .. . ... : ... .. . F08 : ... .. . ...
ROW 09 : ... .. . ... : ... .. . ... : ... .. . ... : ... .. . ... : ... .. . ... : ... .. . ... : ... .. . ...
ROW 0A : ... .. . ... : ... .. . ... : ... .. . ... : ... .. . ... : ... .. . ... : ... .. . ... : ... .. . ...
ROW 0B : ... .. . ... : ... .. . ... : ... .. . ... : ... .. . ... : ... .. . ... : ... .. . ... : ... .. . ...
ROW 0C : C#4 01 . ... : C#4 01 . ... : ... .. . ... : ... .. . ... : ... .. . ... : ... .. . ... : ... .. . ...
ROW 0D : ... .. . ... : ... .. . ... : ... .. . ... : ... .. . ... : ... .. . ... : ... .. . ... : ... .. . ...
ROW 0E : ... .. . ... : ... .. . ... : ... .. . ... : ... .. . ... : ... .. . ... : ... .. . ... : ... .. . ...
ROW 0F : ... .. . ... : ... .. . ... : ... .. . ... : ... .. . ... : ... .. . ... : ... .. . ... : ... .. . ...
ROW 10 : B-3 01 . ... : B-3 01 . ... : ... .. . ... : ... .. . ... : ... .. . ... : ... .. . ... : ... .. . ...
ROW 11 : ... .. . ... : ... .. . ... : ... .. . ... : ... .. . ... : ... .. . ... : ... .. . ... : ... .. . ...
ROW 12 : ... .. . ... : ... .. . ... : ... .. . ... : ... .. . ... : ... .. . ... : ... .. . ... : ... .. . ...
ROW 13 : ... .. . ... : ... .. . ... : ... .. . ... : ... .. . ... : ... .. . ... : ... .. . ... : ... .. . ...
ROW 14 : B-2 01 . ... : B-2 01 . ... : ... .. . ... : ... .. . ... : ... .. . ... : ... .. . ... : ... .. . ...
ROW 15 : ... .. . ... : ... .. . ... : ... .. . ... : ... .. . ... : ... .. . ... : ... .. . ... : ... .. . ...
ROW 16 : ... .. . ... : ... .. . ... : ... .. . ... : ... .. . ... : ... .. . ... : ... .. . ... : ... .. . ...
ROW 17 : ... .. . ... : ... .. . ... : ... .. . ... : ... .. . ... : ... .. . ... : ... .. . ... : ... .. . ...
ROW 18 : A-2 01 . ... : A-2 01 . ... : ... .. . ... : ... .. . ... : ... .. . ... : ... .. . ... : ... .. . ...
ROW 19 : ... .. . ... : ... .. . ... : ... .. . ... : ... .. . ... : ... .. . ... : ... .. . ... : ... .. . ...
ROW 1A : ... .. . ... : ... .. . ... : ... .. . ... : ... .. . ... : ... .. . ... : ... .. . ... : ... .. . ...
ROW 1B : ... .. . ... : ... .. . ... : ... .. . ... : ... .. . ... : ... .. . ... : ... .. . ... : ... .. . ...
ROW 1C : A-3 01 . ... : A-3 01 . ... : ... .. . ... : ... .. . ... : ... .. . ... : ... .. . ... : ... .. . ...
ROW 1D : ... .. . ... : ... .. . ... : ... .. . ... : ... .. . ... : ... .. . ... : ... .. . ... : ... .. . ...
ROW 1E : ... .. . ... : ... .. . ... : ... .. . ... : ... .. . ... : ... .. . ... : ... .. . ... : ... .. . ...
ROW 1F : ... .. . ... : ... .. . ... : ... .. . ... : ... .. . ... : ... .. . ... : ... .. . ... : ... .. . ...
ROW 20 : G-3 01 . ... : G-3 01 . ... : ... .. . ... : ... .. . ... : ... .. . ... : ... .. . ... : ... .. . ...
ROW 21 : ... .. . ... : ... .. . ... : ... .. . ... : ... .. . ... : ... .. . ... : ... .. . ... : ... .. . ...
ROW 22 : ... .. . ... : ... .. . ... : ... .. . ... : ... .. . ... : ... .. . ... : ... .. . ... : ... .. . ...
ROW 23 : ... .. . ... : ... .. . ... : ... .. . ... : ... .. . ... : ... .. . ... : ... .. . ... : ... .. . ...
ROW 24 : G-4 01 . ... : G-4 01 . ... : ... .. . ... : ... .. . ... : ... .. . ... : ... .. . ... : ... .. . ...
ROW 25 : ... .. . ... : ... .. . ... : ... .. . ... : ... .. . ... : ... .. . ... : ... .. . ... : ... .. . ...
ROW 26 : ... .. . ... : ... .. . ... : ... .. . ... : ... .. . ... : ... .. . ... : ... .. . ... : ... .. . ...
ROW 27 : ... .. . ... : ... .. . ... : ... .. . ... : ... .. . ... : ... .. . ... : ... .. . ... : ... .. . ...
ROW 28 : F#4 01 . ... : F#4 01 . ... : ... .. . ... : ... .. . ... : ... .. . ... : ... .. . ... : ... .. . ...
ROW 29 : ... .. . ... : ... .. . ... : ... .. . ... : ... .. . ... : ... .. . ... : ... .. . ... : ... .. . ...
ROW 2A : ... .. . ... : ... .. . ... : ... .. . ... : ... .. . ... : ... .. . ... : ... .. . ... : ... .. . ...
ROW 2B : ... .. . ... : ... .. . ... : ... .. . ... : ... .. . ... : ... .. . ... : ... .. . ... : ... .. . ...
ROW 2C : F#3 01 . ... : F#3 01 . ... : ... .. . ... : ... .. . ... : ... .. . ... : ... .. . ... : ... .. . ...
ROW 2D : ... .. . ... : ... .. . ... : ... .. . ... : ... .. . ... : ... .. . ... : ... .. . ... : ... .. . ...
ROW 2E : ... .. . ... : ... .. . ... : ... .. . ... : ... .. . ... : ... .. . ... : ... .. . ... : ... .. . ...
ROW 2F : ... .. . ... : ... .. . ... : ... .. . ... : ... .. . ... : ... .. . ... : ... .. . ... : ... .. . ...
ROW 30 : E-3 01 . ... : E-3 01 . ... : ... .. . ... : ... .. . ... : ... .. . ... : ... .. . ... : ... .. . ...
ROW 31 : ... .. . ... : ... .. . ... : ... .. . ... : ... .. . ... : ... .. . ... : ... .. . ... : ... .. . ...
ROW 32 : ... .. . ... : ... .. . ... : ... .. . ... : ... .. . ... : ... .. . ... : ... .. . ... : ... .. . ...
ROW 33 : ... .. . ... : ... .. . ... : ... .. . ... : ... .. . ... : ... .. . ... : ... .. . ... : ... .. . ...
ROW 34 : B-3 01 . ... : B-3 01 . ... : ... .. . ... : ... .. . ... : ... .. . ... : ... .. . ... : ... .. . ...
ROW 35 : ... .. . ... : ... .. . ... : ... .. . ... : ... .. . ... : ... .. . ... : ... .. . ... : ... .. . ...
ROW 36 : ... .. . ... : ... .. . ... : ... .. . ... : ... .. . ... : ... .. . ... : ... .. . ... : ... .. . ...
ROW 37 : ... .. . ... : ... .. . ... : ... .. . ... : ... .. . ... : ... .. . ... : ... .. . ... : ... .. . ...
ROW 38 : E-3 01 . ... : E-3 01 . ... : ... .. . ... : ... .. . ... : ... .. . ... : ... .. . ... : ... .. . ...
ROW 39 : ... .. . ... : ... .. . ... : ... .. . ... : ... .. . ... : ... .. . ... : ... .. . ... : ... .. . ...
ROW 3A : ... .. . ... : ... .. . ... : ... .. . ... : ... .. . ... : ... .. . ... : ... .. . ... : ... .. . ...
ROW 3B : ... .. . ... : ... .. . ... : ... .. . ... : ... .. . ... : ... .. . ... : ... .. . ... : ... .. . ...
ROW 3C : E-4 01 . ... : E-4 01 . ... : ... .. . ... : ... .. . ... : ... .. . ... : ... .. . ... : ... .. . ...
ROW 3D : ... .. . ... : ... .. . ... : ... .. . ... : ... .. . ... : ... .. . ... : ... .. . ... : ... .. . ...
ROW 3E : ... .. . ... : ... .. . ... : ... .. . ... : ... .. . ... : ... .. . ... : ... .. . ... : ... .. . ...
ROW 3F : ... .. . ... : ... .. . ... : ... .. . ... : ... .. . ... : ... .. . ... : ... .. . ... : ... .. . ...

PATTERN 19
ROW 00 : F#4 01 . ... : F#4 01 . ... : ... .. . ... : ... .. . ... : ... .. . ... : ... .. . ... : ... .. . ...
ROW 01 : ... .. . ... : ... .. . ... : ... .. . ... : ... .. . ... : ... .. . ... : ... .. . ... : ... .. . ...
ROW 02 : ... .. . ... : ... .. . ... : ... .. . ... : ... .. . ... : ... .. . ... : ... .. . ... : ... .. . ...
ROW 03 : ... .. . ... : ... .. . ... : ... .. . ... : ... .. . ... : ... .. . ... : ... .. . ... : ... .. . ...
ROW 04 : F#3 01 . ... : ... .. . ... : ... .. . ... : ... .. . ... : ... .. . ... : ... .. . ... : ... .. . ...
ROW 05 : ... .. . ... : ... .. . ... : ... .. . ... : ... .. . ... : ... .. . ... : ... .. . ... : ... .. . ...
ROW 06 : ... .. . ... : ... .. . ... : ... .. . ... : ... .. . ... : ... .. . ... : ... .. . ... : ... .. . ...
ROW 07 : ... .. . ... : ... .. . ... : ... .. . ... : ... .. . ... : ... .. . ... : ... .. . ... : ... .. . ...
ROW 08 : E-3 01 . ... : --- .. . ... : ... .. . ... : ... .. . ... : ... .. . ... : ... .. . ... : ... .. . ...
ROW 09 : ... .. . ... : ... .. . ... : ... .. . ... : ... .. . ... : ... .. . ... : ... .. . ... : ... .. . ...
ROW 0A : ... .. . ... : ... .. . ... : ... .. . ... : ... .. . ... : ... .. . ... : ... .. . ... : ... .. . ...
ROW 0B : ... .. . ... : ... .. . ... : ... .. . ... : ... .. . ... : ... .. . ... : ... .. . ... : ... .. . ...
ROW 0C : E-4 01 . ... : ... .. . ... : ... .. . ... : ... .. . ... : ... .. . ... : ... .. . ... : ... .. . ...
ROW 0D : ... .. . ... : ... .. . ... : ... .. . ... : ... .. . ... : ... .. . ... : ... .. . ... : ... .. . ...
ROW 0E : ... .. . ... : ... .. . ... : ... .. . ... : ... .. . ... : ... .. . ... : ... .. . ... : ... .. . ...
ROW 0F : ... .. . ... : ... .. . ... : ... .. . ... : ... .. . ... : ... .. . ... : ... .. . ... : ... .. . ...
ROW 10 : D-4 01 . ... : ... .. . ... : ... .. . ... : ... .. . ... : ... .. . ... : ... .. . ... : ... .. . ...
ROW 11 : ... .. . ... : ... .. . ... : ... .. . ... : ... .. . ... : ... .. . ... : ... .. . ... : ... .. . ...
ROW 12 : ... .. . ... : ... .. . ... : ... .. . ... : ... .. . ... : ... .. . ... : ... .. . ... : ... .. . ...
ROW 13 : ... .. . ... : ... .. . ... : ... .. . ... : ... .. . ... : ... .. . ... : ... .. . ... : ... .. . ...
ROW 14 : D-3 01 . ... : ... .. . ... : ... .. . ... : ... .. . ... : ... .. . ... : ... .. . ... : ... .. . ...
ROW 15 : ... .. . ... : ... .. . ... : ... .. . ... : ... .. . ... : ... .. . ... : ... .. . ... : ... .. . ...
ROW 16 : ... .. . ... : ... .. . ... : ... .. . ... : ... .. . ... : ... .. . ... : ... .. . ... : ... .. . ...
ROW 17 : ... .. . ... : ... .. . ... : ... .. . ... : ... .. . ... : ... .. . ... : ... .. . ... : ... .. . ...
ROW 18 : C#3 01 . ... : ... .. . ... : ... .. . ... : ... .. . ... : ... .. . ... : ... .. . ... : ... .. . ...
ROW 19 : ... .. . ... : ... .. . ... : ... .. . ... : ... .. . ... : ... .. . ... : ... .. . ... : ... .. . ...
ROW 1A : ... .. . ... : ... .. . ... : ... .. . ... : ... .. . ... : ... .. . ... : ... .. . ... : ... .. . ...
ROW 1B : ... .. . ... : ... .. . ... : ... .. . ... : ... .. . ... : ... .. . ... : ... .. . ... : ... .. . ...
ROW 1C : C#4 01 . ... : ... .. . ... : ... .. . ... : ... .. . ... : ... .. . ... : ... .. . ... : ... .. . ...
ROW 1D : ... .. . ... : ... .. . ... : ... .. . ... : ... .. . ... : ... .. . ... : ... .. . ... : ... .. . ...
ROW 1E : ... .. . ... : ... .. . ... : ... .. . ... : ... .. . ... : ... .. . ... : ... .. . ... : ... .. . ...
ROW 1F : ... .. . ... : ... .. . ... : ... .. . ... : ... .. . ... : ... .. . ... : ... .. . ... : ... .. . ...
ROW 20 : B-3 01 . ... : ... .. . ... : ... .. . ... : ... .. . ... : ... .. . ... : ... .. . ... : ... .. . ...
ROW 21 : ... .. . ... : ... .. . ... : ... .. . ... : ... .. . ... : ... .. . ... : ... .. . ... : ... .. . ...
ROW 22 : ... .. . ... : ... .. . ... : ... .. . ... : ... .. . ... : ... .. . ... : ... .. . ... : ... .. . ...
ROW 23 : ... .. . ... : ... .. . ... : ... .. . ... : ... .. . ... : ... .. . ... : ... .. . ... : ... .. . ...
ROW 24 : B-4 01 . ... : ... .. . ... : ... .. . ... : ... .. . ... : ... .. . ... : ... .. . ... : ... .. . ...
ROW 25 : ... .. . ... : ... .. . ... : ... .. . ... : ... .. . ... : ... .. . ... : ... .. . ... : ... .. . ...
ROW 26 : ... .. . ... : ... .. . ... : ... .. . ... : ... .. . ... : ... .. . ... : ... .. . ... : ... .. . ...
ROW 27 : ... .. . ... : ... .. . ... : ... .. . ... : ... .. . ... : ... .. . ... : ... .. . ... : ... .. . ...
ROW 28 : A-4 01 . ... : ... .. . ... : ... .. . ... : ... .. . ... : ... .. . ... : ... .. . ... : ... .. . ...
ROW 29 : ... .. . ... : ... .. . ... : ... .. . ... : ... .. . ... : ... .. . ... : ... .. . ... : ... .. . ...
ROW 2A : ... .. . ... : ... .. . ... : ... .. . ... : ... .. . ... : ... .. . ... : ... .. . ... : ... .. . ...
ROW 2B : ... .. . ... : ... .. . ... : ... .. . ... : ... .. . ... : ... .. . ... : ... .. . ... : ... .. . ...
ROW 2C : A-3 01 . ... : ... .. . ... : ... .. . ... : ... .. . ... : ... .. . ... : ... .. . ... : ... .. . ...
ROW 2D : ... .. . ... : ... .. . ... : ... .. . ... : ... .. . ... : ... .. . ... : ... .. . ... : ... .. . ...
ROW 2E : ... .. . ... : ... .. . ... : ... .. . ... : ... .. . ... : ... .. . ... : ... .. . ... : ... .. . ...
ROW 2F : ... .. . ... : ... .. . ... : ... .. . ... : ... .. . ... : ... .. . ... : ... .. . ... : ... .. . ...
ROW 30 : G-3 01 . ... : ... .. . ... : ... .. . ... : ... .. . ... : ... .. . ... : ... .. . ... : ... .. . ...
ROW 31 : ... .. . ... : ... .. . ... : ... .. . ... : ... .. . ... : ... .. . ... : ... .. . ... : ... .. . ...
ROW 32 : ... .. . ... : ... .. . ... : ... .. . ... : ... .. . ... : ... .. . ... : ... .. . ... : ... .. . ...
ROW 33 : ... .. . ... : ... .. . ... : ... .. . ... : ... .. . ... : ... .. . ... : ... .. . ... : ... .. . ...
ROW 34 : ... .. . ... : ... .. . ... : ... .. . ... : ... .. . ... : ... .. . ... : ... .. . ... : ... .. . ...
ROW 35 : ... .. . ... : ... .. . ... : ... .. . ... : ... .. . ... : ... .. . ... : ... .. . ... : ... .. . ...
ROW 36 : E-4 01 . ... : ... .. . ... : ... .. . ... : ... .. . ... : ... .. . ... : ... .. . ... : ... .. . ...
ROW 37 : ... .. . ... : ... .. . ... : ... .. . ... : ... .. . ... : ... .. . ... : ... .. . ... : ... .. . ...
ROW 38 : A-3 01 F ... : ... .. . ... : ... .. . ... : ... .. . ... : ... .. . ... : ... .. . ... : ... .. . ...
ROW 39 : ... .. . ... : ... .. . ... : ... .. . ... : ... .. . ... : ... .. . ... : ... .. . ... : ... .. . ...
ROW 3A : ... .. . ... : ... .. . ... : ... .. . ... : ... .. . ... : ... .. . ... : ... .. . ... : ... .. . ...
ROW 3B : ... .. 6 ... : ... .. . ... : ... .. . ... : ... .. . ... : ... .. . ... : ... .. . ... : ... .. . ...
ROW 3C : A-3 01 F ... : ... .. . ... : ... .. . ... : ... .. . ... : ... .. . ... : ... .. . ... : ... .. . ...
ROW 3D : ... .. . ... : ... .. . ... : ... .. . ... : ... .. . ... : ... .. . ... : ... .. . ... : ... .. . ...
ROW 3E : ... .. . ... : ... .. . ... : ... .. . ... : ... .. . ... : ... .. . ... : ... .. . ... : ... .. . ...
ROW 3F : ... .. 6 ... : ... .. . ... : ... .. . ... : ... .. . ... : ... .. . ... : ... .. . ... : ... .. . ...

PATTERN 1A
ROW 00 : A-3 01 F ... : ... .. . ... : ... .. . ... : ... .. . ... : ... .. . ... : ... .. . ... : ... .. . ...
ROW 01 : ... .. . ... : ... .. . ... : ... .. . ... : ... .. . ... : ... .. . ... : ... .. . ... : ... .. . ...
ROW 02 : ... .. . ... : ... .. . ... : ... .. . ... : ... .. . ... : ... .. . ... : ... .. . ... : ... .. . ...
ROW 03 : ... .. . ... : ... .. . ... : ... .. . ... : ... .. . ... : ... .. . ... : ... .. . ... : ... .. . ...
ROW 04 : ... .. . ... : ... .. . ... : ... .. . ... : ... .. . ... : ... .. . ... : ... .. . ... : ... .. . ...
ROW 05 : ... .. . ... : ... .. . ... : ... .. . ... : ... .. . ... : ... .. . ... : ... .. . ... : ... .. . ...
ROW 06 : ... .. . ... : ... .. . ... : ... .. . ... : ... .. . ... : ... .. . ... : ... .. . ... : ... .. . ...
ROW 07 : ... .. . ... : ... .. . ... : ... .. . ... : ... .. . ... : ... .. . ... : ... .. . ... : ... .. . ...
ROW 08 : --- .. . ... : ... .. . ... : ... .. . ... : ... .. . ... : ... .. . ... : ... .. . ... : ... .. . ...
ROW 09 : ... .. . ... : ... .. . ... : ... .. . ... : ... .. . ... : ... .. . ... : ... .. . ... : ... .. . ...
ROW 0A : ... .. . ... : ... .. . ... : ... .. . ... : ... .. . ... : ... .. . ... : ... .. . ... : ... .. . ...
ROW 0B : ... .. . ... : ... .. . ... : ... .. . ... : ... .. . ... : ... .. . ... : ... .. . ... : ... .. . ...
ROW 0C : ... .. . ... : ... .. . ... : ... .. . ... : ... .. . ... : ... .. . ... : ... .. . ... : ... .. . ...
ROW 0D : ... .. . ... : ... .. . ... : ... .. . ... : ... .. . ... : ... .. . ... : ... .. . ... : ... .. . ...
ROW 0E : ... .. . ... : ... .. . ... : ... .. . ... : ... .. . ... : ... .. . ... : ... .. . ... : ... .. . ...
ROW 0F : ... .. . ... : ... .. . ... : ... .. . ... : ... .. . ... : ... .. . ... : ... .. . ... : ... .. . ...
ROW 10 : ... .. . B00 : ... .. . ... : ... .. . ... : ... .. . ... : ... .. . ... : ... .. . ... : ... .. . ...
ROW 11 : ... .. . ... : ... .. . ... : ... .. . ... : ... .. . ... : ... .. . ... : ... .. . ... : ... .. . ...
ROW 12 : ... .. . ... : ... .. . ... : ... .. . ... : ... .. . ... : ... .. . ... : ... .. . ... : ... .. . ...
ROW 13 : ... .. . ... : ... .. . ... : ... .. . ... : ... .. . ... : ... .. . ... : ... .. . ... : ... .. . ...
ROW 14 : ... .. . ... : ... .. . ... : ... .. . ... : ... .. . ... : ... .. . ... : ... .. . ... : ... .. . ...
ROW 15 : ... .. . ... : ... .. . ... : ... .. . ... : ... .. . ... : ... .. . ... : ... .. . ... : ... .. . ...
ROW 16 : ... .. . ... : ... .. . ... : ... .. . ... : ... .. . ... : ... .. . ... : ... .. . ... : ... .. . ...
ROW 17 : ... .. . ... : ... .. . ... : ... .. . ... : ... .. . ... : ... .. . ... : ... .. . ... : ... .. . ...
ROW 18 : ... .. . ... : ... .. . ... : ... .. . ... : ... .. . ... : ... .. . ... : ... .. . ... : ... .. . ...
ROW 19 : ... .. . ... : ... .. . ... : ... .. . ... : ... .. . ... : ... .. . ... : ... .. . ... : ... .. . ...
ROW 1A : ... .. . ... : ... .. . ... : ... .. . ... : ... .. . ... : ... .. . ... : ... .. . ... : ... .. . ...
ROW 1B : ... .. . ... : ... .. . ... : ... .. . ... : ... .. . ... : ... .. . ... : ... .. . ... : ... .. . ...
ROW 1C : ... .. . ... : ... .. . ... : ... .. . ... : ... .. . ... : ... .. . ... : ... .. . ... : ... .. . ...
ROW 1D : ... .. . ... : ... .. . ... : ... .. . ... : ... .. . ... : ... .. . ... : ... .. . ... : ... .. . ...
ROW 1E : ... .. . ... : ... .. . ... : ... .. . ... : ... .. . ... : ... .. . ... : ... .. . ... : ... .. . ...
ROW 1F : ... .. . ... : ... .. . ... : ... .. . ... : ... .. . ... : ... .. . ... : ... .. . ... : ... .. . ...
ROW 20 : ... .. . ... : ... .. . ... : ... .. . ... : ... .. . ... : ... .. . ... : ... .. . ... : ... .. . ...
ROW 21 : ... .. . ... : ... .. . ... : ... .. . ... : ... .. . ... : ... .. . ... : ... .. . ... : ... .. . ...
ROW 22 : ... .. . ... : ... .. . ... : ... .. . ... : ... .. . ... : ... .. . ... : ... .. . ... : ... .. . ...
ROW 23 : ... .. . ... : ... .. . ... : ... .. . ... : ... .. . ... : ... .. . ... : ... .. . ... : ... .. . ...
ROW 24 : ... .. . ... : ... .. . ... : ... .. . ... : ... .. . ... : ... .. . ... : ... .. . ... : ... .. . ...
ROW 25 : ... .. . ... : ... .. . ... : ... .. . ... : ... .. . ... : ... .. . ... : ... .. . ... : ... .. . ...
ROW 26 : ... .. . ... : ... .. . ... : ... .. . ... : ... .. . ... : ... .. . ... : ... .. . ... : ... .. . ...
ROW 27 : ... .. . ... : ... .. . ... : ... .. . ... : ... .. . ... : ... .. . ... : ... .. . ... : ... .. . ...
ROW 28 : ... .. . ... : ... .. . ... : ... .. . ... : ... .. . ... : ... .. . ... : ... .. . ... : ... .. . ...
ROW 29 : ... .. . ... : ... .. . ... : ... .. . ... : ... .. . ... : ... .. . ... : ... .. . ... : ... .. . ...
ROW 2A : ... .. . ... : ... .. . ... : ... .. . ... : ... .. . ... : ... .. . ... : ... .. . ... : ... .. . ...
ROW 2B : ... .. . ... : ... .. . ... : ... .. . ... : ... .. . ... : ... .. . ... : ... .. . ... : ... .. . ...
ROW 2C : ... .. . ... : ... .. . ... : ... .. . ... : ... .. . ... : ... .. . ... : ... .. . ... : ... .. . ...
ROW 2D : ... .. . ... : ... .. . ... : ... .. . ... : ... .. . ... : ... .. . ... : ... .. . ... : ... .. . ...
ROW 2E : ... .. . ... : ... .. . ... : ... .. . ... : ... .. . ... : ... .. . ... : ... .. . ... : ... .. . ...
ROW 2F : ... .. . ... : ... .. . ... : ... .. . ... : ... .. . ... : ... .. . ... : ... .. . ... : ... .. . ...
ROW 30 : ... .. . ... : ... .. . ... : ... .. . ... : ... .. . ... : ... .. . ... : ... .. . ... : ... .. . ...
ROW 31 : ... .. . ... : ... .. . ... : ... .. . ... : ... .. . ... : ... .. . ... : ... .. . ... : ... .. . ...
ROW 32 : ... .. . ... : ... .. . ... : ... .. . ... : ... .. . ... : ... .. . ... : ... .. . ... : ... .. . ...
ROW 33 : ... .. . ... : ... .. . ... : ... .. . ... : ... .. . ... : ... .. . ... : ... .. . ... : ... .. . ...
ROW 34 : ... .. . ... : ... .. . ... : ... .. . ... : ... .. . ... : ... .. . ... : ... .. . ... : ... .. . ...
ROW 35 : ... .. . ... : ... .. . ... : ... .. . ... : ... .. . ... : ... .. . ... : ... .. . ... : ... .. . ...
ROW 36 : ... .. . ... : ... .. . ... : ... .. . ... : ... .. . ... : ... .. . ... : ... .. . ... : ... .. . ...
ROW 37 : ... .. . ... : ... .. . ... : ... .. . ... : ... .. . ... : ... .. . ... : ... .. . ... : ... .. . ...
ROW 38 : ... .. . ... : ... .. . ... : ... .. . ... : ... .. . ... : ... .. . ... : ... .. . ... : ... .. . ...
ROW 39 : ... .. . ... : ... .. . ... : ... .. . ... : ... .. . ... : ... .. . ... : ... .. . ... : ... .. . ...
ROW 3A : ... .. . ... : ... .. . ... : ... .. . ... : ... .. . ... : ... .. . ... : ... .. . ... : ... .. . ...
ROW 3B : ... .. . ... : ... .. . ... : ... .. . ... : ... .. . ... : ... .. . ... : ... .. . ... : ... .. . ...
ROW 3C : ... .. . ... : ... .. . ... : ... .. . ... : ... .. . ... : ... .. . ... : ... .. . ... : ... .. . ...
ROW 3D : ... .. . ... : ... .. . ... : ... .. . ... : ... .. . ... : ... .. . ... : ... .. . ... : ... .. . ...
ROW 3E : ... .. . ... : ... .. . ... : ... .. . ... : ... .. . ... : ... .. . ... : ... .. . ... : ... .. . ...
ROW 3F : ... .. . ... : ... .. . ... : ... .. . ... : ... .. . ... : ... .. . ... : ... .. . ... : ... .. . ...

# End of export
